<?xml version="1.0" standalone="no"?>
<!DOCTYPE svg PUBLIC "-//W3C//DTD SVG 1.1//EN" "http://www.w3.org/Graphics/SVG/1.1/DTD/svg11.dtd" >
<svg>
<defs>
<font id="Gyan-Handwritten-Regular" horiz-adv-x="20" >
<font-face units-per-em="100" ascent="80" descent="-20" />
<font-src>
	<font-face-name="XmlParser.encode (Gyan Handwritten Regular)">
</font-src>
<glyph unicode=" " horiz-adv-x="20" d="" />
<glyph unicode="!" horiz-adv-x="20.035471085781488" d="M17.525000000000002 52.175050709939143 C16.625000000000021 42.475050709939154 15.825000000000010 32.775050709939137 15.125000000000021 22.975050709939126 C14.825000000000010 19.175050709939143 8.825000000000010 19.175050709939143 9.125000000000021 22.975050709939126 C9.924999999999976 32.675050709939114 10.724999999999987 42.475050709939154 11.524999999999999 52.175050709939143 C11.825000000000010 55.975050709939154 17.825000000000010 56.075050709939148 17.524999999999999 52.175050709939143 zM11.424999999999999 17.975050709939129 C7.524999999999999 17.975050709939126 7.524999999999999 11.975050709939154 11.424999999999976 11.975050709939154 C15.325000000000010 11.975050709939154 15.325000000000010 17.975050709939126 11.424999999999976 17.975050709939126 z" />
<glyph unicode="," horiz-adv-x="10.30704998385804" d="M2.726687282986112 21.644624746450337 C4.226687282986113 22.444624746450359 5.926687282986101 21.944624746450330 6.826687282986136 20.644624746450319 C9.026687282986124 17.344624746450336 7.126687282986090 13.844624746450307 5.026687282986124 11.144624746450290 C4.026687282986124 9.844624746450307 1.826687282986135 10.144624746450290 0.826687282986135 11.144624746450290 C-0.373312717013910 12.344624746450307 -0.173312717013865 14.044624746450296 0.826687282986135 15.344624746450279 C1.126687282986090 15.744624746450285 1.526687282986124 16.244624746450313 1.726687282986112 16.744624746450313 C1.926687282986101 17.244624746450313 1.926687282986101 17.144624746450290 1.626687282986090 17.544624746450296 C0.826687282986135 18.944624746450302 1.426687282986101 20.844624746450336 2.726687282986112 21.644624746450347 z" />
<glyph unicode="." horiz-adv-x="13.35" d="M7.924999999999999 24.657200811359072 C4.025000000000011 24.657200811359075 4.025000000000011 18.657200811359019 7.924999999999988 18.657200811359019 C11.825000000000022 18.657200811359019 11.825000000000022 24.657200811359075 7.924999999999988 24.657200811359075 z" />
<glyph unicode="?" horiz-adv-x="56" d="M34.701419878296150 37.194726166328593 C33.001419878296133 35.794726166328587 30.901419878296167 35.094726166328599 29.001419878296133 33.994726166328604 C27.901419878296167 33.394726166328610 26.201419878296122 32.694726166328593 25.501419878296133 31.594726166328599 C23.601419878296156 28.394726166328610 28.901419878296167 26.294726166328587 28.701419878296122 29.994726166328604 C28.501419878296133 33.894726166328610 34.501419878296133 33.794726166328587 34.701419878296122 29.994726166328604 C35.401419878296110 18.594726166328599 18.201419878296122 19.894726166328610 18.901419878296167 30.594726166328599 C19.101419878296156 34.994726166328604 22.901419878296167 37.594726166328599 26.501419878296133 39.494726166328576 C29.301419878296144 40.894726166328610 32.801419878296144 41.994726166328576 32.701419878296122 45.794726166328587 C32.601419878296156 51.694726166328593 25.101419878296156 51.394726166328610 24.001419878296133 46.094726166328599 C23.201419878296122 42.294726166328587 17.501419878296133 43.894726166328610 18.201419878296122 47.694726166328593 C20.101419878296156 57.694726166328593 34.101419878296156 59.494726166328576 38.001419878296133 49.794726166328587 C39.801419878296144 45.394726166328581 38.301419878296144 40.294726166328587 34.701419878296122 37.194726166328593 zM26.301419878296141 20.394726166328603 C22.401419878296167 20.394726166328610 22.401419878296167 14.394726166328610 26.301419878296144 14.394726166328610 C30.201419878296122 14.394726166328610 30.201419878296122 20.394726166328610 26.301419878296144 20.394726166328610 z" />
<glyph unicode="A" horiz-adv-x="29.794171785029299" d="M27.090222656478133 24.821344401759447 C28.388135876912727 21.241481098193077 23.125315728190643 18.537276209098110 21.727565325734432 22.122843641518443 C20.523785158467447 25.597165634209233 19.114626498303338 28.983058702586305 17.811009149014765 32.463084824131045 C15.486233318247642 32.095093877664738 13.150049229772563 31.527428567155170 10.813865141297484 30.959763256645601 C10.060830570110070 28.298384115185939 9.213662945755019 25.742546284601929 8.366495321399967 23.186708454017833 C7.157070733586195 19.549774007758003 1.457780237996431 21.478008393635236 2.667204825810202 25.114942839895093 C3.391718752727641 27.277136071246701 4.121936808499029 29.539166484619926 4.746613553394880 31.707063844825512 C4.216040007513030 32.939334802208833 4.512684562074142 34.625158638868356 5.867609216895019 35.549376783982666 C7.367974230415840 40.772297884880373 8.668664879893427 46.006627243486037 9.875222476203376 51.346497912967322 C10.009284431348945 51.939816876243043 10.237479439662096 52.427594528642970 10.554103372288935 52.709993688145858 C11.483995792103613 54.960615843811070 14.841368216210824 55.870588593867382 15.990944232288044 53.200668186203529 C17.913564051772099 48.282992614378259 19.841888000110103 43.465154224574519 21.764507819594158 38.547478652749248 C23.222136647940445 37.763056445788095 23.912455655887541 35.820516956545475 23.333411941823627 34.451317052512820 C24.548600366798567 31.176669423865292 25.769492920627570 28.001858977239351 27.090222656478105 24.821344401759461 zM15.528969503422072 38.102437185523769 C15.004100086394217 39.434545324928706 14.379393487344842 40.772357593187479 13.860228199171004 42.204302914614033 C13.469450591442310 40.624020388830161 12.978835801691972 39.049441991900238 12.588058193963334 37.469159466116366 C13.603542400741404 37.711629723641323 14.513485296643935 37.859966927998812 15.528969503422061 38.102437185523769 z" />
<glyph unicode="B" horiz-adv-x="28.008420291064915" d="M25.508420291064915 29.068762677484798 C25.208420291064929 19.868762677484796 16.408420291064918 18.368762677484796 9.008420291064940 19.068762677484784 C7.208420291064929 17.968762677484790 4.308420291064895 18.768762677484801 4.208420291064929 21.468762677484790 C3.808420291064895 30.768762677484801 3.308420291064895 39.968762677484790 2.508420291064940 49.268762677484801 C2.408420291064918 50.668762677484779 3.208420291064929 51.568762677484784 4.208420291064929 51.968762677484790 C4.408420291064918 52.068762677484784 4.608420291064906 52.168762677484779 4.808420291064895 52.368762677484767 C11.008420291064940 54.968762677484790 19.408420291064918 54.568762677484784 21.608420291064906 46.968762677484790 C22.508420291064940 43.768762677484801 21.808420291064895 41.468762677484790 20.208420291064929 39.568762677484813 C20.308420291064895 39.368762677484796 20.508420291064940 39.268762677484801 20.708420291064929 39.168762677484807 C23.908420291064918 36.968762677484790 25.508420291064940 32.868762677484796 25.508420291064940 29.068762677484813 zM8.708420291064911 47.368762677484781 C8.908420291064918 44.868762677484767 9.108420291064906 42.268762677484801 9.308420291064895 39.768762677484801 C11.308420291064895 40.468762677484790 13.708420291064929 41.068762677484784 15.008420291064940 42.668762677484779 C18.608420291064906 47.268762677484801 11.908420291064918 48.168762677484779 8.708420291064929 47.368762677484767 zM9.808420291064913 33.568762677484798 C9.808420291064895 33.568762677484813 9.708420291064929 33.568762677484813 9.708420291064929 33.568762677484813 C9.808420291064895 30.668762677484807 10.008420291064883 27.768762677484801 10.108420291064906 24.868762677484796 C13.808420291064895 24.468762677484790 18.708420291064929 24.368762677484796 19.408420291064918 28.868762677484796 C20.508420291064940 35.468762677484790 13.808420291064895 35.068762677484813 9.808420291064895 33.568762677484813 z" />
<glyph unicode="C" horiz-adv-x="27.703594245772639" d="M17.328275931826230 47.628600405679492 C13.428275931826233 50.028600405679470 10.228275931826245 45.028600405679470 9.228275931826245 41.828600405679481 C8.528275931826256 39.628600405679492 8.328275931826211 37.228600405679487 8.528275931826256 34.928600405679504 C8.728275931826245 32.228600405679487 9.328275931826211 28.928600405679504 11.428275931826233 27.028600405679498 C14.528275931826256 24.228600405679515 18.528275931826258 26.228600405679515 19.328275931826212 30.128600405679492 C20.128275931826224 33.928600405679504 25.928275931826235 32.328600405679509 25.128275931826224 28.528600405679498 C23.928275931826235 22.928600405679504 19.228275931826246 19.028600405679526 13.428275931826233 19.628600405679492 C7.328275931826211 20.228600405679515 4.128275931826222 25.528600405679498 3.028275931826199 31.028600405679498 C1.828275931826211 37.328600405679509 2.528275931826199 44.428600405679504 6.628275931826222 49.628600405679492 C10.028275931826256 54.028600405679498 15.528275931826256 55.828600405679481 20.428275931826235 52.828600405679481 C23.728275931826246 50.828600405679481 20.728275931826246 45.628600405679492 17.328275931826212 47.628600405679492 z" />
<glyph unicode="D" horiz-adv-x="28.380555082246133" d="M21.317720526155757 25.107690631012588 C17.565300438047078 21.026104728160817 12.725857526849953 20.516406475009973 7.447498248494984 21.034984654848131 C7.048223171193175 21.059055646635841 6.754784611163760 21.176927659802146 6.461346051134345 21.294799672968395 C5.281574063069744 21.666468956307881 4.137908562686906 22.637050855600137 4.134373760512293 24.240168912754257 C3.953168698670087 32.866707310371368 3.771963636827824 41.493245707988336 3.596776322932559 50.219602874930899 C3.608811818826386 50.419240413581804 3.614829566773441 50.519059182907512 3.620847314720383 50.618877952232964 C3.212019687297076 52.146248231849341 3.813415249022118 53.813078570647320 5.827843879371930 53.992179919685071 C15.700349492469858 54.899722160767737 24.933921966790994 48.532529736986305 25.817393216085978 38.260749046586568 C26.227272699911513 33.427323883336499 24.634759049281062 28.614434909699412 21.317720526155771 25.107690631012588 zM19.722430539286542 38.528012902023619 C18.931329221999992 43.684965365037726 14.650105780497544 47.449420949040388 9.577401788740421 48.055782402310115 C9.749054300461129 40.932543292521672 9.926724560128552 33.909122952058624 10.098377071849260 26.785883842270152 C12.999139130234202 26.711187921134638 15.530714851052043 27.159656838414065 17.595768410749603 29.840245168534977 C19.449148935902432 32.333231455898868 20.240629486156823 35.491325586631632 19.722430539286567 38.528012902023619 z" />
<glyph unicode="E" horiz-adv-x="25.392129411839367" d="M7.887917895832268 18.715334061510230 C6.185017996837084 18.703847808758667 5.069820490655909 20.364069035645940 5.047936764785627 21.867239386119252 C4.868757000896617 31.890107968127722 4.684378500448370 41.813111775875399 4.500000000000009 51.736115583622961 C4.504109956926593 53.738609805400898 6.054068936434257 54.659276499619608 7.646706588049776 54.476231940408667 C7.846436136571592 54.465834467289909 8.151229195913752 54.550103031872709 8.450823518696561 54.534506822194601 C12.350748451432148 54.431620870639904 16.161206083025498 54.533663204166317 20.181790736259536 54.825037613095958 C23.997447104412295 55.026944720883421 23.685522910849848 49.035058265227775 19.869866542697089 48.833151157440312 C16.753263594370772 48.594852893737226 13.746922893424264 48.551085441996634 10.645916154776112 48.612381501076356 C10.636607461290120 46.510022505037483 10.732362278624473 44.502329546700111 10.723053585138539 42.399970550661237 C12.531016994953982 42.506122841114347 14.444043915589711 42.706941169268902 16.252007325405152 42.813093459722012 C17.860241186698779 42.929643223293851 19.426885155517375 42.247274792778342 19.837830505312645 40.523579947545670 C20.164507290525087 39.104678161655187 19.156550854429902 37.054306531209988 17.548316993136275 36.937756767638149 C15.335695749717738 36.752534649161646 13.023209732038262 36.572511267244494 10.810588488619667 36.387289148767962 C10.912630822146250 32.576831517174554 10.909609644852432 28.671707847879532 11.011651978378959 24.861250216286123 C13.718398356542830 24.920613877704852 16.435542207825343 25.179707087645397 19.163083532226672 25.638529846107872 C22.999534846616946 26.239896050939024 24.295844514348012 20.364559358855189 20.459393199957738 19.763193154024009 C16.323347562784654 19.177423158870965 12.097834624469394 18.796581448799259 7.887917895832240 18.715334061510219 z" />
<glyph unicode="F" horiz-adv-x="25.887500000000003" d="M12.500000000000002 50.554563894523326 C12.499999999999998 48.254563894523329 12.499999999999998 46.054563894523312 12.499999999999998 43.754563894523329 C14.899999999999975 44.054563894523312 17.199999999999989 44.354563894523324 19.600000000000023 44.454563894523346 C23.500000000000000 44.654563894523335 23.400000000000034 38.654563894523335 19.600000000000023 38.454563894523346 C17.300000000000011 38.354563894523324 14.999999999999998 38.154563894523335 12.699999999999987 37.754563894523329 C12.800000000000010 32.354563894523324 13.100000000000021 27.054563894523312 13.399999999999975 21.754563894523329 C13.600000000000021 17.854563894523324 7.600000000000021 17.954563894523318 7.399999999999975 21.754563894523329 C6.800000000000010 32.154563894523335 6.499999999999998 42.654563894523335 6.499999999999998 53.154563894523335 C6.499999999999998 54.154563894523335 6.899999999999975 54.854563894523324 7.499999999999998 55.354563894523324 C7.899999999999975 55.754563894523329 8.300000000000010 56.054563894523312 8.800000000000010 56.154563894523335 C12.699999999999987 56.654563894523335 16.600000000000023 56.954563894523318 20.500000000000000 56.654563894523335 C24.300000000000011 56.354563894523324 24.399999999999977 50.354563894523324 20.500000000000000 50.654563894523335 C17.800000000000011 50.854563894523324 15.199999999999987 50.854563894523324 12.499999999999998 50.554563894523312 z" />
<glyph unicode="G" horiz-adv-x="29.624627663142082" d="M19.544680669305396 19.441987829614590 C12.944680669305392 16.941987829614590 6.044680669305414 21.541987829614584 3.744680669305403 27.641987829614607 C1.244680669305403 34.241987829614573 2.644680669305380 43.641987829614607 6.744680669305403 49.341987829614595 C10.444680669305392 54.441987829614618 17.144680669305380 55.841987829614595 21.944680669305392 51.641987829614607 C24.944680669305392 49.241987829614601 20.644680669305380 44.941987829614618 17.744680669305403 47.441987829614618 C13.444680669305392 51.141987829614607 10.244680669305403 43.841987829614624 9.444680669305392 40.941987829614618 C8.544680669305414 37.441987829614618 7.944680669305392 33.441987829614590 9.244680669305403 30.041987829614612 C11.044680669305414 25.341987829614595 16.544680669305414 22.541987829614584 19.944680669305392 27.441987829614590 C21.544680669305414 29.641987829614607 21.444680669305392 32.941987829614618 21.144680669305380 35.841987829614624 C19.244680669305403 35.641987829614607 17.444680669305392 35.441987829614618 15.544680669305414 35.241987829614601 C11.744680669305403 34.841987829614624 11.744680669305403 40.841987829614624 15.544680669305414 41.241987829614601 C18.344680669305426 41.541987829614612 21.044680669305414 41.841987829614624 23.744680669305403 42.141987829614607 C25.544680669305414 42.341987829614624 26.544680669305414 40.641987829614607 26.744680669305403 39.141987829614607 C27.644680669305380 32.141987829614607 27.544680669305414 22.441987829614590 19.544680669305414 19.441987829614590 z" />
<glyph unicode="H" horiz-adv-x="26.777991528040836" d="M23.044156520734020 21.574899307152346 C22.745503738351928 17.716164787298595 16.801059731569282 17.870787323948633 17.099712513951360 21.729521843802388 C17.418981634553390 26.380848897893770 17.636599646098077 30.935678927483082 17.856794699920485 35.589583023852015 C14.775190460639450 35.273175067335728 11.795237330415418 35.053264135321683 8.718787175689371 34.935004312364867 C8.999116540320514 30.466363138167850 9.276868862674675 25.898647897191040 9.755346360865346 21.424852638439035 C10.152789088218682 17.647152889422500 4.208345081435979 17.801775426072652 3.810902354082586 21.579475175089215 C2.790951882806596 31.916679669786674 2.365445812208335 42.238421910819170 2.536961184566493 52.643775964966323 C2.637465833389044 56.507664569375038 8.581909840171917 56.353042032724773 8.481405191349367 52.489153428316058 C8.380900542526760 48.625264823907344 8.478544027263624 44.756222134943556 8.576187512000487 40.887179445979854 C11.751711733506212 41.002862226659175 14.929812997289488 41.217619074118488 18.110491303350258 41.531449988357281 C18.216150036727853 45.593486726325494 18.324385812382829 49.754597531073102 18.333547521258296 53.918285378098460 C18.334978103301168 57.784751024784697 24.279422110083701 57.630128488134886 24.277991528040829 53.763662841448649 C24.195242053352317 42.959435477905146 23.817847420602888 32.262013307973604 23.044156520734006 21.574899307152350 z" />
<glyph unicode="I" horiz-adv-x="17.310358007101343" d="M11.510358007101344 53.481338742393504 C12.310358007101321 42.181338742393507 12.710358007101355 30.881338742393524 12.810358007101321 19.581338742393513 C12.810358007101321 15.681338742393507 6.810358007101321 15.681338742393507 6.810358007101321 19.581338742393513 C6.710358007101355 30.881338742393524 6.310358007101321 42.181338742393507 5.510358007101367 53.481338742393518 C5.210358007101355 57.381338742393496 11.310358007101321 57.281338742393530 11.510358007101367 53.481338742393518 z" />
<glyph unicode="J" horiz-adv-x="29.345383466977697" d="M24.672800000000002 50.021501014198783 C23.472800000000024 49.821501014198788 22.272799999999979 49.621501014198770 21.072799999999990 49.721501014198793 C21.372800000000002 43.721501014198765 21.772799999999979 37.621501014198799 21.872800000000002 31.621501014198799 C21.872800000000002 27.421501014198782 21.272799999999979 23.021501014198776 18.072799999999990 20.021501014198776 C10.772799999999979 13.121501014198799 4.072799999999990 22.721501014198793 3.972800000000024 29.821501014198788 C3.972800000000024 33.721501014198793 9.972799999999967 33.721501014198793 9.972799999999967 29.821501014198788 C9.972799999999967 27.021501014198805 12.272799999999979 21.021501014198805 14.972799999999967 25.621501014198799 C16.372800000000002 28.021501014198805 15.872800000000002 31.321501014198788 15.772799999999979 34.021501014198805 C15.572799999999990 38.821501014198788 15.372800000000002 43.721501014198793 15.172800000000013 48.621501014198770 C12.172800000000013 48.221501014198793 9.272799999999979 47.721501014198793 6.272799999999979 47.321501014198788 C2.472800000000024 46.721501014198793 0.872800000000002 52.521501014198776 4.672800000000013 53.121501014198770 C10.772799999999979 54.021501014198776 16.872800000000002 54.921501014198753 23.072799999999990 55.821501014198759 C26.872800000000002 56.321501014198759 28.472800000000024 50.521501014198776 24.672800000000013 50.021501014198776 z" />
<glyph unicode="K" horiz-adv-x="27.541864741251075" d="M19.310471085781490 19.734888438133893 C16.310471085781501 24.134888438133885 13.010471085781489 28.334888438133873 9.610471085781512 32.434888438133896 C9.710471085781478 28.434888438133896 9.810471085781501 24.334888438133873 9.910471085781467 20.334888438133873 C10.010471085781489 16.434888438133896 4.010471085781489 16.434888438133896 3.910471085781467 20.334888438133873 C3.910471085781467 26.934888438133896 3.610471085781512 33.534888438133862 3.310471085781501 40.134888438133885 C3.210471085781478 40.434888438133868 3.210471085781478 40.834888438133873 3.210471085781478 41.134888438133885 C3.010471085781489 44.934888438133868 2.810471085781501 48.834888438133873 2.510471085781489 52.734888438133879 C2.210471085781478 56.634888438133885 8.210471085781478 56.534888438133891 8.510471085781489 52.734888438133879 C8.810471085781501 49.134888438133885 9.010471085781489 45.534888438133891 9.210471085781478 41.934888438133868 C9.310471085781501 41.834888438133873 9.510471085781489 41.634888438133885 9.610471085781512 41.434888438133868 C12.710471085781478 45.134888438133885 15.510471085781489 49.034888438133891 18.210471085781478 53.034888438133891 C20.310471085781501 56.234888438133879 25.510471085781489 53.234888438133879 23.410471085781467 50.034888438133891 C20.410471085781467 45.434888438133896 17.110471085781512 41.134888438133885 13.610471085781512 36.934888438133896 C17.510471085781489 32.334888438133873 21.110471085781512 27.634888438133885 24.510471085781489 22.734888438133879 C26.710471085781478 19.534888438133891 21.510471085781489 16.534888438133891 19.310471085781501 19.734888438133908 z" />
<glyph unicode="L" horiz-adv-x="23.955817493239923" d="M19.124838199320962 21.148286439669334 C14.974739562472461 20.382335198121837 10.818971646867464 19.516544789518719 6.569033842963233 18.756262826727550 C4.543904108066851 18.370452566575636 2.926008170708098 19.864578644213651 2.939554578779120 21.867031264084687 C2.824616121291751 32.190150422119757 2.615507775505090 42.618778025966833 2.500569318017721 52.941897184001874 C2.422153688347702 56.852632535444570 8.406834432935579 56.412636643008767 8.490919341361927 52.601740458621805 C8.673889143925361 43.476691305255599 8.762689058189391 34.457150597701343 8.845819693697091 25.337770723091438 C11.886348935419800 25.966405696847175 14.821369731330389 26.500870782303309 17.861898973053155 27.129505756059075 C21.706810829978121 27.812625666819827 22.975419335002254 21.931245517485848 19.124838199320958 21.148286439669334 z" />
<glyph unicode="M" horiz-adv-x="36.73070441698912" d="M28.201175513939511 22.761663286004058 C27.401175513939531 29.661663286004057 26.301175513939508 36.461663286004068 25.001175513939497 43.161663286004057 C23.101175513939520 39.261663286004080 21.101175513939520 35.261663286004051 19.201175513939486 31.361663286004045 C17.901175513939531 28.761663286004051 14.601175513939520 29.961663286004068 13.701175513939486 32.061663286004062 C12.301175513939508 35.461663286004068 10.701175513939543 38.761663286004080 8.901175513939531 41.961663286004068 C8.801175513939508 35.561663286004062 8.601175513939520 29.161663286004057 8.501175513939497 22.761663286004051 C8.401175513939531 18.861663286004045 2.401175513939531 18.861663286004045 2.501175513939497 22.761663286004051 C2.701175513939543 32.461663286004068 2.901175513939531 42.161663286004057 3.101175513939520 51.861663286004045 C3.201175513939543 55.061663286004062 7.101175513939520 55.761663286004080 8.701175513939543 53.461663286004068 C11.801175513939508 49.161663286004057 14.401175513939531 44.661663286004057 16.701175513939486 39.961663286004068 C19.001175513939497 44.561663286004062 21.301175513939508 49.261663286004080 23.601175513939520 53.861663286004074 C24.801175513939508 56.161663286004057 28.501175513939497 55.561663286004062 29.101175513939520 53.161663286004057 C31.301175513939508 43.161663286004057 33.001175513939501 33.061663286004062 34.201175513939489 22.861663286004045 C34.701175513939489 18.961663286004068 28.701175513939486 19.061663286004062 28.201175513939486 22.761663286004051 z" />
<glyph unicode="N" horiz-adv-x="29.432616059166751" d="M26.281354781574134 48.242526899807551 C26.171332073884368 52.052762457327930 20.183795036891834 52.452012041725766 20.288828175565495 48.541901040771904 C20.433861929479828 43.428295149600245 20.573906114377873 38.214813814995011 20.713950299276146 33.001332480389863 C16.309199460834773 39.028617943286918 12.004324065827031 45.050913837168025 7.699448670819120 51.073209731048991 C6.201232956204901 53.150551703975680 2.426008444909112 51.737158662634727 2.501020106374281 49.230293438765642 C2.761066136994454 40.406327433507073 3.026101736630519 31.682236871682051 3.286147767250693 22.858270866423481 C3.396170474940416 19.048035308903081 9.383707511933007 18.648785724505302 9.278674373259346 22.558896725459164 C9.158588464425375 28.171879833798215 8.938627112157942 33.789852511153242 8.818541203323971 39.402835619492294 C13.123416598331882 33.380539725611300 17.428291993339680 27.358243831730420 21.733167388347592 21.335947937849454 C23.231383102961811 19.258605964922765 27.006607614257657 20.671999006263718 26.931595952792431 23.178864230132831 C26.651591646108013 31.603328461657469 26.466473213841166 39.922927680732471 26.281354781574148 48.242526899807558 z" />
<glyph unicode="O" horiz-adv-x="31.495205868131471" d="M28.995205868131471 36.735699797160237 C28.995205868131478 29.635699797160214 24.495205868131478 22.135699797160242 17.095205868131444 20.835699797160231 C-1.504794131868522 17.435699797160254 -2.204794131868510 49.435699797160225 14.295205868131490 52.735699797160237 C14.995205868131478 52.835699797160231 15.695205868131467 52.735699797160237 16.195205868131467 52.535699797160248 C24.095205868131501 52.835699797160231 28.895205868131455 43.735699797160237 28.995205868131478 36.735699797160237 zM15.895205868131473 46.635699797160228 C15.495205868131478 46.635699797160214 15.195205868131467 46.635699797160214 14.895205868131455 46.735699797160237 C5.895205868131455 43.535699797160248 5.995205868131478 23.935699797160225 16.795205868131490 26.835699797160231 C24.895205868131455 29.035699797160248 25.195205868131467 47.135699797160214 15.895205868131455 46.635699797160214 z" />
<glyph unicode="P" horiz-adv-x="25.997140457210637" d="M10.011451851851856 31.021501014198783 C10.311451851851842 27.121501014198770 10.611451851851854 23.121501014198770 10.911451851851865 19.121501014198770 C11.211451851851876 15.221501014198793 5.411451851851865 15.421501014198782 4.911451851851865 19.121501014198770 C4.911451851851865 19.321501014198788 4.811451851851842 19.621501014198770 4.811451851851842 19.921501014198782 C4.811451851851842 20.121501014198770 4.811451851851842 20.421501014198782 4.811451851851842 20.621501014198770 C4.011451851851831 31.121501014198770 3.311451851851842 41.621501014198799 2.511451851851831 52.121501014198799 C2.311451851851842 54.621501014198799 4.711451851851876 55.521501014198805 6.511451851851831 54.821501014198788 C14.111451851851854 57.521501014198805 22.411451851851865 54.821501014198788 23.411451851851865 45.521501014198805 C24.311451851851842 37.221501014198793 18.011451851851831 30.821501014198816 10.011451851851831 31.021501014198776 zM9.611451851851859 37.021501014198797 C9.811451851851842 37.021501014198805 10.011451851851831 37.021501014198805 10.211451851851876 37.021501014198805 C19.811451851851842 35.721501014198793 19.911451851851865 53.721501014198793 8.711451851851876 49.321501014198788 C9.011451851851831 45.221501014198793 9.311451851851842 41.121501014198799 9.611451851851854 37.021501014198805 z" />
<glyph unicode="Q" horiz-adv-x="37.738181229782185" d="M20.202941967826611 17.081338742393516 C-0.497058032173413 13.181338742393507 -3.497058032173413 49.981338742393518 13.602941967826609 55.881338742393524 C14.002941967826587 56.281338742393530 14.602941967826609 56.481338742393518 15.402941967826621 56.381338742393524 C20.202941967826632 55.981338742393518 25.302941967826598 55.181338742393507 28.802941967826598 51.481338742393518 C32.002941967826644 48.181338742393507 33.302941967826598 43.581338742393541 33.702941967826632 39.181338742393507 C34.602941967826609 29.881338742393524 30.402941967826621 18.981338742393518 20.202941967826632 17.081338742393513 zM27.802941967826619 38.381338742393524 C27.602941967826609 41.481338742393518 26.702941967826632 44.981338742393518 24.602941967826609 47.281338742393530 C22.402941967826621 49.581338742393541 18.802941967826598 49.981338742393518 15.802941967826598 50.281338742393530 C4.502941967826587 46.881338742393524 6.402941967826621 18.781338742393501 20.302941967826598 23.281338742393501 C26.502941967826587 25.381338742393496 28.202941967826632 32.581338742393541 27.802941967826598 38.381338742393524 zM20.819371988110582 36.279918864097375 C22.119371988110572 32.579918864097380 25.119371988110572 29.379918864097363 27.419371988110584 26.279918864097368 C29.519371988110606 23.279918864097368 31.419371988110584 19.879918864097363 34.219371988110595 17.579918864097351 C37.219371988110595 15.179918864097374 32.919371988110584 10.879918864097363 30.019371988110606 13.379918864097363 C26.819371988110561 15.979918864097385 24.619371988110572 19.979918864097385 22.219371988110595 23.279918864097368 C19.619371988110572 26.879918864097363 16.619371988110572 30.379918864097363 15.019371988110606 34.679918864097374 C13.719371988110595 38.279918864097368 19.519371988110606 39.879918864097363 20.819371988110561 36.279918864097368 z" />
<glyph unicode="R" horiz-adv-x="31.205635620231931" d="M23.578991894781730 18.767139959432058 C20.675428966416533 24.480602495893578 16.647906194811654 29.444758470195836 13.557016625906797 35.064557686387587 C12.152066821858867 34.783567725578024 10.747117017810993 34.689904405308141 9.529493854302828 34.783567725578024 C9.997810455651589 29.725748431005627 10.466127057001600 24.574265816163319 11.121770298890411 19.516446521590922 C11.590086900239285 15.957240351336281 5.970287684047676 15.957240351336281 5.501971082698859 19.516446521590922 C4.190684598921237 30.100401712085159 3.254051396221044 40.871683543118934 2.504744834063402 51.549302053882911 C2.411081513793491 53.235241818740406 3.628704677301712 54.171875021438922 4.939991161079732 54.265538341708748 C11.683750220510106 59.136030995741237 22.923348652893040 56.888111309264843 25.358594979909086 48.177422524167952 C26.857208104226245 42.744949948516137 23.485328574512053 38.904753817451876 18.989489201558641 36.750497451245110 C21.893052129923731 31.599014836402631 25.639584940718990 26.915848822909908 28.355821228544542 21.577039567527834 C30.041760993401866 18.392486678352611 25.171268339369206 15.488923749986952 23.578991894781737 18.767139959432058 zM19.832459083987352 46.759933614363860 C18.521172600209539 52.098742869745848 11.964740181319328 52.098742869745820 8.218207370524809 49.850823183269142 C8.499197331333974 46.759933614363831 8.686523971874081 43.669044045458520 8.967513932683644 40.578154476553181 C12.901373384017759 40.390827836013472 21.050082247494871 41.608450999521551 19.832459083987331 46.759933614363860 z" />
<glyph unicode="S" horiz-adv-x="27.360915042277828" d="M24.698645460250582 30.695537525354975 C23.898645460250584 25.395537525354968 19.398645460250584 19.995537525354962 14.298645460250562 18.495537525354962 C9.098645460250573 16.895537525354968 3.698645460250596 19.695537525354979 2.398645460250584 24.995537525354962 C1.498645460250550 28.795537525354973 7.198645460250596 30.295537525354973 8.198645460250596 26.595537525354985 C9.898645460250584 19.895537525354968 17.798645460250562 27.395537525354968 18.598645460250573 30.395537525354968 C19.298645460250562 32.995537525354962 17.298645460250562 35.395537525354996 14.798645460250562 35.495537525354990 C13.298645460250562 35.595537525354985 11.498645460250607 34.795537525355002 9.998645460250607 34.395537525354996 C6.298645460250562 33.395537525354996 2.898645460250584 33.895537525354996 1.298645460250562 37.895537525354996 C-2.801354539749404 48.095537525354985 9.798645460250562 55.495537525354990 18.298645460250562 52.895537525354996 C21.998645460250550 51.795537525355002 20.398645460250584 45.995537525354990 16.698645460250596 47.095537525354985 C13.698645460250596 47.995537525354990 10.698645460250596 47.795537525355002 8.498645460250607 45.395537525354996 C6.998645460250607 43.695537525355007 5.498645460250607 40.895537525354996 8.398645460250584 40.195537525355007 C9.498645460250607 39.995537525354990 12.098645460250573 41.195537525355007 13.398645460250584 41.395537525354996 C14.698645460250596 41.595537525354985 15.998645460250550 41.695537525355007 17.398645460250584 41.495537525354990 C22.698645460250596 40.795537525355002 25.598645460250573 35.695537525354979 24.698645460250596 30.695537525354979 z" />
<glyph unicode="T" horiz-adv-x="30.367178923202221" d="M25.772583466977697 48.528600405679519 C23.672583466977716 48.328600405679509 21.572583466977694 48.028600405679526 19.472583466977671 47.728600405679515 C20.872583466977705 38.628600405679521 21.872583466977705 29.528600405679498 22.172583466977716 20.428600405679504 C22.272583466977682 16.528600405679498 16.272583466977682 16.628600405679521 16.172583466977716 20.428600405679504 C15.772583466977682 29.328600405679509 14.972583466977671 38.128600405679521 13.472583466977671 46.928600405679504 C11.072583466977694 46.528600405679526 8.672583466977716 46.228600405679515 6.272583466977682 45.928600405679504 C2.472583466977671 45.428600405679504 0.872583466977705 51.128600405679521 4.672583466977716 51.728600405679515 C7.772583466977682 52.128600405679521 10.772583466977682 52.528600405679526 13.872583466977705 52.928600405679504 C14.872583466977705 53.828600405679509 16.372583466977705 54.028600405679526 17.472583466977671 53.428600405679504 C19.672583466977716 53.728600405679515 21.872583466977705 54.028600405679526 24.072583466977694 54.328600405679509 C27.872583466977705 54.828600405679509 29.472583466977671 49.028600405679526 25.772583466977682 48.528600405679526 z" />
<glyph unicode="U" horiz-adv-x="26.399424646740087" d="M10.056814241545712 49.968762677484776 C9.456814241545715 45.368762677484767 8.956814241545715 40.768762677484801 8.656814241545703 36.068762677484784 C8.456814241545715 32.168762677484779 9.356814241545692 23.168762677484779 15.556814241545737 28.368762677484796 C20.656814241545703 32.668762677484779 17.456814241545715 43.968762677484790 16.756814241545726 49.668762677484779 C16.356814241545692 53.468762677484790 22.356814241545692 53.468762677484790 22.756814241545726 49.668762677484779 C23.856814241545692 40.568762677484756 27.256814241545726 21.268762677484773 12.756814241545726 20.868762677484796 C-1.843185758454297 20.468762677484762 3.056814241545680 43.368762677484767 4.256814241545726 51.568762677484756 C4.856814241545692 55.368762677484767 10.656814241545703 53.768762677484773 10.056814241545737 49.968762677484790 z" />
<glyph unicode="V" horiz-adv-x="26.545633084786125" d="M24.015222243123642 49.595537525354985 C22.615222243123654 39.595537525354985 20.215222243123620 29.895537525354968 16.715222243123620 20.395537525354968 C15.715222243123620 17.695537525354951 11.815222243123642 17.395537525354968 10.915222243123665 20.395537525354968 C8.015222243123631 29.895537525354968 5.315222243123642 39.395537525354996 2.615222243123654 48.895537525354996 C1.615222243123654 52.595537525354985 7.415222243123665 54.195537525354979 8.415222243123665 50.495537525354962 C10.215222243123620 44.095537525354985 12.015222243123631 37.695537525354951 13.915222243123665 31.295537525354973 C15.815222243123642 37.795537525354973 17.315222243123642 44.395537525354996 18.215222243123620 51.195537525354979 C18.715222243123620 54.995537525354962 24.515222243123631 53.395537525354996 24.015222243123631 49.595537525354985 z" />
<glyph unicode="W" horiz-adv-x="38.286552900419835" d="M35.743295865866692 49.695537525354986 C34.543295865866696 40.195537525354979 32.743295865866685 30.895537525354968 30.343295865866704 21.695537525354979 C29.643295865866715 19.195537525354979 26.143295865866715 18.795537525354973 24.843295865866704 20.995537525354990 C22.843295865866704 24.295537525354973 21.043295865866693 27.795537525354973 19.343295865866704 31.295537525354973 C17.343295865866704 27.095537525354985 15.043295865866693 23.195537525354979 11.843295865866704 19.695537525354979 C10.443295865866670 18.095537525354985 7.243295865866681 18.795537525354973 6.843295865866704 20.995537525354962 C5.443295865866670 29.895537525354968 3.943295865866670 38.695537525354979 2.543295865866693 47.495537525354962 C1.943295865866670 51.295537525354973 7.743295865866681 52.895537525354968 8.343295865866704 49.095537525354985 C9.443295865866670 42.495537525354962 10.543295865866693 35.895537525354968 11.643295865866715 29.295537525354973 C13.643295865866715 32.695537525354951 15.243295865866681 36.395537525354996 16.843295865866704 40.095537525354985 C18.043295865866693 42.795537525354973 21.543295865866693 41.395537525354996 22.343295865866704 39.395537525354996 C23.543295865866693 36.395537525354996 24.943295865866670 33.495537525354962 26.343295865866704 30.595537525354985 C27.843295865866704 37.395537525354968 29.143295865866715 44.295537525354973 30.043295865866693 51.195537525354979 C30.543295865866693 54.995537525354962 36.343295865866708 53.395537525354968 35.743295865866685 49.695537525354979 z" />
<glyph unicode="X" horiz-adv-x="29.000714108818698" d="M20.810852162913363 22.195537525354968 C18.710852162913348 25.395537525354968 16.710852162913348 28.695537525354951 14.710852162913348 31.995537525354962 C12.310852162913370 28.595537525354956 10.110852162913382 25.095537525354956 8.110852162913382 21.495537525354962 C6.210852162913348 18.095537525354956 1.010852162913359 21.095537525354956 2.910852162913336 24.495537525354962 C5.410852162913336 29.095537525354956 8.310852162913370 33.395537525354996 11.310852162913370 37.695537525354979 C9.210852162913348 41.395537525354996 7.210852162913348 45.095537525354985 5.310852162913370 48.895537525354996 C3.610852162913382 52.295537525354973 8.810852162913370 55.395537525354996 10.510852162913359 51.895537525354996 C12.010852162913359 48.895537525354996 13.610852162913382 45.895537525354996 15.310852162913370 42.995537525354962 C17.010852162913359 45.295537525354973 18.710852162913348 47.595537525354985 20.410852162913393 49.895537525354996 C22.710852162913348 52.995537525354962 27.910852162913393 49.995537525354962 25.610852162913382 46.895537525354996 C23.210852162913348 43.695537525354979 20.810852162913370 40.495537525354962 18.510852162913359 37.295537525354973 C20.910852162913336 33.195537525354979 23.410852162913336 29.195537525354979 26.010852162913359 25.195537525354979 C28.110852162913382 21.995537525354962 22.910852162913336 18.995537525354962 20.810852162913370 22.195537525354979 z" />
<glyph unicode="Y" horiz-adv-x="30.274825610782074" d="M27.472747200728264 47.962474645030433 C23.172747200728281 38.862474645030431 18.872747200728270 29.662474645030443 14.572747200728259 20.562474645030420 C12.872747200728270 17.062474645030420 7.772747200728247 20.062474645030420 9.372747200728270 23.562474645030420 C10.472747200728236 25.862474645030431 11.572747200728259 28.262474645030437 12.672747200728281 30.562474645030420 C12.472747200728236 30.662474645030443 12.272747200728247 30.862474645030431 12.172747200728281 31.062474645030420 C8.472747200728236 36.162474645030443 5.272747200728247 41.662474645030443 2.772747200728247 47.462474645030426 C1.272747200728247 50.962474645030426 6.372747200728270 54.062474645030420 7.972747200728236 50.462474645030426 C10.072747200728259 45.662474645030443 12.572747200728259 41.062474645030420 15.572747200728259 36.662474645030443 C17.772747200728247 41.462474645030454 20.072747200728259 46.162474645030443 22.272747200728247 50.962474645030426 C23.872747200728270 54.362474645030431 29.072747200728259 51.362474645030431 27.472747200728236 47.962474645030426 z" />
<glyph unicode="Z" horiz-adv-x="27.37632587986905" d="M22.781737156094959 22.995537525354976 C17.081737156094981 21.595537525354985 11.381737156094935 21.195537525354979 5.581737156094981 21.695537525354979 C3.881737156094935 21.895537525354996 1.881737156094935 23.495537525354962 2.681737156094947 25.495537525354962 C4.381737156094935 29.795537525354973 6.481737156094958 33.795537525354973 8.881737156094935 37.695537525354979 C10.281737156094970 39.895537525354968 11.681737156094947 42.095537525354985 12.981737156094958 44.295537525354973 C13.181737156094947 44.595537525354985 13.981737156094958 46.095537525354985 14.781737156094970 47.295537525354973 C11.881737156094935 47.095537525354985 8.881737156094935 46.695537525354979 6.281737156094970 46.495537525354962 C2.381737156094935 46.295537525354973 2.481737156094958 52.295537525354973 6.281737156094970 52.495537525354962 C10.281737156094970 52.695537525354979 23.981737156094958 56.095537525354985 21.681737156094947 48.095537525354985 C20.681737156094947 44.195537525354979 17.481737156094958 40.295537525354973 15.381737156094935 36.895537525354968 C13.481737156094958 33.795537525354973 11.581737156094981 30.795537525354973 9.981737156094958 27.595537525354985 C13.681737156094947 27.495537525354962 17.381737156094935 27.895537525354968 21.081737156094981 28.795537525354973 C24.881737156094935 29.695537525354979 26.481737156094958 23.895537525354968 22.781737156094970 22.995537525354962 z" />
<glyph unicode="a" horiz-adv-x="56" d="" />
<glyph unicode="b" horiz-adv-x="56" d="" />
</font>
</defs>
</svg>
