<?xml version="1.0" standalone="no"?>
<!DOCTYPE svg PUBLIC "-//W3C//DTD SVG 1.1//EN" "http://www.w3.org/Graphics/SVG/1.1/DTD/svg11.dtd" >
<svg>
<defs>
<font id="Lettuce-Party-Regular" horiz-adv-x="20" >
<font-face units-per-em="100" ascent="80" descent="-20" />
<font-src>
	<font-face-name="XmlParser.encode (Lettuce Party Regular)">
</font-src>
<glyph unicode=" " horiz-adv-x="20" d="" />
<glyph unicode="!" horiz-adv-x="20.035471085781488" d="M17.525000000032051 52.175050709899999 C16.625000000032081 42.475050709900017 15.825000000032070 32.775050709900000 15.125000000032024 22.975050709899989 C14.825000000032070 19.175050709900006 8.825000000032070 19.175050709900006 9.125000000032024 22.975050709899989 C9.925000000032036 32.675050709900006 10.725000000032047 42.475050709900017 11.525000000032058 52.175050709900006 C11.825000000032070 55.975050709900017 17.825000000032070 56.075050709899983 17.525000000032058 52.175050709900006 zM11.425000000032050 17.975050709900000 C7.525000000032058 17.975050709899989 7.525000000032058 11.975050709899989 11.425000000032036 11.975050709899989 C15.325000000032070 11.975050709899989 15.325000000032070 17.975050709899989 11.425000000032036 17.975050709899989 z" />
<glyph unicode="," horiz-adv-x="10.30704998385804" d="M2.726687282995444 21.644624746500000 C4.226687282995435 22.444624746500011 5.926687282995424 21.944624746500011 6.826687282995458 20.644624746500000 C9.026687282995447 17.344624746499989 7.126687282995469 13.844624746499989 5.026687282995447 11.144624746500000 C4.026687282995447 9.844624746499989 1.826687282995457 10.144624746500000 0.826687282995457 11.144624746500000 C-0.373312717004531 12.344624746499989 -0.173312717004543 14.044624746500006 0.826687282995457 15.344624746499989 C1.126687282995469 15.744624746499994 1.526687282995446 16.244624746499994 1.726687282995435 16.744624746499994 C1.926687282995423 17.244624746499994 1.926687282995423 17.144624746500000 1.626687282995469 17.544624746500006 C0.826687282995457 18.944624746500011 1.426687282995423 20.844624746499989 2.726687282995435 21.644624746500000 z" />
<glyph unicode="." horiz-adv-x="13.35" d="M7.924999999961869 24.657200811399999 C4.024999999961869 24.657200811400003 4.024999999961869 18.657200811400003 7.924999999961846 18.657200811400003 C11.824999999961880 18.657200811400003 11.824999999961880 24.657200811400003 7.924999999961846 24.657200811400003 z" />
<glyph unicode="?" horiz-adv-x="56" d="M34.701419878300001 37.194726166300001 C33.001419878299998 35.794726166299995 30.901419878299976 35.094726166300006 29.001419878299998 33.994726166299984 C27.901419878299976 33.394726166300018 26.201419878299987 32.694726166300001 25.501419878299998 31.594726166300006 C23.601419878300021 28.394726166299989 28.901419878299976 26.294726166299995 28.701419878299987 29.994726166300012 C28.501419878299998 33.894726166300018 34.501419878299998 33.794726166299995 34.701419878299987 29.994726166300012 C35.401419878299976 18.594726166300006 18.201419878299987 19.894726166299989 18.901419878299976 30.594726166300006 C19.101419878300021 34.994726166299984 22.901419878299976 37.594726166300006 26.501419878299998 39.494726166299984 C29.301419878300010 40.894726166300018 32.801419878300010 41.994726166299984 32.701419878299987 45.794726166299995 C32.601419878300021 51.694726166300001 25.101419878300021 51.394726166300018 24.001419878299998 46.094726166300006 C23.201419878299987 42.294726166299995 17.501419878299998 43.894726166300018 18.201419878299987 47.694726166300001 C20.101419878300021 57.694726166300001 34.101419878300021 59.494726166299984 38.001419878299998 49.794726166299995 C39.801419878300010 45.394726166300018 38.301419878300010 40.294726166299995 34.701419878299987 37.194726166300001 zM26.301419878299999 20.394726166300000 C22.401419878299976 20.394726166299989 22.401419878299976 14.394726166299989 26.301419878300010 14.394726166299989 C30.201419878299987 14.394726166299989 30.201419878299987 20.394726166299989 26.301419878300010 20.394726166299989 z" />
<glyph unicode="A" horiz-adv-x="29.294171785015138" d="M26.590222656506249 24.821344401800001 C27.888135876906240 21.241481098200012 22.625315728206267 18.537276209100014 21.227565325706230 22.122843641499998 C20.023785158406277 25.597165634199996 18.614626498306230 28.983058702600005 17.311009149006232 32.463084824100008 C14.986233318206251 32.095093877700009 12.650049229806262 31.527428567199991 10.313865141306229 30.959763256600013 C9.560830570106253 28.298384115200008 8.713662945706238 25.742546284599996 7.866495321406267 23.186708454000012 C6.657070733606252 19.549774007800011 0.957780238006256 21.478008393599993 2.167204825806271 25.114942839900010 C2.891718752706259 27.277136071200005 3.621936808506240 29.539166484600003 4.246613553406240 31.707063844799990 C3.716040007506257 32.939334802199994 4.012684562106250 34.625158638899990 5.367609216906265 35.549376784000003 C6.867974230406224 40.772297884900013 8.168664879906265 46.006627243499992 9.375222476206266 51.346497913000007 C9.509284431306247 51.939816876199984 9.737479439606266 52.427594528599997 10.054103372306264 52.709993688099985 C10.983995792106276 54.960615843799985 14.341368216206268 55.870588593900010 15.490944232306225 53.200668186200005 C17.413564051806254 48.282992614400001 19.341888000106231 43.465154224599985 21.264507819606258 38.547478652699994 C22.722136647906275 37.763056445800004 23.412455655906236 35.820516956500001 22.833411941806226 34.451317052500002 C24.048600366806234 31.176669423899995 25.269492920606247 28.001858977200015 26.590222656506235 24.821344401799990 zM15.028969503406250 38.102437185500001 C14.504100086406259 39.434545324900000 13.879393487306237 40.772357593200013 13.360228199206238 42.204302914599992 C12.969450591406263 40.624020388800005 12.478835801706230 39.049441991899982 12.088058193906255 37.469159466099995 C13.103542400706266 37.711629723599998 14.013485296606239 37.859966928000006 15.028969503406250 38.102437185500008 z" />
<glyph unicode="B" horiz-adv-x="28.008420291064915" d="M25.508420291047674 29.068762677500001 C25.208420291047648 19.868762677500001 16.408420291047694 18.368762677500001 9.008420291047660 19.068762677499990 C7.208420291047648 17.968762677499996 4.308420291047671 18.768762677500007 4.208420291047648 21.468762677499996 C3.808420291047671 30.768762677500007 3.308420291047671 39.968762677499996 2.508420291047660 49.268762677500007 C2.408420291047694 50.668762677500013 3.208420291047648 51.568762677499990 4.208420291047648 51.968762677499996 C4.408420291047694 52.068762677499990 4.608420291047683 52.168762677500013 4.808420291047671 52.368762677500001 C11.008420291047660 54.968762677499996 19.408420291047694 54.568762677499990 21.608420291047683 46.968762677499996 C22.508420291047660 43.768762677500007 21.808420291047671 41.468762677499996 20.208420291047648 39.568762677499990 C20.308420291047671 39.368762677500001 20.508420291047660 39.268762677500007 20.708420291047648 39.168762677500013 C23.908420291047694 36.968762677499996 25.508420291047660 32.868762677500001 25.508420291047660 29.068762677499990 zM8.708420291047673 47.368762677500001 C8.908420291047694 44.868762677500001 9.108420291047683 42.268762677500007 9.308420291047671 39.768762677500007 C11.308420291047671 40.468762677499996 13.708420291047648 41.068762677499990 15.008420291047660 42.668762677500013 C18.608420291047683 47.268762677500007 11.908420291047694 48.168762677500013 8.708420291047648 47.368762677500001 zM9.808420291047673 33.568762677499997 C9.808420291047671 33.568762677499990 9.708420291047648 33.568762677499990 9.708420291047648 33.568762677499990 C9.808420291047671 30.668762677500013 10.008420291047660 27.768762677500007 10.108420291047683 24.868762677500001 C13.808420291047671 24.468762677499996 18.708420291047648 24.368762677500001 19.408420291047694 28.868762677500001 C20.508420291047660 35.468762677499996 13.808420291047671 35.068762677499990 9.808420291047671 33.568762677499990 z" />
<glyph unicode="C" horiz-adv-x="27.703594245772639" d="M17.328275931833531 47.628600405699999 C13.428275931833509 50.028600405699990 10.228275931833521 45.028600405699990 9.228275931833521 41.828600405700001 C8.528275931833532 39.628600405700013 8.328275931833543 37.228600405700007 8.528275931833532 34.928600405699996 C8.728275931833521 32.228600405700007 9.328275931833543 28.928600405699996 11.428275931833509 27.028600405699990 C14.528275931833532 24.228600405700007 18.528275931833534 26.228600405700007 19.328275931833545 30.128600405700013 C20.128275931833556 33.928600405699996 25.928275931833511 32.328600405700001 25.128275931833556 28.528600405699990 C23.928275931833511 22.928600405699996 19.228275931833522 19.028600405699990 13.428275931833509 19.628600405700013 C7.328275931833543 20.228600405699979 4.128275931833555 25.528600405699990 3.028275931833532 31.028600405699990 C1.828275931833543 37.328600405700001 2.528275931833532 44.428600405699996 6.628275931833555 49.628600405700013 C10.028275931833532 54.028600405699990 15.528275931833532 55.828600405700001 20.428275931833511 52.828600405700001 C23.728275931833522 50.828600405700001 20.728275931833522 45.628600405700013 17.328275931833545 47.628600405700013 z" />
<glyph unicode="D" horiz-adv-x="28.380555082246133" d="M21.317720526143535 25.107690631000001 C17.565300438043554 21.026104728200011 12.725857526843530 20.516406474999997 7.447498248543528 21.034984654799985 C7.048223171143551 21.059055646600001 6.754784611143524 21.176927659800015 6.461346051143554 21.294799673000000 C5.281574063043539 21.666468956300008 4.137908562643535 22.637050855599995 4.134373760543557 24.240168912800016 C3.953168698643541 32.866707310399988 3.771963636843513 41.493245708000018 3.596776322943530 50.219602874900005 C3.608811818843552 50.419240413599994 3.614829566743541 50.519059182900008 3.620847314743518 50.618877952199995 C3.212019687343517 52.146248231800001 3.813415249043548 53.813078570599998 5.827843879343508 53.992179919699993 C15.700349492443539 54.899722160799996 24.933921966743529 48.532529737000004 25.817393216043516 38.260749046599983 C26.227272699943516 33.427323883300005 24.634759049243545 28.614434909700009 21.317720526143550 25.107690630999997 zM19.722430539243533 38.528012902000000 C18.931329222043534 43.684965364999982 14.650105780543530 47.449420949000000 9.577401788743547 48.055782402299997 C9.749054300443508 40.932543292499986 9.926724560143558 33.909122952100006 10.098377071843519 26.785883842299995 C12.999139130243524 26.711187921100020 15.530714851043516 27.159656838399997 17.595768410743521 29.840245168499990 C19.449148935943530 32.333231455900005 20.240629486143522 35.491325586599999 19.722430539243536 38.528012902000000 z" />
<glyph unicode="E" horiz-adv-x="25.392129411839367" d="M7.887917895797205 18.715334061499998 C6.185017996797180 18.703847808799992 5.069820490697177 20.364069035600011 5.047936764797223 21.867239386100010 C4.868757000897185 31.890107968100011 4.684378500497198 41.813111775899984 4.499999999997224 51.736115583599997 C4.504109956897205 53.738609805400017 6.054068936397195 54.659276499599997 7.646706588097183 54.476231940399998 C7.846436136597228 54.465834467299999 8.151229195897210 54.550103031899994 8.450823518697186 54.534506822200001 C12.350748451397189 54.431620870600000 16.161206082997190 54.533663204199996 20.181790736297224 54.825037613099994 C23.997447104397231 55.026944720900019 23.685522910897198 49.035058265200007 19.869866542697203 48.833151157400010 C16.753263594397204 48.594852893699994 13.746922893397207 48.551085441999987 10.645916154797201 48.612381501100003 C10.636607461297226 46.510022504999995 10.732362278597188 44.502329546699997 10.723053585097214 42.399970550700004 C12.531016994997183 42.506122841099995 14.444043915597215 42.706941169299995 16.252007325397194 42.813093459699985 C17.860241186697188 42.929643223299990 19.426885155497196 42.247274792799999 19.837830505297184 40.523579947499996 C20.164507290497177 39.104678161700008 19.156550854397217 37.054306531199984 17.548316993097224 36.937756767600007 C15.335695749697217 36.752534649200015 13.023209731997222 36.572511267200014 10.810588488597213 36.387289148799994 C10.912630822097194 32.576831517199992 10.909609644897225 28.671707847899995 11.011651978397206 24.861250216299993 C13.718398356497184 24.920613877699992 16.435542207797205 25.179707087600008 19.163083532197227 25.638529846099999 C22.999534846597221 26.239896050900001 24.295844514397182 20.364559358900010 20.459393199997187 19.763193153999993 C16.323347562797217 19.177423158900012 12.097834624497191 18.796581448799969 7.887917895797225 18.715334061499988 z" />
<glyph unicode="F" horiz-adv-x="25.887500000000003" d="M12.500000000049496 50.554563894499999 C12.500000000049509 48.254563894499995 12.500000000049509 46.054563894500006 12.500000000049509 43.754563894499995 C14.900000000049486 44.054563894500006 17.200000000049499 44.354563894499989 19.600000000049477 44.454563894499984 C23.500000000049511 44.654563894500001 23.400000000049488 38.654563894500001 19.600000000049477 38.454563894499984 C17.300000000049522 38.354563894499989 15.000000000049509 38.154563894500001 12.700000000049497 37.754563894499995 C12.800000000049520 32.354563894499989 13.100000000049475 27.054563894500006 13.400000000049486 21.754563894499995 C13.600000000049475 17.854563894499989 7.600000000049475 17.954563894500012 7.400000000049486 21.754563894499995 C6.800000000049520 32.154563894500001 6.500000000049509 42.654563894500001 6.500000000049509 53.154563894500001 C6.500000000049509 54.154563894500001 6.900000000049486 54.854563894499989 7.500000000049509 55.354563894499989 C7.900000000049486 55.754563894499995 8.300000000049520 56.054563894500006 8.800000000049520 56.154563894500001 C12.700000000049497 56.654563894500001 16.600000000049477 56.954563894499984 20.500000000049511 56.654563894500001 C24.300000000049522 56.354563894499989 24.400000000049488 50.354563894499989 20.500000000049511 50.654563894500001 C17.800000000049522 50.854563894499989 15.200000000049497 50.854563894499989 12.500000000049509 50.554563894500006 z" />
<glyph unicode="G" horiz-adv-x="29.62462766310902" d="M19.544680669272335 19.441987829599999 C12.944680669272309 16.941987829600009 6.044680669272331 21.541987829600004 3.744680669272320 27.641987829599998 C1.244680669272320 34.241987829599992 2.644680669272354 43.641987829599998 6.744680669272320 49.341987829599987 C10.444680669272309 54.441987829600009 17.144680669272354 55.841987829599987 21.944680669272309 51.641987829599998 C24.944680669272309 49.241987829599992 20.644680669272354 44.941987829600009 17.744680669272320 47.441987829600009 C13.444680669272309 51.141987829599998 10.244680669272320 43.841987829599987 9.444680669272309 40.941987829600009 C8.544680669272331 37.441987829600009 7.944680669272309 33.441987829600009 9.244680669272320 30.041987829600004 C11.044680669272331 25.341987829599987 16.544680669272331 22.541987829600004 19.944680669272309 27.441987829600009 C21.544680669272331 29.641987829599998 21.444680669272309 32.941987829600009 21.144680669272354 35.841987829599987 C19.244680669272320 35.641987829599998 17.444680669272309 35.441987829600009 15.544680669272331 35.241987829599992 C11.744680669272320 34.841987829599987 11.744680669272320 40.841987829599987 15.544680669272331 41.241987829599992 C18.344680669272343 41.541987829600004 21.044680669272331 41.841987829599987 23.744680669272320 42.141987829599998 C25.544680669272331 42.341987829599987 26.544680669272331 40.641987829599998 26.744680669272320 39.141987829599998 C27.644680669272354 32.141987829599998 27.544680669272331 22.441987829600009 19.544680669272331 19.441987829600009 z" />
<glyph unicode="H" horiz-adv-x="27.277991528020831" d="M23.230769096785739 21.948124459329819 C22.932116314385766 18.089389939429822 16.987672307585726 18.244012476029809 17.286325089985766 22.102746995929806 C17.605594210585750 26.754074050029828 17.636599646120814 30.935678927499993 17.856794699920826 35.589583023899991 C14.775190460620806 35.273175067300002 11.795237330420818 35.053264135299997 8.718787175720806 34.935004312399997 C8.999116540320856 30.466363138199995 9.090256286655901 26.085260473264896 9.568733784755906 21.611465214464914 C9.966176512155911 17.833765465464921 4.021732505355928 17.988388002164925 3.624289778055910 21.766087751164918 C2.604339306755932 32.103292245864907 2.365445812220841 42.051809334735083 2.536961184520848 52.457163388935101 C2.637465833420819 56.321051993335089 8.581909840220803 56.166429456635086 8.481405191320832 52.302540852235097 C8.380900542520848 48.438652247835080 8.478544027220821 44.756222134899986 8.576187512020837 40.887179446000005 C11.751711733520821 41.002862226700017 14.929812997320809 41.217619074100014 18.110491303320813 41.531449988399999 C18.216150036720805 45.593486726300000 18.324385812420857 48.821534650775448 18.333547521220837 52.985222497775453 C18.334978103320836 56.851688144475446 24.279422110120819 56.697065607775443 24.277991528020820 52.830599961075450 C24.195242053320825 42.026372597575460 24.004459996685725 32.635238460129813 23.230769096785750 21.948124459329819 z" />
<glyph unicode="I" horiz-adv-x="13.310358007101343" d="M9.010358007101342 51.108611622808212 C9.810358007101350 39.808611622808201 10.210358007101327 32.779520438073405 10.310358007101350 21.479520438073394 C10.310358007101350 17.579520438073416 4.310358007101350 17.579520438073416 4.310358007101350 21.479520438073394 C4.227467151644142 30.846187104740068 3.938449478633977 35.941944956141555 3.386351560605426 45.308611622808201 C3.272395406706273 47.241944956141538 3.147231163443514 49.175278289474875 3.010358007101338 51.108611622808212 C2.710358007101327 55.008611622808218 8.810358007101350 54.908611622808223 9.010358007101338 51.108611622808212 z" />
<glyph unicode="J" horiz-adv-x="29.345383466977697" d="M24.672800000007300 50.021501014199998 C23.472800000007300 49.821501014200010 22.272800000007312 49.621501014199993 21.072800000007323 49.721501014199987 C21.372800000007278 43.721501014199987 21.772800000007312 37.621501014199993 21.872800000007278 31.621501014199993 C21.872800000007278 27.421501014200004 21.272800000007312 23.021501014199998 18.072800000007323 20.021501014199998 C10.772800000007312 13.121501014199993 4.072800000007323 22.721501014199987 3.972800000007300 29.821501014200010 C3.972800000007300 33.721501014199987 9.972800000007300 33.721501014199987 9.972800000007300 29.821501014200010 C9.972800000007300 27.021501014199998 12.272800000007312 21.021501014199998 14.972800000007300 25.621501014199993 C16.372800000007278 28.021501014199998 15.872800000007278 31.321501014200010 15.772800000007312 34.021501014199998 C15.572800000007323 38.821501014200010 15.372800000007278 43.721501014199987 15.172800000007289 48.621501014199993 C12.172800000007289 48.221501014199987 9.272800000007312 47.721501014199987 6.272800000007312 47.321501014200010 C2.472800000007300 46.721501014199987 0.872800000007278 52.521501014199998 4.672800000007289 53.121501014199993 C10.772800000007312 54.021501014199998 16.872800000007278 54.921501014200004 23.072800000007323 55.821501014200010 C26.872800000007278 56.321501014200010 28.472800000007300 50.521501014199998 24.672800000007289 50.021501014199998 z" />
<glyph unicode="K" horiz-adv-x="27.541864741251075" d="M19.310471085804611 19.734888438100000 C16.310471085804636 24.134888438100006 13.010471085804625 28.334888438099995 9.610471085804591 32.434888438100018 C9.710471085804613 28.434888438099989 9.810471085804636 24.334888438099995 9.910471085804602 20.334888438099995 C10.010471085804625 16.434888438099989 4.010471085804625 16.434888438099989 3.910471085804602 20.334888438099995 C3.910471085804602 26.934888438099989 3.610471085804591 33.534888438099983 3.310471085804636 40.134888438100006 C3.210471085804613 40.434888438100018 3.210471085804613 40.834888438099995 3.210471085804613 41.134888438100006 C3.010471085804625 44.934888438100018 2.810471085804636 48.834888438099995 2.510471085804625 52.734888438100000 C2.210471085804613 56.634888438100006 8.210471085804613 56.534888438099983 8.510471085804625 52.734888438100000 C8.810471085804636 49.134888438100006 9.010471085804625 45.534888438099983 9.210471085804613 41.934888438100018 C9.310471085804636 41.834888438099995 9.510471085804625 41.634888438100006 9.610471085804591 41.434888438100018 C12.710471085804613 45.134888438100006 15.510471085804625 49.034888438099983 18.210471085804613 53.034888438099983 C20.310471085804636 56.234888438100000 25.510471085804625 53.234888438100000 23.410471085804602 50.034888438099983 C20.410471085804602 45.434888438100018 17.110471085804591 41.134888438100006 13.610471085804591 36.934888438100018 C17.510471085804625 32.334888438099995 21.110471085804591 27.634888438100006 24.510471085804625 22.734888438100000 C26.710471085804613 19.534888438100012 21.510471085804625 16.534888438100012 19.310471085804636 19.734888438100000 z" />
<glyph unicode="L" horiz-adv-x="23.455817493262217" d="M19.124838199324600 21.148286439700001 C14.974739562424599 20.382335198100009 10.818971646824604 19.516544789499989 6.569033842924579 18.756262826700009 C4.543904108024616 18.370452566599994 2.926008170724582 19.864578644200009 2.939554578824595 21.867031264100007 C2.824616121324606 32.190150422100004 2.615507775524588 42.618778026000001 2.500569318024599 52.941897183999998 C2.422153688324624 56.852632535400005 8.406834432924608 56.412636642999985 8.490919341324581 52.601740458600005 C8.673889143924622 43.476691305299994 8.762689058224577 34.457150597700007 8.845819693724604 25.337770723099993 C11.886348935424575 25.966405696799995 14.821369731324591 26.500870782300012 17.861898973024619 27.129505756100002 C21.706810830024619 27.812625666799988 22.975419335024593 21.931245517500003 19.124838199324596 21.148286439700001 z" />
<glyph unicode="M" horiz-adv-x="36.73070441698912" d="M28.201175513925719 22.761663286000001 C27.401175513925718 29.661663285999992 26.301175513925696 36.461663286000004 25.001175513925741 43.161663285999992 C23.101175513925707 39.261663285999987 21.101175513925707 35.261663285999987 19.201175513925730 31.361663286000010 C17.901175513925718 28.761663285999987 14.601175513925707 29.961663286000004 13.701175513925730 32.061663285999998 C12.301175513925696 35.461663286000004 10.701175513925730 38.761663285999987 8.901175513925718 41.961663286000004 C8.801175513925696 35.561663285999998 8.601175513925707 29.161663285999992 8.501175513925741 22.761663285999987 C8.401175513925718 18.861663286000010 2.401175513925718 18.861663286000010 2.501175513925741 22.761663285999987 C2.701175513925730 32.461663286000004 2.901175513925718 42.161663285999992 3.101175513925707 51.861663286000010 C3.201175513925730 55.061663285999998 7.101175513925707 55.761663285999987 8.701175513925730 53.461663286000004 C11.801175513925696 49.161663285999992 14.401175513925718 44.661663285999992 16.701175513925730 39.961663286000004 C19.001175513925741 44.561663285999998 21.301175513925696 49.261663285999987 23.601175513925707 53.861663286000010 C24.801175513925696 56.161663285999992 28.501175513925741 55.561663285999998 29.101175513925707 53.161663285999992 C31.301175513925696 43.161663285999992 33.001175513925745 33.061663285999998 34.201175513925733 22.861663286000010 C34.701175513925733 18.961663286000004 28.701175513925730 19.061663285999998 28.201175513925730 22.761663285999987 z" />
<glyph unicode="N" horiz-adv-x="29.432616059166751" d="M26.281354781585399 48.242526899799998 C26.171332073885392 52.052762457299991 20.183795036885410 52.452012041700016 20.288828175585390 48.541901040799985 C20.433861929485399 43.428295149599990 20.573906114385377 38.214813815000014 20.713950299285411 33.001332480400009 C16.309199460785432 39.028617943299992 12.004324065785422 45.050913837200000 7.699448670785412 51.073209730999992 C6.201232956185404 53.150551704000009 2.426008444885408 51.737158662599995 2.501020106385422 49.230293438800004 C2.761066136985416 40.406327433499996 3.026101736585385 31.682236871700013 3.286147767285424 22.858270866400005 C3.396170474985379 19.048035308900012 9.383707511885373 18.648785724499987 9.278674373285380 22.558896725500006 C9.158588464385414 28.171879833800006 8.938627112185397 33.789852511199996 8.818541203285374 39.402835619499996 C13.123416598285385 33.380539725599988 17.428291993385383 27.358243831700008 21.733167388385393 21.335947937800000 C23.231383102985401 19.258605964899999 27.006607614285397 20.671999006299984 26.931595952785383 23.178864230100004 C26.651591646085389 31.603328461699988 26.466473213885390 39.922927680700013 26.281354781585403 48.242526899799998 z" />
<glyph unicode="O" horiz-adv-x="30.995205868159253" d="M28.495205868131464 36.735699797199999 C28.495205868131464 29.635699797200004 23.995205868131464 22.135699797200004 16.595205868131487 20.835699797199993 C-2.004794131868536 17.435699797199987 -2.704794131868525 49.435699797200016 13.795205868131475 52.735699797199999 C14.495205868131464 52.835699797199993 15.195205868131453 52.735699797199999 15.695205868131453 52.535699797200010 C23.595205868131487 52.835699797199993 28.395205868131441 43.735699797199999 28.495205868131464 36.735699797199999 zM15.395205868131466 46.635699797199997 C14.995205868131464 46.635699797200004 14.695205868131453 46.635699797200004 14.395205868131441 46.735699797199999 C5.395205868131441 43.535699797199982 5.495205868131464 23.935699797199987 16.295205868131475 26.835699797199993 C24.395205868131441 29.035699797200010 24.695205868131453 47.135699797199976 15.395205868131441 46.635699797200004 z" />
<glyph unicode="P" horiz-adv-x="25.997140457210637" d="M10.011451851815343 31.021501014199998 C10.311451851815349 27.121501014199993 10.611451851815360 23.121501014199993 10.911451851815315 19.121501014199993 C11.211451851815326 15.221501014199987 5.411451851815315 15.421501014200004 4.911451851815372 19.121501014199993 C4.911451851815372 19.321501014200010 4.811451851815349 19.621501014199993 4.811451851815349 19.921501014200004 C4.811451851815349 20.121501014199993 4.811451851815349 20.421501014200004 4.811451851815349 20.621501014199993 C4.011451851815337 31.121501014199993 3.311451851815349 41.621501014199993 2.511451851815337 52.121501014199993 C2.311451851815349 54.621501014199993 4.711451851815326 55.521501014199998 6.511451851815337 54.821501014200010 C14.111451851815360 57.521501014199998 22.411451851815372 54.821501014200010 23.411451851815372 45.521501014199998 C24.311451851815349 37.221501014199987 18.011451851815337 30.821501014199953 10.011451851815337 31.021501014199998 zM9.611451851815342 37.021501014199998 C9.811451851815349 37.021501014199998 10.011451851815337 37.021501014199998 10.211451851815326 37.021501014199998 C19.811451851815349 35.721501014199987 19.911451851815315 53.721501014199987 8.711451851815326 49.321501014200010 C9.011451851815337 45.221501014199987 9.311451851815349 41.121501014199993 9.611451851815360 37.021501014199998 z" />
<glyph unicode="Q" horiz-adv-x="37.738181229782185" d="M20.202941967832086 17.081338742400000 C-0.497058032167899 13.181338742400015 -3.497058032167928 49.981338742399998 13.602941967832066 55.881338742400004 C14.002941967832101 56.281338742400010 14.602941967832066 56.481338742399998 15.402941967832078 56.381338742400004 C20.202941967832089 55.981338742399998 25.302941967832112 55.181338742399987 28.802941967832112 51.481338742399998 C32.002941967832101 48.181338742399987 33.302941967832112 43.581338742399993 33.702941967832089 39.181338742399987 C34.602941967832066 29.881338742400004 30.402941967832078 18.981338742399998 20.202941967832089 17.081338742399993 zM27.802941967832083 38.381338742399997 C27.602941967832066 41.481338742399998 26.702941967832089 44.981338742399998 24.602941967832066 47.281338742400010 C22.402941967832078 49.581338742399993 18.802941967832112 49.981338742399998 15.802941967832112 50.281338742400010 C4.502941967832101 46.881338742400004 6.402941967832078 18.781338742400010 20.302941967832112 23.281338742400010 C26.502941967832101 25.381338742400004 28.202941967832089 32.581338742399993 27.802941967832112 38.381338742400004 zM20.819371988132087 36.279918864099997 C22.119371988132059 32.579918864099994 25.119371988132059 29.379918864100006 27.419371988132070 26.279918864100011 C29.519371988132093 23.279918864100011 31.419371988132070 19.879918864100006 34.219371988132082 17.579918864099994 C37.219371988132082 15.179918864099989 32.919371988132070 10.879918864100006 30.019371988132093 13.379918864100006 C26.819371988132104 15.979918864100000 24.619371988132059 19.979918864100000 22.219371988132082 23.279918864100011 C19.619371988132059 26.879918864100006 16.619371988132059 30.379918864100006 15.019371988132093 34.679918864099989 C13.719371988132082 38.279918864100011 19.519371988132093 39.879918864100006 20.819371988132104 36.279918864100011 z" />
<glyph unicode="R" horiz-adv-x="31.205635620231931" d="M23.578991894795220 18.767139959400001 C20.675428966395216 24.480602495900001 16.647906194795226 29.444758470199986 13.557016625895201 35.064557686400008 C12.152066821895247 34.783567725599994 10.747117017795190 34.689904405300013 9.529493854295211 34.783567725599994 C9.997810455695245 29.725748431000000 10.466127056995234 24.574265816200011 11.121770298895242 19.516446521599988 C11.590086900195232 15.957240351299987 5.970287684095197 15.957240351299987 5.501971082695221 19.516446521599988 C4.190684598895203 30.100401712099995 3.254051396195237 40.871683543100005 2.504744834095234 51.549302053899993 C2.411081513795196 53.235241818699990 3.628704677295232 54.171875021400012 4.939991161095193 54.265538341699994 C11.683750220495213 59.136030995699997 22.923348652895200 56.888111309300001 25.358594979895216 48.177422524199983 C26.857208104195209 42.744949948499993 23.485328574495227 38.904753817499994 18.989489201595191 36.750497451200005 C21.893052129895196 31.599014836399988 25.639584940695229 26.915848822899989 28.355821228495202 21.577039567500009 C30.041760993395215 18.392486678399990 25.171268339395240 15.488923749999998 23.578991894795209 18.767139959399998 zM19.832459083995218 46.759933614399998 C18.521172600195214 52.098742869700004 11.964740181295227 52.098742869700004 8.218207370495193 49.850823183300008 C8.499197331295207 46.759933614399984 8.686523971895227 43.669044045500016 8.967513932695240 40.578154476599991 C12.901373383995193 40.390827836000000 21.050082247495212 41.608450999500008 19.832459083995232 46.759933614399984 z" />
<glyph unicode="S" horiz-adv-x="27.360915042277828" d="M24.698645460257882 30.695537525399999 C23.898645460257860 25.395537525400016 19.398645460257860 19.995537525400010 14.298645460257895 18.495537525400010 C9.098645460257906 16.895537525400016 3.698645460257872 19.695537525399999 2.398645460257860 24.995537525400010 C1.498645460257883 28.795537525399993 7.198645460257872 30.295537525399993 8.198645460257872 26.595537525400005 C9.898645460257860 19.895537525400016 17.798645460257895 27.395537525400016 18.598645460257906 30.395537525400016 C19.298645460257895 32.995537525400010 17.298645460257895 35.395537525400016 14.798645460257895 35.495537525400010 C13.298645460257895 35.595537525400005 11.498645460257883 34.795537525399993 9.998645460257883 34.395537525400016 C6.298645460257895 33.395537525400016 2.898645460257860 33.895537525400016 1.298645460257895 37.895537525400016 C-2.801354539742128 48.095537525400005 9.798645460257895 55.495537525400010 18.298645460257895 52.895537525400016 C21.998645460257883 51.795537525399993 20.398645460257860 45.995537525400010 16.698645460257872 47.095537525400005 C13.698645460257872 47.995537525400010 10.698645460257872 47.795537525399993 8.498645460257883 45.395537525400016 C6.998645460257883 43.695537525399999 5.498645460257883 40.895537525400016 8.398645460257860 40.195537525399999 C9.498645460257883 39.995537525400010 12.098645460257906 41.195537525399999 13.398645460257860 41.395537525400016 C14.698645460257872 41.595537525400005 15.998645460257883 41.695537525399999 17.398645460257860 41.495537525400010 C22.698645460257872 40.795537525399993 25.598645460257906 35.695537525399999 24.698645460257872 30.695537525399999 z" />
<glyph unicode="T" horiz-adv-x="30.432982519608636" d="M25.624908131182785 48.217341601477422 C23.515443034446875 48.204811411814774 21.397088508024453 48.092677115611423 19.278733981601917 47.980542819407731 C19.864253371692413 38.792117108556710 20.051356335618138 29.825861692517094 19.541230553756790 20.735219708219176 C19.294146902518762 16.841770123430507 13.326789939740863 17.474740011170070 13.564984161292259 21.268585489417660 C13.957726977239233 30.168908690320080 13.943163937335825 38.818572927363107 13.231372151644322 47.717075748277551 C10.805315875911887 47.532005634592679 8.388149029865687 47.446539627449397 5.970982183819885 47.361073620305632 C2.141578986825763 47.200851415692682 1.054610774307591 53.020516363520017 4.892903400988402 53.280342674674017 C8.016188422508364 53.403186780552346 11.039869337487104 53.534920316117791 14.163154359007066 53.657764421996148 C15.239200291597669 54.465307083999392 16.751040749087153 54.531173851781517 17.793349342919143 53.835765485981995 C20.011307975882730 53.939010352499054 22.229266608846316 54.042255219015971 24.447225241809960 54.145500085533058 C28.276628438804082 54.305722290145951 29.354707221635849 48.386453235776969 25.624908131182778 48.217341601477415 z" />
<glyph unicode="U" horiz-adv-x="26.399424646740087" d="M10.056814241528471 50.715212981759642 C9.456814241528491 46.115212981759640 8.956814241528491 41.515212981759646 8.656814241528480 36.815212981759629 C8.456814241528491 32.915212981759623 9.356814241528468 23.168762677500013 15.556814241528457 28.368762677500001 C20.656814241528480 32.668762677500013 17.643426817593365 45.648275862084176 16.943426817593377 51.348275862084193 C16.543426817593399 55.148275862084176 22.543426817593399 55.148275862084176 22.943426817593377 51.348275862084193 C24.043426817593399 42.248275862084199 27.256814241528446 21.268762677500007 12.756814241528446 20.868762677500001 C-1.843185758471520 20.468762677499996 3.056814241528457 44.115212981759640 4.256814241528446 52.315212981759629 C4.856814241528468 56.115212981759640 10.656814241528480 54.515212981759646 10.056814241528457 50.715212981759635 z" />
<glyph unicode="V" horiz-adv-x="26.545633084786125" d="M24.015222243141491 49.595537525399997 C22.615222243141503 39.595537525400005 20.215222243141469 29.895537525400016 16.715222243141469 20.395537525400016 C15.715222243141469 17.695537525399999 11.815222243141491 17.395537525400016 10.915222243141514 20.395537525400016 C8.015222243141480 29.895537525400016 5.315222243141491 39.395537525400016 2.615222243141503 48.895537525400016 C1.615222243141503 52.595537525400005 7.415222243141514 54.195537525399999 8.415222243141514 50.495537525400010 C10.215222243141469 44.095537525400005 12.015222243141480 37.695537525399999 13.915222243141514 31.295537525399993 C15.815222243141491 37.795537525399993 17.315222243141491 44.395537525400016 18.215222243141469 51.195537525399999 C18.715222243141469 54.995537525400010 24.515222243141480 53.395537525400016 24.015222243141480 49.595537525400005 z" />
<glyph unicode="W" horiz-adv-x="38.286552900419835" d="M35.743295865831804 49.695537525399999 C34.543295865831794 40.195537525399999 32.743295865831783 30.895537525400016 30.343295865831802 21.695537525399999 C29.643295865831814 19.195537525399999 26.143295865831814 18.795537525399993 24.843295865831802 20.995537525400010 C22.843295865831802 24.295537525399993 21.043295865831791 27.795537525399993 19.343295865831802 31.295537525399993 C17.343295865831802 27.095537525400005 15.043295865831791 23.195537525399999 11.843295865831802 19.695537525399999 C10.443295865831825 18.095537525400005 7.243295865831779 18.795537525399993 6.843295865831802 20.995537525400010 C5.443295865831825 29.895537525400016 3.943295865831825 38.695537525399999 2.543295865831791 47.495537525400010 C1.943295865831825 51.295537525399993 7.743295865831779 52.895537525400016 8.343295865831802 49.095537525400005 C9.443295865831825 42.495537525400010 10.543295865831791 35.895537525400016 11.643295865831814 29.295537525399993 C13.643295865831814 32.695537525399999 15.243295865831779 36.395537525400016 16.843295865831802 40.095537525400005 C18.043295865831791 42.795537525399993 21.543295865831791 41.395537525400016 22.343295865831802 39.395537525400016 C23.543295865831791 36.395537525400016 24.943295865831825 33.495537525400010 26.343295865831802 30.595537525400005 C27.843295865831802 37.395537525400016 29.143295865831814 44.295537525399993 30.043295865831791 51.195537525399999 C30.543295865831791 54.995537525400010 36.343295865831806 53.395537525400016 35.743295865831783 49.695537525399999 z" />
<glyph unicode="X" horiz-adv-x="29.000714108818698" d="M20.810852162880302 22.195537525399999 C18.710852162880322 25.395537525400016 16.710852162880322 28.695537525399999 14.710852162880322 31.995537525400010 C12.310852162880288 28.595537525400005 10.110852162880299 25.095537525400005 8.110852162880299 21.495537525400010 C6.210852162880322 18.095537525400005 1.010852162880276 21.095537525400005 2.910852162880310 24.495537525400010 C5.410852162880310 29.095537525400005 8.310852162880288 33.395537525400016 11.310852162880288 37.695537525399999 C9.210852162880322 41.395537525400016 7.210852162880322 45.095537525400005 5.310852162880288 48.895537525400016 C3.610852162880299 52.295537525399993 8.810852162880288 55.395537525400016 10.510852162880276 51.895537525400016 C12.010852162880276 48.895537525400016 13.610852162880299 45.895537525400016 15.310852162880288 42.995537525400010 C17.010852162880276 45.295537525399993 18.710852162880322 47.595537525400005 20.410852162880310 49.895537525400016 C22.710852162880322 52.995537525400010 27.910852162880310 49.995537525400010 25.610852162880299 46.895537525400016 C23.210852162880322 43.695537525399999 20.810852162880288 40.495537525400010 18.510852162880276 37.295537525399993 C20.910852162880310 33.195537525399999 23.410852162880310 29.195537525399999 26.010852162880276 25.195537525399999 C28.110852162880299 21.995537525400010 22.910852162880310 18.995537525400010 20.810852162880288 22.195537525399999 z" />
<glyph unicode="Y" horiz-adv-x="29.77482561081392" d="M27.472747200760111 47.962474645000000 C23.172747200760114 38.862474644999992 18.872747200760102 29.662474645000003 14.572747200760091 20.562474645000009 C12.872747200760102 17.062474645000009 7.772747200760136 20.062474645000009 9.372747200760102 23.562474645000009 C10.472747200760125 25.862474644999992 11.572747200760091 28.262474644999998 12.672747200760114 30.562474645000009 C12.472747200760125 30.662474645000003 12.272747200760136 30.862474644999992 12.172747200760114 31.062474645000009 C8.472747200760125 36.162474645000003 5.272747200760136 41.662474645000003 2.772747200760136 47.462474644999986 C1.272747200760136 50.962474644999986 6.372747200760102 54.062474645000009 7.972747200760125 50.462474644999986 C10.072747200760091 45.662474645000003 12.572747200760091 41.062474645000009 15.572747200760091 36.662474645000003 C17.772747200760136 41.462474644999986 20.072747200760091 46.162474645000003 22.272747200760136 50.962474644999986 C23.872747200760102 54.362474644999992 29.072747200760091 51.362474644999992 27.472747200760125 47.962474644999986 z" />
<glyph unicode="Z" horiz-adv-x="27.37632587986905" d="M22.781737156118080 22.995537525400000 C17.081737156118059 21.595537525400005 11.381737156118071 21.195537525399999 5.581737156118059 21.695537525399999 C3.881737156118071 21.895537525400016 1.881737156118071 23.495537525400010 2.681737156118082 25.495537525400010 C4.381737156118071 29.795537525399993 6.481737156118093 33.795537525399993 8.881737156118071 37.695537525399999 C10.281737156118105 39.895537525400016 11.681737156118082 42.095537525400005 12.981737156118093 44.295537525399993 C13.181737156118082 44.595537525400005 13.981737156118093 46.095537525400005 14.781737156118105 47.295537525399993 C11.881737156118071 47.095537525400005 8.881737156118071 46.695537525399999 6.281737156118105 46.495537525400010 C2.381737156118071 46.295537525399993 2.481737156118093 52.295537525399993 6.281737156118105 52.495537525400010 C10.281737156118105 52.695537525399999 23.981737156118093 56.095537525400005 21.681737156118082 48.095537525400005 C20.681737156118082 44.195537525399999 17.481737156118093 40.295537525399993 15.381737156118071 36.895537525400016 C13.481737156118093 33.795537525399993 11.581737156118059 30.795537525399993 9.981737156118093 27.595537525400005 C13.681737156118082 27.495537525399982 17.381737156118071 27.895537525400016 21.081737156118059 28.795537525399993 C24.881737156118071 29.695537525399999 26.481737156118093 23.895537525400016 22.781737156118105 22.995537525400010 z" />
<glyph unicode="a" horiz-adv-x="56" d="" />
<glyph unicode="b" horiz-adv-x="56" d="" />
</font>
</defs>
</svg>
