<?xml version="1.0" standalone="no"?>
<!DOCTYPE svg PUBLIC "-//W3C//DTD SVG 1.1//EN" "http://www.w3.org/Graphics/SVG/1.1/DTD/svg11.dtd" >
<svg>
<defs>
<font id="Lettuce-Party-Regular" horiz-adv-x="22" >
<font-face units-per-em="100" ascent="80" descent="-20" />
<font-src>
	<font-face-name="XmlParser.encode (Lettuce Party Regular)">
</font-src>
<glyph unicode=" " horiz-adv-x="22" d="" />
<glyph unicode="!" horiz-adv-x="20.035471085781488" d="M17.525000000032051 52.175050709899999 C16.625000000032081 42.475050709900017 15.825000000032070 32.775050709900000 15.125000000032024 22.975050709899989 C14.825000000032070 19.175050709900006 8.825000000032070 19.175050709900006 9.125000000032024 22.975050709899989 C9.925000000032036 32.675050709900006 10.725000000032047 42.475050709900017 11.525000000032058 52.175050709900006 C11.825000000032070 55.975050709900017 17.825000000032070 56.075050709899983 17.525000000032058 52.175050709900006 zM11.425000000032050 17.975050709900000 C7.525000000032058 17.975050709899989 7.525000000032058 11.975050709899989 11.425000000032036 11.975050709899989 C15.325000000032070 11.975050709899989 15.325000000032070 17.975050709899989 11.425000000032036 17.975050709899989 z" />
<glyph unicode="'" horiz-adv-x="13.841265674250021" d="M8.610996045748296 57.645841785000002 C7.410996045748277 56.445841784999999 5.710996045748345 56.645841785000016 4.410996045748277 57.645841785000016 C2.410996045748277 59.245841785000010 3.310996045748254 62.245841785000010 5.310996045748254 63.345841785000005 C7.110996045748323 64.345841785000005 9.310996045748254 63.745841785000010 10.610996045748323 62.245841785000010 C13.510996045748300 59.045841784999993 10.710996045748345 53.845841785000005 8.110996045748323 51.345841785000005 C5.410996045748277 48.545841784999993 1.110996045748323 52.845841785000005 3.910996045748277 55.545841784999993 C4.510996045748300 56.145841785000016 5.110996045748323 56.845841785000005 5.410996045748277 57.645841785000016 C5.510996045748300 57.845841785000005 5.810996045748254 58.845841785000005 5.810996045748254 58.845841785000005 C5.810996045748254 58.945841784999999 5.810996045748254 58.945841784999999 5.810996045748254 58.945841784999999 C6.210996045748345 57.845841785000005 7.110996045748323 57.645841785000016 8.510996045748300 58.345841785000005 C8.710996045748345 58.745841785000010 9.010996045748300 59.245841785000010 9.210996045748345 59.745841785000010 C9.210996045748345 59.645841785000016 9.110996045748323 59.545841784999993 9.110996045748323 59.445841784999999 C9.110996045748323 59.945841784999999 9.110996045748323 60.545841784999993 9.110996045748323 61.045841784999993 C9.110996045748323 60.945841784999999 9.210996045748345 60.845841785000005 9.210996045748345 60.745841785000010 C9.010996045748300 61.145841785000016 8.710996045748345 61.645841785000016 8.510996045748300 62.045841784999993 C8.510996045748300 61.945841784999999 8.610996045748323 61.945841784999999 8.710996045748345 61.845841785000005 C10.010996045748300 60.845841785000005 9.710996045748345 58.645841785000016 8.610996045748323 57.645841785000016 z" />
<glyph unicode="," horiz-adv-x="10.30704998385804" d="M2.726687282995444 21.644624746500000 C4.226687282995435 22.444624746500011 5.926687282995424 21.944624746500011 6.826687282995401 20.644624746500000 C9.026687282995447 17.344624746499989 7.126687282995469 13.844624746499989 5.026687282995447 11.144624746500000 C4.026687282995447 9.844624746499989 1.826687282995457 10.144624746500000 0.826687282995457 11.144624746500000 C-0.373312717004531 12.344624746499989 -0.173312717004543 14.044624746500006 0.826687282995457 15.344624746499989 C1.126687282995469 15.744624746499994 1.526687282995446 16.244624746499994 1.726687282995435 16.744624746499994 C1.926687282995423 17.244624746499994 1.926687282995423 17.144624746500000 1.626687282995469 17.544624746500006 C0.826687282995457 18.944624746500011 1.426687282995423 20.844624746499989 2.726687282995435 21.644624746500000 z" />
<glyph unicode="." horiz-adv-x="13.35" d="M7.924999999961869 24.657200811399999 C4.024999999961869 24.657200811400003 4.024999999961869 18.657200811400003 7.924999999961846 18.657200811400003 C11.824999999961880 18.657200811400003 11.824999999961880 24.657200811400003 7.924999999961846 24.657200811400003 z" />
<glyph unicode="?" horiz-adv-x="23.122000558476294" d="M16.559290497252860 37.194726166300001 C14.859290497252859 35.794726166299995 12.759290497252836 35.094726166300006 10.859290497252859 33.994726166299984 C9.759290497252836 33.394726166300018 8.059290497252848 32.694726166300001 7.359290497252859 31.594726166300006 C5.459290497252882 28.394726166299989 10.759290497252836 26.294726166299995 10.559290497252848 29.994726166300012 C10.359290497252859 33.894726166300018 16.359290497252857 33.794726166299995 16.559290497252846 29.994726166300012 C17.259290497252834 18.594726166300006 0.059290497252848 19.894726166299989 0.759290497252836 30.594726166300006 C0.959290497252882 34.994726166299984 4.759290497252836 37.594726166300006 8.359290497252859 39.494726166299984 C11.159290497252870 40.894726166300018 14.659290497252870 41.994726166299984 14.559290497252848 45.794726166299995 C14.459290497252882 51.694726166300001 6.959290497252882 51.394726166300018 5.859290497252859 46.094726166300006 C5.059290497252848 42.294726166299995 -0.640709502747141 43.894726166300018 0.059290497252848 47.694726166300001 C1.959290497252882 57.694726166300001 15.959290497252882 59.494726166299984 19.859290497252857 49.794726166299995 C21.659290497252812 45.394726166300018 20.159290497252812 40.294726166299995 16.559290497252846 37.194726166300001 zM8.159290497252861 20.394726166300000 C4.259290497252836 20.394726166299989 4.259290497252836 14.394726166299989 8.159290497252870 14.394726166299989 C12.059290497252848 14.394726166299989 12.059290497252848 20.394726166299989 8.159290497252870 20.394726166299989 z" />
<glyph unicode="A" horiz-adv-x="27.794171785047816" d="M25.590222656506249 24.448119249700000 C26.888135876906240 20.868255946099993 21.625315728206211 18.164051056999995 20.227565325706230 21.749618489400007 C19.023785158406277 25.223940482100005 17.614626498306230 28.609833550500014 16.311009149006232 32.089859671999989 C13.986233318206251 31.721868725599990 11.650049229806262 31.154203415100000 9.313865141306229 30.586538104499994 C8.560830570106253 27.925158963099989 7.340437793606275 24.063033099999984 6.493270169306248 21.507195269400000 C5.283845581506233 17.870260823199999 -0.415444914093763 19.798495209000009 0.793979673706252 23.435429655299998 C1.518493600606240 25.597622886599993 2.621936808506240 29.165941332500012 3.246613553406240 31.333838692699999 C2.716040007506257 32.566109650100003 3.012684562106250 34.251933486799999 4.367609216906265 35.176151631899984 C5.867974230406224 40.399072732799993 7.168664879906265 45.633402091400001 8.375222476206266 50.973272760899988 C8.509284431306247 51.566591724099993 8.737479439606266 52.054369376500006 9.054103372306264 52.336768535999994 C9.983995792106276 54.587390691699994 13.341368216206268 55.497363441799990 14.490944232306225 52.827443034099986 C16.413564051806254 47.909767462300010 18.341888000106231 43.091929072499994 20.264507819606258 38.174253500600003 C21.722136647906218 37.389831293700013 22.412455655906292 35.447291804400010 21.833411941806226 34.078091900400011 C23.048600366806291 30.803444271800004 24.269492920606304 27.628633825099996 25.590222656506235 24.448119249700000 zM14.028969503406250 37.729212033400003 C13.504100086406259 39.061320172800009 12.879393487306237 40.399132441099994 12.360228199206238 41.831077762500001 C11.969450591406263 40.250795236700014 11.478835801706230 38.676216839799991 11.088058193906255 37.095934314000004 C12.103542400706266 37.338404571500007 13.013485296606239 37.486741775899986 14.028969503406250 37.729212033400017 z" />
<glyph unicode="B" horiz-adv-x="28.008420291064915" d="M25.508420291047674 29.068762677500001 C25.208420291047648 19.868762677500001 16.408420291047694 18.368762677500001 9.008420291047660 19.068762677499990 C7.208420291047648 17.968762677499996 4.308420291047671 18.768762677500007 4.208420291047648 21.468762677499996 C3.808420291047671 30.768762677500007 3.308420291047671 39.968762677499996 2.508420291047660 49.268762677500007 C2.408420291047694 50.668762677500013 3.208420291047648 51.568762677499990 4.208420291047648 51.968762677499996 C4.408420291047694 52.068762677499990 4.608420291047683 52.168762677500013 4.808420291047671 52.368762677500001 C11.008420291047660 54.968762677499996 19.408420291047694 54.568762677499990 21.608420291047683 46.968762677499996 C22.508420291047717 43.768762677500007 21.808420291047671 41.468762677499996 20.208420291047648 39.568762677499990 C20.308420291047671 39.368762677500001 20.508420291047660 39.268762677500007 20.708420291047648 39.168762677500013 C23.908420291047694 36.968762677499996 25.508420291047717 32.868762677500001 25.508420291047717 29.068762677499990 zM8.708420291047673 47.368762677500001 C8.908420291047694 44.868762677500001 9.108420291047683 42.268762677500007 9.308420291047671 39.768762677500007 C11.308420291047671 40.468762677499996 13.708420291047648 41.068762677499990 15.008420291047660 42.668762677500013 C18.608420291047683 47.268762677500007 11.908420291047694 48.168762677500013 8.708420291047648 47.368762677500001 zM9.808420291047673 33.568762677499997 C9.808420291047671 33.568762677499990 9.708420291047648 33.568762677499990 9.708420291047648 33.568762677499990 C9.808420291047671 30.668762677500013 10.008420291047660 27.768762677500007 10.108420291047683 24.868762677500001 C13.808420291047671 24.468762677499996 18.708420291047648 24.368762677500001 19.408420291047694 28.868762677500001 C20.508420291047660 35.468762677499996 13.808420291047671 35.068762677499990 9.808420291047671 33.568762677499990 z" />
<glyph unicode="C" horiz-adv-x="27.703594245772639" d="M17.328275931833531 47.628600405699999 C13.428275931833509 50.028600405699990 10.228275931833521 45.028600405699990 9.228275931833521 41.828600405700001 C8.528275931833532 39.628600405700013 8.328275931833543 37.228600405700007 8.528275931833532 34.928600405699996 C8.728275931833521 32.228600405700007 9.328275931833543 28.928600405699996 11.428275931833509 27.028600405699990 C14.528275931833532 24.228600405700007 18.528275931833534 26.228600405700007 19.328275931833545 30.128600405700013 C20.128275931833556 33.928600405699996 25.928275931833568 32.328600405700001 25.128275931833500 28.528600405699990 C23.928275931833568 22.928600405699996 19.228275931833522 19.028600405699990 13.428275931833509 19.628600405700013 C7.328275931833543 20.228600405699979 4.128275931833555 25.528600405699990 3.028275931833532 31.028600405699990 C1.828275931833543 37.328600405700001 2.528275931833532 44.428600405699996 6.628275931833555 49.628600405700013 C10.028275931833532 54.028600405699990 15.528275931833532 55.828600405700001 20.428275931833511 52.828600405700001 C23.728275931833522 50.828600405700001 20.728275931833522 45.628600405700013 17.328275931833545 47.628600405700013 z" />
<glyph unicode="D" horiz-adv-x="25.380555082246133" d="M18.317720526143535 25.107690631000001 C14.565300438043554 21.026104728200011 9.725857526843530 20.516406474999997 4.447498248543528 21.034984654799985 C4.048223171143551 21.059055646600001 3.754784611143524 21.176927659800015 3.461346051143554 21.294799673000000 C2.281574063043539 21.666468956300008 1.137908562643535 22.637050855599995 1.134373760543557 24.240168912800016 C0.953168698643541 32.866707310399988 0.771963636843513 41.493245708000018 0.596776322943530 50.219602874900005 C0.608811818843552 50.419240413599994 0.614829566743541 50.519059182900008 0.620847314743518 50.618877952199995 C0.212019687343517 52.146248231800001 0.813415249043548 53.813078570599998 2.827843879343508 53.992179919699993 C12.700349492443539 54.899722160799996 21.933921966743586 48.532529737000004 22.817393216043573 38.260749046599983 C23.227272699943573 33.427323883300005 21.634759049243488 28.614434909700009 18.317720526143550 25.107690630999997 zM16.722430539243533 38.528012902000000 C15.931329222043534 43.684965364999982 11.650105780543530 47.449420949000000 6.577401788743547 48.055782402299997 C6.749054300443508 40.932543292499986 6.926724560143558 33.909122952100006 7.098377071843519 26.785883842299995 C9.999139130243524 26.711187921100020 12.530714851043516 27.159656838399997 14.595768410743521 29.840245168499990 C16.449148935943530 32.333231455900005 17.240629486143522 35.491325586599999 16.722430539243536 38.528012902000000 z" />
<glyph unicode="E" horiz-adv-x="23.392129411842141" d="M5.887917895799982 18.715334061499998 C4.185017996799957 18.703847808799992 3.069820490699954 20.364069035600011 3.047936764799999 21.867239386100010 C2.868757000899961 31.890107968100011 2.684378500499975 41.813111775899984 2.500000000000000 51.736115583599997 C2.504109956899981 53.738609805400017 4.054068936399972 54.659276499599997 5.646706588099960 54.476231940399998 C5.846436136600005 54.465834467299999 6.151229195899987 54.550103031899994 6.450823518699963 54.534506822200001 C10.350748451399966 54.431620870600000 14.161206082999968 54.533663204199996 18.181790736300002 54.825037613099994 C21.997447104400010 55.026944720900019 21.685522910900033 49.035058265200007 17.869866542699981 48.833151157400010 C14.753263594399982 48.594852893699994 11.746922893399983 48.551085441999987 8.645916154799977 48.612381501100003 C8.636607461300002 46.510022504999995 8.732362278599965 44.502329546699997 8.723053585099990 42.399970550700004 C10.531016994999959 42.506122841099995 12.444043915599991 42.706941169299995 14.252007325399973 42.813093459699985 C15.860241186699966 42.929643223299990 17.426885155499974 42.247274792799999 17.837830505300019 40.523579947499996 C18.164507290500012 39.104678161700008 17.156550854399995 37.054306531199984 15.548316993100002 36.937756767600007 C13.335695749699994 36.752534649200015 11.023209731999998 36.572511267200014 8.810588488599990 36.387289148799994 C8.912630822099970 32.576831517199992 8.909609644900002 28.671707847899995 9.011651978399982 24.861250216299993 C11.718398356499961 24.920613877699992 14.435542207799983 25.179707087600008 17.163083532200005 25.638529846099999 C20.999534846599943 26.239896050900001 22.295844514400017 20.364559358900010 18.459393199999965 19.763193153999993 C14.323347562799995 19.177423158900012 10.097834624499967 18.796581448799969 5.887917895800001 18.715334061499988 z" />
<glyph unicode="F" horiz-adv-x="25.887500000000003" d="M12.500000000049496 50.554563894499999 C12.500000000049509 48.254563894499995 12.500000000049509 46.054563894500006 12.500000000049509 43.754563894499995 C14.900000000049486 44.054563894500006 17.200000000049499 44.354563894499989 19.600000000049477 44.454563894499984 C23.500000000049511 44.654563894500001 23.400000000049488 38.654563894500001 19.600000000049477 38.454563894499984 C17.300000000049522 38.354563894499989 15.000000000049509 38.154563894500001 12.700000000049497 37.754563894499995 C12.800000000049520 32.354563894499989 13.100000000049475 27.054563894500006 13.400000000049486 21.754563894499995 C13.600000000049475 17.854563894499989 7.600000000049475 17.954563894500012 7.400000000049486 21.754563894499995 C6.800000000049520 32.154563894500001 6.500000000049509 42.654563894500001 6.500000000049509 53.154563894500001 C6.500000000049509 54.154563894500001 6.900000000049486 54.854563894499989 7.500000000049509 55.354563894499989 C7.900000000049486 55.754563894499995 8.300000000049520 56.054563894500006 8.800000000049520 56.154563894500001 C12.700000000049497 56.654563894500001 16.600000000049477 56.954563894499984 20.500000000049511 56.654563894500001 C24.300000000049465 56.354563894499989 24.400000000049488 50.354563894499989 20.500000000049511 50.654563894500001 C17.800000000049522 50.854563894499989 15.200000000049497 50.854563894499989 12.500000000049509 50.554563894500006 z" />
<glyph unicode="G" horiz-adv-x="29.124627663142082" d="M19.044680669305396 19.441987829599999 C12.444680669305370 16.941987829600009 5.544680669305393 21.541987829600004 3.244680669305382 27.641987829599998 C0.744680669305382 34.241987829599992 2.144680669305416 43.641987829599998 6.244680669305382 49.341987829599987 C9.944680669305370 54.441987829600009 16.644680669305416 55.841987829599987 21.444680669305370 51.641987829599998 C24.444680669305370 49.241987829599992 20.144680669305416 44.941987829600009 17.244680669305382 47.441987829600009 C12.944680669305370 51.141987829599998 9.744680669305382 43.841987829599987 8.944680669305370 40.941987829600009 C8.044680669305393 37.441987829600009 7.444680669305370 33.441987829600009 8.744680669305382 30.041987829600004 C10.544680669305393 25.341987829599987 16.044680669305393 22.541987829600004 19.444680669305370 27.441987829600009 C21.044680669305393 29.641987829599998 20.944680669305370 32.941987829600009 20.644680669305416 35.841987829599987 C18.744680669305382 35.641987829599998 16.944680669305370 35.441987829600009 15.044680669305393 35.241987829599992 C11.244680669305382 34.841987829599987 11.244680669305382 40.841987829599987 15.044680669305393 41.241987829599992 C17.844680669305404 41.541987829600004 20.544680669305393 41.841987829599987 23.244680669305382 42.141987829599998 C25.044680669305393 42.341987829599987 26.044680669305393 40.641987829599998 26.244680669305438 39.141987829599998 C27.144680669305416 32.141987829599998 27.044680669305393 22.441987829600009 19.044680669305393 19.441987829600009 z" />
<glyph unicode="H" horiz-adv-x="27.277991528020831" d="M23.230769096820829 21.948124459300001 C22.932116314420838 18.089389939400007 16.987672307620855 18.244012475999995 17.286325090020839 22.102746995899992 C17.605594210620822 26.754074049999986 17.636599646120814 30.935678927499993 17.856794699920826 35.589583023899991 C14.775190460620806 35.273175067300002 11.795237330420818 35.053264135299997 8.718787175720806 34.935004312399997 C8.999116540320856 30.466363138199995 9.090256286620829 26.085260473299996 9.568733784720834 21.611465214500015 C9.966176512120839 17.833765465499994 4.021732505320855 17.988388002199997 3.624289778020838 21.766087751199990 C2.604339306720860 32.103292245900008 2.365445812220841 42.051809334700010 2.536961184520848 52.457163388900000 C2.637465833420819 56.321051993299989 8.581909840220803 56.166429456599985 8.481405191320832 52.302540852199996 C8.380900542520848 48.438652247800007 8.478544027220821 44.756222134899986 8.576187512020837 40.887179446000005 C11.751711733520821 41.002862226700017 14.929812997320809 41.217619074100014 18.110491303320813 41.531449988399999 C18.216150036720805 45.593486726300000 18.324385812420857 48.821534650800004 18.333547521220837 52.985222497800009 C18.334978103320836 56.851688144500002 24.279422110120819 56.697065607799999 24.277991528020877 52.830599961100006 C24.195242053320882 42.026372597600016 24.004459996720854 32.635238460099998 23.230769096820879 21.948124459300004 z" />
<glyph unicode="I" horiz-adv-x="14.310358007101343" d="M9.010358007101342 51.108611622799998 C9.810358007101350 39.808611622800015 10.210358007101327 32.779520438100008 10.310358007101350 21.479520438099996 C10.310358007101350 17.579520438099991 4.310358007101350 17.579520438099991 4.310358007101350 21.479520438099996 C4.227467151601338 30.846187104699993 3.938449478601349 35.941944956100002 3.386351560601334 45.308611622800015 C3.272395406701328 47.241944956099985 3.147231163401337 49.175278289500000 3.010358007101338 51.108611622799998 C2.710358007101327 55.008611622800004 8.810358007101350 54.908611622800009 9.010358007101338 51.108611622799998 z" />
<glyph unicode="J" horiz-adv-x="29.345383466977697" d="M24.672800000007300 50.021501014199998 C23.472800000007243 49.821501014200010 22.272800000007312 49.621501014199993 21.072800000007323 49.721501014199987 C21.372800000007278 43.721501014199987 21.772800000007312 37.621501014199993 21.872800000007278 31.621501014199993 C21.872800000007278 27.421501014200004 21.272800000007312 23.021501014199998 18.072800000007323 20.021501014199998 C10.772800000007312 13.121501014199993 4.072800000007323 22.721501014199987 3.972800000007300 29.821501014200010 C3.972800000007300 33.721501014199987 9.972800000007300 33.721501014199987 9.972800000007300 29.821501014200010 C9.972800000007300 27.021501014199998 12.272800000007312 21.021501014199998 14.972800000007300 25.621501014199993 C16.372800000007278 28.021501014199998 15.872800000007278 31.321501014200010 15.772800000007312 34.021501014199998 C15.572800000007323 38.821501014200010 15.372800000007278 43.721501014199987 15.172800000007289 48.621501014199993 C12.172800000007289 48.221501014199987 9.272800000007312 47.721501014199987 6.272800000007312 47.321501014200010 C2.472800000007300 46.721501014199987 0.872800000007278 52.521501014199998 4.672800000007289 53.121501014199993 C10.772800000007312 54.021501014199998 16.872800000007278 54.921501014200004 23.072800000007266 55.821501014200010 C26.872800000007334 56.321501014200010 28.472800000007243 50.521501014199998 24.672800000007289 50.021501014199998 z" />
<glyph unicode="K" horiz-adv-x="27.541864741251075" d="M19.310471085804611 19.734888438100000 C16.310471085804636 24.134888438100006 13.010471085804625 28.334888438099995 9.610471085804591 32.434888438100018 C9.710471085804613 28.434888438099989 9.810471085804636 24.334888438099995 9.910471085804602 20.334888438099995 C10.010471085804625 16.434888438099989 4.010471085804625 16.434888438099989 3.910471085804602 20.334888438099995 C3.910471085804602 26.934888438099989 3.610471085804591 33.534888438099983 3.310471085804636 40.134888438100006 C3.210471085804613 40.434888438100018 3.210471085804613 40.834888438099995 3.210471085804613 41.134888438100006 C3.010471085804625 44.934888438100018 2.810471085804636 48.834888438099995 2.510471085804625 52.734888438100000 C2.210471085804613 56.634888438100006 8.210471085804613 56.534888438099983 8.510471085804625 52.734888438100000 C8.810471085804636 49.134888438100006 9.010471085804625 45.534888438099983 9.210471085804613 41.934888438100018 C9.310471085804636 41.834888438099995 9.510471085804625 41.634888438100006 9.610471085804591 41.434888438100018 C12.710471085804613 45.134888438100006 15.510471085804625 49.034888438099983 18.210471085804613 53.034888438099983 C20.310471085804636 56.234888438100000 25.510471085804625 53.234888438100000 23.410471085804602 50.034888438099983 C20.410471085804602 45.434888438100018 17.110471085804591 41.134888438100006 13.610471085804591 36.934888438100018 C17.510471085804625 32.334888438099995 21.110471085804591 27.634888438100006 24.510471085804625 22.734888438100000 C26.710471085804556 19.534888438100012 21.510471085804625 16.534888438100012 19.310471085804636 19.734888438100000 z" />
<glyph unicode="L" horiz-adv-x="23.455817493262217" d="M19.124838199324600 21.148286439700001 C14.974739562424599 20.382335198100009 10.818971646824604 19.516544789499989 6.569033842924579 18.756262826700009 C4.543904108024616 18.370452566599994 2.926008170724582 19.864578644200009 2.939554578824595 21.867031264100007 C2.824616121324606 32.190150422100004 2.615507775524588 42.618778026000001 2.500569318024599 52.941897183999998 C2.422153688324624 56.852632535400005 8.406834432924608 56.412636642999985 8.490919341324581 52.601740458600005 C8.673889143924622 43.476691305299994 8.762689058224577 34.457150597700007 8.845819693724604 25.337770723099993 C11.886348935424575 25.966405696799995 14.821369731324591 26.500870782300012 17.861898973024619 27.129505756100002 C21.706810830024619 27.812625666799988 22.975419335024593 21.931245517500003 19.124838199324653 21.148286439700001 z" />
<glyph unicode="M" horiz-adv-x="36.73070441698912" d="M28.201175513925719 22.761663286000001 C27.401175513925661 29.661663285999992 26.301175513925752 36.461663286000004 25.001175513925741 43.161663285999992 C23.101175513925707 39.261663285999987 21.101175513925707 35.261663285999987 19.201175513925730 31.361663286000010 C17.901175513925718 28.761663285999987 14.601175513925707 29.961663286000004 13.701175513925730 32.061663285999998 C12.301175513925696 35.461663286000004 10.701175513925730 38.761663285999987 8.901175513925718 41.961663286000004 C8.801175513925696 35.561663285999998 8.601175513925707 29.161663285999992 8.501175513925741 22.761663285999987 C8.401175513925718 18.861663286000010 2.401175513925718 18.861663286000010 2.501175513925741 22.761663285999987 C2.701175513925730 32.461663286000004 2.901175513925718 42.161663285999992 3.101175513925707 51.861663286000010 C3.201175513925730 55.061663285999998 7.101175513925707 55.761663285999987 8.701175513925730 53.461663286000004 C11.801175513925696 49.161663285999992 14.401175513925718 44.661663285999992 16.701175513925730 39.961663286000004 C19.001175513925741 44.561663285999998 21.301175513925696 49.261663285999987 23.601175513925707 53.861663286000010 C24.801175513925696 56.161663285999992 28.501175513925684 55.561663285999998 29.101175513925707 53.161663285999992 C31.301175513925752 43.161663285999992 33.001175513925688 33.061663285999998 34.201175513925733 22.861663286000010 C34.701175513925733 18.961663286000004 28.701175513925730 19.061663285999998 28.201175513925730 22.761663285999987 z" />
<glyph unicode="N" horiz-adv-x="31.432616059166751" d="M26.281354781585399 51.344613846599998 C26.171332073885448 55.154849404099991 20.183795036885410 55.554098988500016 20.288828175585390 51.643987987599985 C20.433861929485399 46.530382096399990 20.573906114385377 38.890937272900004 20.713950299285411 33.677455938300000 C16.309199460785376 39.704741401200010 12.004324065785422 45.727037295099990 7.699448670785412 51.749333188900010 C6.201232956185404 53.826675161899999 2.426008444885408 52.413282120500014 2.501020106385422 49.906416896699994 C2.761066136985416 41.082450891400015 3.026101736585385 31.425297449299990 3.286147767285424 22.601331444000010 C3.396170474985379 18.791095886499988 9.383707511885373 18.391846302099992 9.278674373285380 22.301957303100011 C9.158588464385414 27.914940411400011 8.938627112185397 34.465975969099986 8.818541203285374 40.078959077399986 C13.123416598285385 34.056663183500007 17.428291993385383 28.034367289599999 21.733167388385393 22.012071395699991 C23.231383102985458 19.934729422799990 27.006607614285397 21.348122464200003 26.931595952785440 23.854987687999994 C26.651591646085446 32.279451919600007 26.466473213885390 43.025014627500013 26.281354781585403 51.344613846599998 z" />
<glyph unicode="O" horiz-adv-x="28.995205868159253" d="M27.495205868131464 36.735699797199999 C27.495205868131464 29.635699797200004 22.995205868131464 22.135699797200004 15.595205868131487 20.835699797199993 C-3.004794131868536 17.435699797199987 -3.704794131868525 49.435699797200016 12.795205868131475 52.735699797199999 C13.495205868131464 52.835699797199993 14.195205868131453 52.735699797199999 14.695205868131453 52.535699797200010 C22.595205868131487 52.835699797199993 27.395205868131441 43.735699797199999 27.495205868131464 36.735699797199999 zM14.395205868131466 46.635699797199997 C13.995205868131464 46.635699797200004 13.695205868131453 46.635699797200004 13.395205868131441 46.735699797199999 C4.395205868131441 43.535699797199982 4.495205868131464 23.935699797199987 15.295205868131475 26.835699797199993 C23.395205868131441 29.035699797200010 23.695205868131509 47.135699797199976 14.395205868131441 46.635699797200004 z" />
<glyph unicode="P" horiz-adv-x="25.997140457210637" d="M10.011451851815343 31.021501014199998 C10.311451851815349 27.121501014199993 10.611451851815360 23.494726166300012 10.911451851815315 19.494726166300012 C11.211451851815326 15.594726166300006 5.411451851815315 15.794726166299995 4.911451851815372 19.494726166300012 C4.911451851815372 19.694726166300001 4.811451851815349 19.994726166300012 4.811451851815349 20.294726166299995 C4.811451851815349 20.494726166300012 4.811451851815349 20.794726166299995 4.811451851815349 20.994726166300012 C4.011451851815337 31.494726166300012 3.311451851815349 41.621501014199993 2.511451851815337 52.121501014199993 C2.311451851815349 54.621501014199993 4.711451851815326 55.521501014199998 6.511451851815337 54.821501014200010 C14.111451851815360 57.521501014199998 22.411451851815372 54.821501014200010 23.411451851815372 45.521501014199998 C24.311451851815349 37.221501014199987 18.011451851815337 30.821501014199953 10.011451851815337 31.021501014199998 zM9.611451851815342 37.021501014199998 C9.811451851815349 37.021501014199998 10.011451851815337 37.021501014199998 10.211451851815326 37.021501014199998 C19.811451851815349 35.721501014199987 19.911451851815315 53.721501014199987 8.711451851815326 49.321501014200010 C9.011451851815337 45.221501014199987 9.311451851815349 41.121501014199993 9.611451851815360 37.021501014199998 z" />
<glyph unicode="Q" horiz-adv-x="37.738181229782185" d="M20.202941967832086 17.081338742400000 C-0.497058032167899 13.181338742400015 -3.497058032167899 49.981338742399998 13.602941967832066 55.881338742400004 C14.002941967832101 56.281338742400010 14.602941967832066 56.481338742399998 15.402941967832078 56.381338742400004 C20.202941967832089 55.981338742399998 25.302941967832112 55.181338742399987 28.802941967832112 51.481338742399998 C32.002941967832044 48.181338742399987 33.302941967832112 43.581338742399993 33.702941967832089 39.181338742399987 C34.602941967832066 29.881338742400004 30.402941967832135 18.981338742399998 20.202941967832089 17.081338742399993 zM27.802941967832083 38.381338742399997 C27.602941967832066 41.481338742399998 26.702941967832089 44.981338742399998 24.602941967832066 47.281338742400010 C22.402941967832078 49.581338742399993 18.802941967832112 49.981338742399998 15.802941967832112 50.281338742400010 C4.502941967832101 46.881338742400004 6.402941967832078 18.781338742400010 20.302941967832112 23.281338742400010 C26.502941967832101 25.381338742400004 28.202941967832089 32.581338742399993 27.802941967832112 38.381338742400004 zM20.819371988132087 36.279918864099997 C22.119371988132059 32.579918864099994 25.119371988132059 29.379918864100006 27.419371988132070 26.279918864100011 C29.519371988132093 23.279918864100011 31.419371988132070 19.879918864100006 34.219371988132139 17.579918864099994 C37.219371988132139 15.179918864099989 32.919371988132070 10.879918864100006 30.019371988132093 13.379918864100006 C26.819371988132048 15.979918864100000 24.619371988132059 19.979918864100000 22.219371988132082 23.279918864100011 C19.619371988132059 26.879918864100006 16.619371988132059 30.379918864100006 15.019371988132093 34.679918864099989 C13.719371988132082 38.279918864100011 19.519371988132093 39.879918864100006 20.819371988132104 36.279918864100011 z" />
<glyph unicode="R" horiz-adv-x="29.019470444879715" d="M21.704740682895221 19.722675424100000 C18.547382400695213 25.163188284699999 15.707946505795192 29.539112979500004 12.514762107595246 34.993944492899999 C11.099046437195241 34.773516612399987 9.691371183895242 34.740242737800003 8.478890353695206 34.886082452099998 C8.729684106295238 29.812823248299992 8.724613639395230 25.527441079499994 9.162561397995219 20.446141458499994 C9.477678487495226 16.870114302300010 3.569859633795218 17.111326816000002 3.254742544195224 20.687353972200015 C2.597825914395244 31.604879947000001 2.470544710295215 41.237941619600008 2.180232462595214 51.937881628000014 C2.159019213695231 53.626287890199990 3.415722337995206 54.509795208699984 4.729820588395242 54.547089291899994 C11.676415648195203 59.123638430499994 22.809171000595214 56.395365331600004 24.868293681895253 47.588178631700004 C26.132353632995219 42.096389121699985 22.891951649495198 38.404459507699983 18.307790709495194 36.445158450000008 C21.787127606195227 31.265416443899994 23.941023129695182 27.360301784900003 26.890972766595169 22.324954876899994 C28.727591826595258 18.964189480399995 23.804761133395246 16.610139301599986 21.704740682895206 19.722675424100004 zM19.286409175195217 46.409188342000000 C18.205483021395210 51.799360431699995 11.655092812695230 52.080775031100018 7.815527687895226 49.995735302000014 C7.963591814295242 46.895633577900014 8.018078937795238 43.799552062399982 8.166143064195197 40.699450338299982 C12.088336772295193 40.343447572700001 20.281798743095194 41.210190466600011 19.286409175195232 46.409188341999993 z" />
<glyph unicode="S" horiz-adv-x="27.360915042270523" d="M24.698645460250578 30.695537525399999 C23.898645460250613 25.395537525400016 19.398645460250556 19.995537525400010 14.298645460250590 18.495537525400010 C9.098645460250602 16.895537525400016 3.698645460250567 19.695537525399999 2.398645460250556 24.995537525400010 C1.498645460250579 28.795537525399993 7.198645460250567 30.295537525399993 8.198645460250567 26.595537525400005 C9.898645460250556 19.895537525400016 17.798645460250590 27.395537525400016 18.598645460250602 30.395537525400016 C19.298645460250590 32.995537525400010 17.298645460250590 35.395537525400016 14.798645460250590 35.495537525400010 C13.298645460250590 35.595537525400005 11.498645460250579 34.795537525399993 9.998645460250579 34.395537525400016 C6.298645460250590 33.395537525400016 2.898645460250556 33.895537525400016 1.298645460250590 37.895537525400016 C-2.801354539749433 48.095537525400005 9.798645460250590 55.495537525400010 18.298645460250590 52.895537525400016 C21.998645460250522 51.795537525399993 20.398645460250556 45.995537525400010 16.698645460250567 47.095537525400005 C13.698645460250567 47.995537525400010 10.698645460250567 47.795537525399993 8.498645460250579 45.395537525400016 C6.998645460250579 43.695537525399999 5.498645460250579 40.895537525400016 8.398645460250556 40.195537525399999 C9.498645460250579 39.995537525400010 12.098645460250602 41.195537525399999 13.398645460250556 41.395537525400016 C14.698645460250567 41.595537525400005 15.998645460250579 41.695537525399999 17.398645460250556 41.495537525400010 C22.698645460250567 40.795537525399993 25.598645460250545 35.695537525399999 24.698645460250567 30.695537525399999 z" />
<glyph unicode="T" horiz-adv-x="28.93298251961027" d="M23.124908131210752 48.217341601500003 C21.015443034410765 48.204811411800023 18.897088508010739 48.092677115599997 16.778733981610770 47.980542819400000 C17.364253371710760 38.792117108599996 17.551356335610734 29.825861692499984 17.041230553710733 20.735219708199992 C16.794146902510732 16.841770123400011 10.826789939710778 17.474740011199998 11.064984161310775 21.268585489400010 C11.457726977210740 30.168908690299986 11.443163937310743 38.818572927399998 10.731372151610771 47.717075748300005 C8.305315875910736 47.532005634600011 5.888149029910750 47.446539627400000 3.470982183810776 47.361073620300004 C-0.358421013189258 47.200851415700015 -1.445389225689240 53.020516363500008 2.392903401010727 53.280342674699995 C5.516188422510737 53.403186780600009 8.539869337510737 53.534920316099999 11.663154359010747 53.657764422000014 C12.739200291610729 54.465307084000017 14.251040749110729 54.531173851799991 15.293349342910773 53.835765486000014 C17.511307975910739 53.939010352499992 19.729266608810775 54.042255218999998 21.947225241810742 54.145500085500004 C25.776628438810775 54.305722290099993 26.854707221610710 48.386453235799991 23.124908131210731 48.217341601500010 z" />
<glyph unicode="U" horiz-adv-x="28.399424646740087" d="M10.056814241528471 50.715212981800001 C9.456814241528491 46.115212981799999 8.956814241528491 41.515212981800005 8.656814241528480 36.815212981800016 C8.456814241528491 32.915212981800011 9.356814241528468 23.168762677500013 15.556814241528457 28.368762677500001 C20.656814241528480 32.668762677500013 17.643426817628495 45.648275862100007 16.943426817628449 51.348275862099996 C16.543426817628472 55.148275862100007 22.543426817628415 55.148275862100007 22.943426817628506 51.348275862099996 C24.043426817628415 42.248275862100002 27.256814241528446 21.268762677500007 12.756814241528446 20.868762677500001 C-1.843185758471520 20.468762677499996 3.056814241528457 44.115212981799999 4.256814241528446 52.315212981800016 C4.856814241528468 56.115212981799999 10.656814241528480 54.515212981800005 10.056814241528457 50.715212981799993 z" />
<glyph unicode="V" horiz-adv-x="26.545633084786125" d="M24.015222243141491 49.595537525399997 C22.615222243141503 39.595537525400005 20.215222243141469 29.895537525400016 16.715222243141469 20.395537525400016 C15.715222243141469 17.695537525399999 11.815222243141491 17.395537525400016 10.915222243141514 20.395537525400016 C8.015222243141480 29.895537525400016 5.315222243141491 39.395537525400016 2.615222243141503 48.895537525400016 C1.615222243141503 52.595537525400005 7.415222243141514 54.195537525399999 8.415222243141514 50.495537525400010 C10.215222243141469 44.095537525400005 12.015222243141480 37.695537525399999 13.915222243141514 31.295537525399993 C15.815222243141491 37.795537525399993 17.315222243141491 44.395537525400016 18.215222243141469 51.195537525399999 C18.715222243141469 54.995537525400010 24.515222243141480 53.395537525400016 24.015222243141480 49.595537525400005 z" />
<glyph unicode="W" horiz-adv-x="38.286552900419835" d="M35.743295865831804 49.695537525399999 C34.543295865831794 40.195537525399999 32.743295865831840 30.895537525400016 30.343295865831745 21.695537525399999 C29.643295865831814 19.195537525399999 26.143295865831814 18.795537525399993 24.843295865831802 20.995537525400010 C22.843295865831802 24.295537525399993 21.043295865831791 27.795537525399993 19.343295865831802 31.295537525399993 C17.343295865831802 27.095537525400005 15.043295865831791 23.195537525399999 11.843295865831802 19.695537525399999 C10.443295865831825 18.095537525400005 7.243295865831779 18.795537525399993 6.843295865831802 20.995537525400010 C5.443295865831825 29.895537525400016 3.756683289731821 40.748275862100002 2.356683289731787 49.548275862100013 C1.756683289731821 53.348275862099996 7.556683289731776 54.948275862099990 8.156683289731799 51.148275862100007 C9.256683289731821 44.548275862100013 10.543295865831791 35.895537525400016 11.643295865831814 29.295537525399993 C13.643295865831814 32.695537525399999 15.243295865831779 36.395537525400016 16.843295865831802 40.095537525400005 C18.043295865831791 42.795537525399993 21.543295865831791 41.395537525400016 22.343295865831802 39.395537525400016 C23.543295865831791 36.395537525400016 24.943295865831825 33.495537525400010 26.343295865831802 30.595537525400005 C27.843295865831745 37.395537525400016 29.143295865831814 44.295537525399993 30.043295865831791 51.195537525399999 C30.543295865831791 54.995537525400010 36.343295865831749 53.395537525400016 35.743295865831840 49.695537525399999 z" />
<glyph unicode="X" horiz-adv-x="29.000714108818698" d="M20.997464738980302 21.635699797200001 C18.897464738980325 24.835699797199993 16.710852162880322 28.695537525399999 14.710852162880322 31.995537525400010 C12.310852162880288 28.595537525400005 10.110852162880299 25.095537525400005 8.110852162880299 21.495537525400010 C6.210852162880322 18.095537525400005 1.010852162880276 21.095537525400005 2.910852162880310 24.495537525400010 C5.410852162880310 29.095537525400005 8.310852162880288 33.395537525400016 11.310852162880288 37.695537525399999 C9.210852162880322 41.395537525400016 7.210852162880322 45.095537525400005 5.310852162880288 48.895537525400016 C3.610852162880299 52.295537525399993 8.810852162880288 55.395537525400016 10.510852162880276 51.895537525400016 C12.010852162880276 48.895537525400016 13.610852162880299 45.895537525400016 15.310852162880288 42.995537525400010 C17.010852162880276 45.295537525399993 20.017140195380314 49.088438133900013 21.717140195380303 51.388438133899996 C24.017140195380314 54.488438133899990 29.217140195380246 51.488438133899990 26.917140195380291 48.388438133899996 C24.517140195380314 45.188438133900007 20.810852162880288 40.495537525400010 18.510852162880276 37.295537525399993 C20.910852162880310 33.195537525399999 23.597464738980314 28.635699797200004 26.197464738980337 24.635699797200004 C28.297464738980246 21.435699797200016 23.097464738980314 18.435699797200016 20.997464738980291 21.635699797200004 z" />
<glyph unicode="Y" horiz-adv-x="27.27482561081392" d="M25.472747200760111 47.962474645000000 C21.172747200760114 38.862474644999992 16.872747200760102 29.662474645000003 12.572747200760091 20.562474645000009 C10.872747200760102 17.062474645000009 5.772747200760136 20.062474645000009 7.372747200760102 23.562474645000009 C8.472747200760125 25.862474644999992 9.572747200760091 28.262474644999998 10.672747200760114 30.562474645000009 C10.472747200760125 30.662474645000003 10.272747200760136 30.862474644999992 10.172747200760114 31.062474645000009 C6.472747200760125 36.162474645000003 3.272747200760136 41.662474645000003 0.772747200760136 47.462474644999986 C-0.727252799239864 50.962474644999986 4.372747200760102 54.062474645000009 5.972747200760125 50.462474644999986 C8.072747200760091 45.662474645000003 10.572747200760091 41.062474645000009 13.572747200760091 36.662474645000003 C15.772747200760136 41.462474644999986 18.072747200760091 46.162474645000003 20.272747200760136 50.962474644999986 C21.872747200760102 54.362474644999992 27.072747200760091 51.362474644999992 25.472747200760068 47.962474644999986 z" />
<glyph unicode="Z" horiz-adv-x="27.37632587986905" d="M22.781737156118080 22.995537525400000 C17.081737156118059 21.595537525400005 11.381737156118071 21.195537525399999 5.581737156118059 21.695537525399999 C3.881737156118071 21.895537525400016 1.881737156118071 23.495537525400010 2.681737156118082 25.495537525400010 C4.381737156118071 29.795537525399993 6.481737156118093 33.795537525399993 8.881737156118071 37.695537525399999 C10.281737156118105 39.895537525400016 11.681737156118082 42.095537525400005 12.981737156118093 44.295537525399993 C13.181737156118082 44.595537525400005 13.981737156118093 46.095537525400005 14.781737156118105 47.295537525399993 C11.881737156118071 47.095537525400005 8.881737156118071 46.695537525399999 6.281737156118105 46.495537525400010 C2.381737156118071 46.295537525399993 2.481737156118093 52.295537525399993 6.281737156118105 52.495537525400010 C10.281737156118105 52.695537525399999 23.981737156118093 56.095537525400005 21.681737156118025 48.095537525400005 C20.681737156118082 44.195537525399999 17.481737156118093 40.295537525399993 15.381737156118071 36.895537525400016 C13.481737156118093 33.795537525399993 11.581737156118059 30.795537525399993 9.981737156118093 27.595537525400005 C13.681737156118082 27.495537525399982 17.381737156118071 27.895537525400016 21.081737156118059 28.795537525399993 C24.881737156118071 29.695537525399999 26.481737156118093 23.895537525400016 22.781737156118048 22.995537525400010 z" />
<glyph unicode="a" horiz-adv-x="56" d="" />
<glyph unicode="b" horiz-adv-x="56" d="" />
</font>
</defs>
</svg>
