<?xml version="1.0" standalone="no"?>
<!DOCTYPE svg PUBLIC "-//W3C//DTD SVG 1.1//EN" "http://www.w3.org/Graphics/SVG/1.1/DTD/svg11.dtd" >
<svg>
<defs>
<font id="Lettuce-Party-Regular" horiz-adv-x="22" >
<font-face units-per-em="100" ascent="80" descent="-20" />
<font-src>
	<font-face-name="XmlParser.encode (Lettuce Party Regular)">
</font-src>
<glyph unicode=" " horiz-adv-x="22" d="" />
<glyph unicode="!" horiz-adv-x="20.035471085781488" d="M17.525000000032051 52.175050709899999 C16.625000000032081 42.475050709900017 15.825000000032013 32.775050709900000 15.125000000032081 22.975050709899989 C14.825000000032013 19.175050709900006 8.825000000032070 19.175050709900006 9.125000000032024 22.975050709899989 C9.925000000032036 32.675050709900006 10.725000000032047 42.475050709900017 11.525000000032058 52.175050709900006 C11.825000000032070 55.975050709900017 17.825000000032013 56.075050709899983 17.525000000032058 52.175050709900006 zM11.425000000032050 17.975050709900000 C7.525000000032058 17.975050709899989 7.525000000032058 11.975050709899989 11.425000000032036 11.975050709899989 C15.325000000032013 11.975050709899989 15.325000000032013 17.975050709899989 11.425000000032036 17.975050709899989 z" />
<glyph unicode="'" horiz-adv-x="13.841265674250021" d="M8.610996045748296 57.645841785000002 C7.410996045748277 56.445841784999999 5.710996045748345 56.645841785000016 4.410996045748277 57.645841785000016 C2.410996045748277 59.245841785000010 3.310996045748254 62.245841785000010 5.310996045748254 63.345841785000005 C7.110996045748323 64.345841785000005 9.310996045748254 63.745841785000010 10.610996045748323 62.245841785000010 C13.510996045748300 59.045841784999993 10.710996045748345 53.845841785000005 8.110996045748323 51.345841785000005 C5.410996045748277 48.545841784999993 1.110996045748323 52.845841785000005 3.910996045748277 55.545841784999993 C4.510996045748300 56.145841785000016 5.110996045748323 56.845841785000005 5.410996045748277 57.645841785000016 C5.510996045748300 57.845841785000005 5.810996045748254 58.845841785000005 5.810996045748254 58.845841785000005 C5.810996045748254 58.945841784999999 5.810996045748254 58.945841784999999 5.810996045748254 58.945841784999999 C6.210996045748345 57.845841785000005 7.110996045748323 57.645841785000016 8.510996045748300 58.345841785000005 C8.710996045748345 58.745841785000010 9.010996045748300 59.245841785000010 9.210996045748345 59.745841785000010 C9.210996045748345 59.645841785000016 9.110996045748323 59.545841784999993 9.110996045748323 59.445841784999999 C9.110996045748323 59.945841784999999 9.110996045748323 60.545841784999993 9.110996045748323 61.045841784999993 C9.110996045748323 60.945841784999999 9.210996045748345 60.845841785000005 9.210996045748345 60.745841785000010 C9.010996045748300 61.145841785000016 8.710996045748345 61.645841785000016 8.510996045748300 62.045841784999993 C8.510996045748300 61.945841784999999 8.610996045748323 61.945841784999999 8.710996045748345 61.845841785000005 C10.010996045748300 60.845841785000005 9.710996045748345 58.645841785000016 8.610996045748323 57.645841785000016 z" />
<glyph unicode="," horiz-adv-x="10.30704998385804" d="M2.726687282995444 21.644624746500000 C4.226687282995492 22.444624746500011 5.926687282995424 21.944624746500011 6.826687282995401 20.644624746500000 C9.026687282995447 17.344624746499989 7.126687282995469 13.844624746499989 5.026687282995447 11.144624746500000 C4.026687282995447 9.844624746499989 1.826687282995401 10.144624746500000 0.826687282995401 11.144624746500000 C-0.373312717004531 12.344624746499989 -0.173312717004543 14.044624746500006 0.826687282995401 15.344624746499989 C1.126687282995469 15.744624746499994 1.526687282995446 16.244624746499994 1.726687282995492 16.744624746499994 C1.926687282995423 17.244624746499994 1.926687282995423 17.144624746500000 1.626687282995469 17.544624746500006 C0.826687282995401 18.944624746500011 1.426687282995423 20.844624746499989 2.726687282995492 21.644624746500000 z" />
<glyph unicode="." horiz-adv-x="13.35" d="M7.924999999961869 24.657200811399999 C4.024999999961869 24.657200811400003 4.024999999961869 18.657200811400003 7.924999999961846 18.657200811400003 C11.824999999961824 18.657200811400003 11.824999999961824 24.657200811400003 7.924999999961846 24.657200811400003 z" />
<glyph unicode="?" horiz-adv-x="23.122000558476294" d="M16.559290497252860 37.194726166300001 C14.859290497252859 35.794726166299995 12.759290497252836 35.094726166300006 10.859290497252859 33.994726166299984 C9.759290497252836 33.394726166300018 8.059290497252848 32.694726166300001 7.359290497252859 31.594726166300006 C5.459290497252882 28.394726166299989 10.759290497252836 26.294726166299995 10.559290497252848 29.994726166300012 C10.359290497252859 33.894726166300018 16.359290497252857 33.794726166299995 16.559290497252903 29.994726166300012 C17.259290497252834 18.594726166300006 0.059290497252848 19.894726166299989 0.759290497252836 30.594726166300006 C0.959290497252882 34.994726166299984 4.759290497252836 37.594726166300006 8.359290497252859 39.494726166299984 C11.159290497252870 40.894726166300018 14.659290497252814 41.994726166299984 14.559290497252904 45.794726166299995 C14.459290497252882 51.694726166300001 6.959290497252882 51.394726166300018 5.859290497252859 46.094726166300006 C5.059290497252848 42.294726166299995 -0.640709502747141 43.894726166300018 0.059290497252848 47.694726166300001 C1.959290497252882 57.694726166300001 15.959290497252882 59.494726166299984 19.859290497252857 49.794726166299995 C21.659290497252812 45.394726166300018 20.159290497252812 40.294726166299995 16.559290497252903 37.194726166300001 zM8.159290497252861 20.394726166300000 C4.259290497252836 20.394726166299989 4.259290497252836 14.394726166299989 8.159290497252870 14.394726166299989 C12.059290497252904 14.394726166299989 12.059290497252904 20.394726166299989 8.159290497252870 20.394726166299989 z" />
<glyph unicode="A" horiz-adv-x="27.794171785047816" d="M25.590222656506249 24.448119249700000 C26.888135876906240 20.868255946099993 21.625315728206211 18.164051056999995 20.227565325706287 21.749618489400007 C19.023785158406277 25.223940482100005 17.614626498306230 28.609833550500014 16.311009149006232 32.089859671999989 C13.986233318206251 31.721868725599990 11.650049229806262 31.154203415100000 9.313865141306229 30.586538104499994 C8.560830570106253 27.925158963099989 7.340437793606275 24.063033099999984 6.493270169306248 21.507195269400000 C5.283845581506233 17.870260823199999 -0.415444914093763 19.798495209000009 0.793979673706252 23.435429655299998 C1.518493600606240 25.597622886599993 2.621936808506240 29.165941332500012 3.246613553406240 31.333838692699999 C2.716040007506257 32.566109650100003 3.012684562106250 34.251933486799999 4.367609216906265 35.176151631899984 C5.867974230406224 40.399072732799993 7.168664879906265 45.633402091400001 8.375222476206266 50.973272760899988 C8.509284431306247 51.566591724099993 8.737479439606266 52.054369376500006 9.054103372306264 52.336768535999994 C9.983995792106276 54.587390691699994 13.341368216206268 55.497363441799990 14.490944232306225 52.827443034099986 C16.413564051806198 47.909767462300010 18.341888000106287 43.091929072499994 20.264507819606202 38.174253500600003 C21.722136647906218 37.389831293700013 22.412455655906292 35.447291804400010 21.833411941806226 34.078091900400011 C23.048600366806291 30.803444271800004 24.269492920606304 27.628633825099996 25.590222656506235 24.448119249700000 zM14.028969503406250 37.729212033400003 C13.504100086406259 39.061320172800009 12.879393487306237 40.399132441099994 12.360228199206238 41.831077762500001 C11.969450591406263 40.250795236700014 11.478835801706230 38.676216839799991 11.088058193906255 37.095934314000004 C12.103542400706266 37.338404571500007 13.013485296606239 37.486741775899986 14.028969503406250 37.729212033400017 z" />
<glyph unicode="B" horiz-adv-x="28.008420291064915" d="M25.508420291047674 29.068762677500001 C25.208420291047648 19.868762677500001 16.408420291047694 18.368762677500001 9.008420291047660 19.068762677499990 C7.208420291047648 17.968762677499996 4.308420291047671 18.768762677500007 4.208420291047648 21.468762677499996 C3.808420291047671 30.768762677500007 3.308420291047671 39.968762677499996 2.508420291047660 49.268762677500007 C2.408420291047694 50.668762677500013 3.208420291047648 51.568762677499990 4.208420291047648 51.968762677499996 C4.408420291047694 52.068762677499990 4.608420291047683 52.168762677500013 4.808420291047671 52.368762677500001 C11.008420291047660 54.968762677499996 19.408420291047694 54.568762677499990 21.608420291047626 46.968762677499996 C22.508420291047717 43.768762677500007 21.808420291047671 41.468762677499996 20.208420291047648 39.568762677499990 C20.308420291047671 39.368762677500001 20.508420291047717 39.268762677500007 20.708420291047648 39.168762677500013 C23.908420291047694 36.968762677499996 25.508420291047717 32.868762677500001 25.508420291047717 29.068762677499990 zM8.708420291047673 47.368762677500001 C8.908420291047694 44.868762677500001 9.108420291047683 42.268762677500007 9.308420291047671 39.768762677500007 C11.308420291047671 40.468762677499996 13.708420291047648 41.068762677499990 15.008420291047660 42.668762677500013 C18.608420291047626 47.268762677500007 11.908420291047694 48.168762677500013 8.708420291047648 47.368762677500001 zM9.808420291047673 33.568762677499997 C9.808420291047671 33.568762677499990 9.708420291047648 33.568762677499990 9.708420291047648 33.568762677499990 C9.808420291047671 30.668762677500013 10.008420291047660 27.768762677500007 10.108420291047683 24.868762677500001 C13.808420291047671 24.468762677499996 18.708420291047648 24.368762677500001 19.408420291047694 28.868762677500001 C20.508420291047717 35.468762677499996 13.808420291047671 35.068762677499990 9.808420291047671 33.568762677499990 z" />
<glyph unicode="C" horiz-adv-x="27.203594245765334" d="M16.828275931826226 47.628600405699999 C12.928275931826205 50.028600405699990 9.728275931826216 45.028600405699990 8.728275931826216 41.828600405700001 C8.028275931826228 39.628600405700013 7.828275931826239 37.228600405700007 8.028275931826228 34.928600405699996 C8.228275931826216 32.228600405700007 8.828275931826239 28.928600405699996 10.928275931826205 27.028600405699990 C14.028275931826228 24.228600405700007 18.028275931826172 26.228600405700007 18.828275931826241 30.128600405700013 C19.628275931826195 33.928600405699996 25.428275931826263 32.328600405700001 24.628275931826195 28.528600405699990 C23.428275931826263 22.928600405699996 18.728275931826218 19.028600405699990 12.928275931826205 19.628600405700013 C6.828275931826239 20.228600405699979 3.628275931826250 25.528600405699990 2.528275931826228 31.028600405699990 C1.328275931826239 37.328600405700001 2.028275931826228 44.428600405699996 6.128275931826250 49.628600405700013 C9.528275931826228 54.028600405699990 15.028275931826228 55.828600405700001 19.928275931826263 52.828600405700001 C23.228275931826218 50.828600405700001 20.228275931826218 45.628600405700013 16.828275931826241 47.628600405700013 z" />
<glyph unicode="D" horiz-adv-x="25.380555082246133" d="M18.317720526143535 25.107690631000001 C14.565300438043554 21.026104728200011 9.725857526843530 20.516406474999997 4.447498248543528 21.034984654799985 C4.048223171143551 21.059055646600001 3.754784611143524 21.176927659800015 3.461346051143554 21.294799673000000 C2.281574063043539 21.666468956300008 1.137908562643535 22.637050855599995 1.134373760543557 24.240168912800016 C0.953168698643541 32.866707310399988 0.771963636843513 41.493245708000018 0.596776322943530 50.219602874900005 C0.608811818843552 50.419240413599994 0.614829566743541 50.519059182900008 0.620847314743518 50.618877952199995 C0.212019687343517 52.146248231800001 0.813415249043548 53.813078570599998 2.827843879343508 53.992179919699993 C12.700349492443539 54.899722160799996 21.933921966743586 48.532529737000004 22.817393216043573 38.260749046599983 C23.227272699943573 33.427323883300005 21.634759049243488 28.614434909700009 18.317720526143493 25.107690630999997 zM16.722430539243533 38.528012902000000 C15.931329222043590 43.684965364999982 11.650105780543530 47.449420949000000 6.577401788743547 48.055782402299997 C6.749054300443508 40.932543292499986 6.926724560143558 33.909122952100006 7.098377071843519 26.785883842299995 C9.999139130243524 26.711187921100020 12.530714851043516 27.159656838399997 14.595768410743521 29.840245168499990 C16.449148935943530 32.333231455900005 17.240629486143579 35.491325586599999 16.722430539243536 38.528012902000000 z" />
<glyph unicode="E" horiz-adv-x="23.392129411842141" d="M5.887917895799982 18.715334061499998 C4.185017996799957 18.703847808799992 3.069820490699954 20.364069035600011 3.047936764799999 21.867239386100010 C2.868757000899961 31.890107968100011 2.684378500499975 41.813111775899984 2.500000000000000 51.736115583599997 C2.504109956899981 53.738609805400017 4.054068936399972 54.659276499599997 5.646706588099960 54.476231940399998 C5.846436136600005 54.465834467299999 6.151229195899987 54.550103031899994 6.450823518699963 54.534506822200001 C10.350748451399966 54.431620870600000 14.161206082999968 54.533663204199996 18.181790736300002 54.825037613099994 C21.997447104400010 55.026944720900019 21.685522910900033 49.035058265200007 17.869866542699981 48.833151157400010 C14.753263594399925 48.594852893699994 11.746922893399926 48.551085441999987 8.645916154799977 48.612381501100003 C8.636607461300002 46.510022504999995 8.732362278599965 44.502329546699997 8.723053585099990 42.399970550700004 C10.531016995000016 42.506122841099995 12.444043915599934 42.706941169299995 14.252007325400029 42.813093459699985 C15.860241186699966 42.929643223299990 17.426885155499974 42.247274792799999 17.837830505300019 40.523579947499996 C18.164507290500012 39.104678161700008 17.156550854399995 37.054306531199984 15.548316993099945 36.937756767600007 C13.335695749699937 36.752534649200015 11.023209731999998 36.572511267200014 8.810588488599990 36.387289148799994 C8.912630822099970 32.576831517199992 8.909609644900002 28.671707847899995 9.011651978399982 24.861250216299993 C11.718398356500018 24.920613877699992 14.435542207799983 25.179707087600008 17.163083532200005 25.638529846099999 C20.999534846599943 26.239896050900001 22.295844514400017 20.364559358900010 18.459393199999965 19.763193153999993 C14.323347562799938 19.177423158900012 10.097834624499967 18.796581448799969 5.887917895800001 18.715334061499988 z" />
<glyph unicode="F" horiz-adv-x="25.887500000000003" d="M12.500000000049496 50.554563894499999 C12.500000000049509 48.254563894499995 12.500000000049509 46.054563894500006 12.500000000049509 43.754563894499995 C14.900000000049486 44.054563894500006 17.200000000049442 44.354563894499989 19.600000000049533 44.454563894499984 C23.500000000049511 44.654563894500001 23.400000000049488 38.654563894500001 19.600000000049533 38.454563894499984 C17.300000000049465 38.354563894499989 15.000000000049509 38.154563894500001 12.700000000049497 37.754563894499995 C12.800000000049520 32.354563894499989 13.100000000049475 27.054563894500006 13.400000000049486 21.754563894499995 C13.600000000049475 17.854563894499989 7.600000000049475 17.954563894500012 7.400000000049486 21.754563894499995 C6.800000000049520 32.154563894500001 6.500000000049509 42.654563894500001 6.500000000049509 53.154563894500001 C6.500000000049509 54.154563894500001 6.900000000049486 54.854563894499989 7.500000000049509 55.354563894499989 C7.900000000049486 55.754563894499995 8.300000000049520 56.054563894500006 8.800000000049520 56.154563894500001 C12.700000000049497 56.654563894500001 16.600000000049533 56.954563894499984 20.500000000049511 56.654563894500001 C24.300000000049465 56.354563894499989 24.400000000049488 50.354563894499989 20.500000000049511 50.654563894500001 C17.800000000049465 50.854563894499989 15.200000000049497 50.854563894499989 12.500000000049509 50.554563894500006 z" />
<glyph unicode="G" horiz-adv-x="29.124627663142082" d="M19.044680669305396 19.441987829599999 C12.444680669305370 16.941987829600009 5.544680669305393 21.541987829600004 3.244680669305382 27.641987829599998 C0.744680669305382 34.241987829599992 2.144680669305416 43.641987829599998 6.244680669305382 49.341987829599987 C9.944680669305370 54.441987829600009 16.644680669305416 55.841987829599987 21.444680669305370 51.641987829599998 C24.444680669305370 49.241987829599992 20.144680669305416 44.941987829600009 17.244680669305382 47.441987829600009 C12.944680669305370 51.141987829599998 9.744680669305382 43.841987829599987 8.944680669305370 40.941987829600009 C8.044680669305393 37.441987829600009 7.444680669305370 33.441987829600009 8.744680669305382 30.041987829600004 C10.544680669305393 25.341987829599987 16.044680669305393 22.541987829600004 19.444680669305370 27.441987829600009 C21.044680669305393 29.641987829599998 20.944680669305370 32.941987829600009 20.644680669305416 35.841987829599987 C18.744680669305438 35.641987829599998 16.944680669305370 35.441987829600009 15.044680669305393 35.241987829599992 C11.244680669305382 34.841987829599987 11.244680669305382 40.841987829599987 15.044680669305393 41.241987829599992 C17.844680669305347 41.541987829600004 20.544680669305393 41.841987829599987 23.244680669305438 42.141987829599998 C25.044680669305393 42.341987829599987 26.044680669305393 40.641987829599998 26.244680669305438 39.141987829599998 C27.144680669305416 32.141987829599998 27.044680669305393 22.441987829600009 19.044680669305393 19.441987829600009 z" />
<glyph unicode="H" horiz-adv-x="27.277991528020831" d="M23.230769096820829 21.948124459300001 C22.932116314420838 18.089389939400007 16.987672307620798 18.244012475999995 17.286325090020839 22.102746995899992 C17.605594210620822 26.754074049999986 17.636599646120814 30.935678927499993 17.856794699920826 35.589583023899991 C14.775190460620806 35.273175067300002 11.795237330420818 35.053264135299997 8.718787175720806 34.935004312399997 C8.999116540320856 30.466363138199995 9.090256286620829 26.085260473299996 9.568733784720834 21.611465214500015 C9.966176512120839 17.833765465499994 4.021732505320855 17.988388002199997 3.624289778020838 21.766087751199990 C2.604339306720860 32.103292245900008 2.365445812220841 42.051809334700010 2.536961184520848 52.457163388900000 C2.637465833420819 56.321051993299989 8.581909840220803 56.166429456599985 8.481405191320832 52.302540852199996 C8.380900542520848 48.438652247800007 8.478544027220821 44.756222134899986 8.576187512020837 40.887179446000005 C11.751711733520821 41.002862226700017 14.929812997320809 41.217619074100014 18.110491303320870 41.531449988399999 C18.216150036720862 45.593486726300000 18.324385812420857 48.821534650800004 18.333547521220837 52.985222497800009 C18.334978103320779 56.851688144500002 24.279422110120819 56.697065607799999 24.277991528020877 52.830599961100006 C24.195242053320882 42.026372597600016 24.004459996720854 32.635238460099998 23.230769096820879 21.948124459300004 z" />
<glyph unicode="I" horiz-adv-x="14.310358007101343" d="M9.010358007101342 51.108611622799998 C9.810358007101350 39.808611622800015 10.210358007101327 32.779520438100008 10.310358007101350 21.479520438099996 C10.310358007101350 17.579520438099991 4.310358007101350 17.579520438099991 4.310358007101350 21.479520438099996 C4.227467151601338 30.846187104699993 3.938449478601349 35.941944956100002 3.386351560601334 45.308611622800015 C3.272395406701328 47.241944956099985 3.147231163401337 49.175278289500000 3.010358007101338 51.108611622799998 C2.710358007101327 55.008611622800004 8.810358007101350 54.908611622800009 9.010358007101338 51.108611622799998 z" />
<glyph unicode="J" horiz-adv-x="28.845383466984991" d="M24.672800000007300 50.021501014199998 C23.472800000007243 49.821501014200010 22.272800000007312 49.621501014199993 21.072800000007266 49.721501014199987 C21.372800000007334 43.721501014199987 21.772800000007312 37.621501014199993 21.872800000007334 31.621501014199993 C21.872800000007334 27.421501014200004 21.272800000007312 23.021501014199998 18.072800000007266 20.021501014199998 C10.772800000007312 13.121501014199993 4.072800000007323 22.721501014199987 3.972800000007300 29.821501014200010 C3.972800000007300 33.721501014199987 9.972800000007300 33.721501014199987 9.972800000007300 29.821501014200010 C9.972800000007300 27.021501014199998 12.272800000007312 21.021501014199998 14.972800000007300 25.621501014199993 C16.372800000007278 28.021501014199998 15.872800000007278 31.321501014200010 15.772800000007312 34.021501014199998 C15.572800000007323 38.821501014200010 15.372800000007278 43.721501014199987 15.172800000007289 48.621501014199993 C12.172800000007289 48.221501014199987 9.272800000007312 47.721501014199987 6.272800000007312 47.321501014200010 C2.472800000007300 46.721501014199987 0.872800000007278 52.521501014199998 4.672800000007289 53.121501014199993 C10.772800000007312 54.021501014199998 16.872800000007278 54.921501014200004 23.072800000007266 55.821501014200010 C26.872800000007334 56.321501014200010 28.472800000007243 50.521501014199998 24.672800000007289 50.021501014199998 z" />
<glyph unicode="K" horiz-adv-x="27.541864741251075" d="M19.310471085804611 19.734888438100000 C16.310471085804579 24.134888438100006 13.010471085804625 28.334888438099995 9.610471085804591 32.434888438100018 C9.710471085804613 28.434888438099989 9.810471085804636 24.334888438099995 9.910471085804602 20.334888438099995 C10.010471085804625 16.434888438099989 4.010471085804625 16.434888438099989 3.910471085804602 20.334888438099995 C3.910471085804602 26.934888438099989 3.610471085804591 33.534888438099983 3.310471085804636 40.134888438100006 C3.210471085804613 40.434888438100018 3.210471085804613 40.834888438099995 3.210471085804613 41.134888438100006 C3.010471085804625 44.934888438100018 2.810471085804636 48.834888438099995 2.510471085804625 52.734888438100000 C2.210471085804613 56.634888438100006 8.210471085804613 56.534888438099983 8.510471085804625 52.734888438100000 C8.810471085804636 49.134888438100006 9.010471085804625 45.534888438099983 9.210471085804613 41.934888438100018 C9.310471085804636 41.834888438099995 9.510471085804625 41.634888438100006 9.610471085804591 41.434888438100018 C12.710471085804613 45.134888438100006 15.510471085804625 49.034888438099983 18.210471085804556 53.034888438099983 C20.310471085804579 56.234888438100000 25.510471085804625 53.234888438100000 23.410471085804602 50.034888438099983 C20.410471085804602 45.434888438100018 17.110471085804647 41.134888438100006 13.610471085804591 36.934888438100018 C17.510471085804625 32.334888438099995 21.110471085804647 27.634888438100006 24.510471085804625 22.734888438100000 C26.710471085804556 19.534888438100012 21.510471085804625 16.534888438100012 19.310471085804579 19.734888438100000 z" />
<glyph unicode="L" horiz-adv-x="22.455817493262217" d="M19.124838199324600 21.148286439700001 C14.974739562424656 20.382335198100009 10.818971646824604 19.516544789499989 6.569033842924579 18.756262826700009 C4.543904108024616 18.370452566599994 2.926008170724582 19.864578644200009 2.939554578824595 21.867031264100007 C2.824616121324606 32.190150422100004 2.615507775524588 42.618778026000001 2.500569318024599 52.941897183999998 C2.422153688324624 56.852632535400005 8.406834432924608 56.412636642999985 8.490919341324581 52.601740458600005 C8.673889143924622 43.476691305299994 8.762689058224577 34.457150597700007 8.845819693724604 25.337770723099993 C11.886348935424575 25.966405696799995 14.821369731324648 26.500870782300012 17.861898973024562 27.129505756100002 C21.706810830024619 27.812625666799988 22.975419335024593 21.931245517500003 19.124838199324653 21.148286439700001 z" />
<glyph unicode="M" horiz-adv-x="36.73070441698912" d="M28.201175513925719 22.761663286000001 C27.401175513925661 29.661663285999992 26.301175513925752 36.461663286000004 25.001175513925684 43.161663285999992 C23.101175513925707 39.261663285999987 21.101175513925707 35.261663285999987 19.201175513925730 31.361663286000010 C17.901175513925718 28.761663285999987 14.601175513925707 29.961663286000004 13.701175513925730 32.061663285999998 C12.301175513925696 35.461663286000004 10.701175513925730 38.761663285999987 8.901175513925718 41.961663286000004 C8.801175513925696 35.561663285999998 8.601175513925707 29.161663285999992 8.501175513925741 22.761663285999987 C8.401175513925718 18.861663286000010 2.401175513925718 18.861663286000010 2.501175513925741 22.761663285999987 C2.701175513925730 32.461663286000004 2.901175513925718 42.161663285999992 3.101175513925707 51.861663286000010 C3.201175513925730 55.061663285999998 7.101175513925707 55.761663285999987 8.701175513925730 53.461663286000004 C11.801175513925696 49.161663285999992 14.401175513925718 44.661663285999992 16.701175513925730 39.961663286000004 C19.001175513925741 44.561663285999998 21.301175513925752 49.261663285999987 23.601175513925707 53.861663286000010 C24.801175513925752 56.161663285999992 28.501175513925684 55.561663285999998 29.101175513925707 53.161663285999992 C31.301175513925752 43.161663285999992 33.001175513925688 33.061663285999998 34.201175513925733 22.861663286000010 C34.701175513925733 18.961663286000004 28.701175513925730 19.061663285999998 28.201175513925730 22.761663285999987 z" />
<glyph unicode="N" horiz-adv-x="31.432616059166751" d="M26.281354781585399 51.344613846599998 C26.171332073885448 55.154849404099991 20.183795036885410 55.554098988500016 20.288828175585447 51.643987987599985 C20.433861929485399 46.530382096399990 20.573906114385434 38.890937272900004 20.713950299285354 33.677455938300000 C16.309199460785376 39.704741401200010 12.004324065785422 45.727037295099990 7.699448670785412 51.749333188900010 C6.201232956185404 53.826675161899999 2.426008444885408 52.413282120500014 2.501020106385422 49.906416896699994 C2.761066136985416 41.082450891400015 3.026101736585385 31.425297449299990 3.286147767285424 22.601331444000010 C3.396170474985379 18.791095886499988 9.383707511885373 18.391846302099992 9.278674373285380 22.301957303100011 C9.158588464385414 27.914940411400011 8.938627112185397 34.465975969099986 8.818541203285374 40.078959077399986 C13.123416598285385 34.056663183500007 17.428291993385439 28.034367289599999 21.733167388385393 22.012071395699991 C23.231383102985458 19.934729422799990 27.006607614285397 21.348122464200003 26.931595952785440 23.854987687999994 C26.651591646085446 32.279451919600007 26.466473213885390 43.025014627500013 26.281354781585403 51.344613846599998 z" />
<glyph unicode="O" horiz-adv-x="28.995205868159253" d="M27.495205868131464 36.735699797199999 C27.495205868131464 29.635699797200004 22.995205868131464 22.135699797200004 15.595205868131487 20.835699797199993 C-3.004794131868536 17.435699797199987 -3.704794131868525 49.435699797200016 12.795205868131475 52.735699797199999 C13.495205868131464 52.835699797199993 14.195205868131453 52.735699797199999 14.695205868131453 52.535699797200010 C22.595205868131487 52.835699797199993 27.395205868131441 43.735699797199999 27.495205868131464 36.735699797199999 zM14.395205868131466 46.635699797199997 C13.995205868131464 46.635699797200004 13.695205868131453 46.635699797200004 13.395205868131441 46.735699797199999 C4.395205868131441 43.535699797199982 4.495205868131464 23.935699797199987 15.295205868131475 26.835699797199993 C23.395205868131441 29.035699797200010 23.695205868131509 47.135699797199976 14.395205868131441 46.635699797200004 z" />
<glyph unicode="P" horiz-adv-x="25.49714045717413" d="M10.011451851815343 31.021501014199998 C10.311451851815349 27.121501014199993 10.611451851815360 23.494726166300012 10.911451851815315 19.494726166300012 C11.211451851815326 15.594726166300006 5.411451851815315 15.794726166299995 4.911451851815372 19.494726166300012 C4.911451851815372 19.694726166300001 4.811451851815349 19.994726166300012 4.811451851815349 20.294726166299995 C4.811451851815349 20.494726166300012 4.811451851815349 20.794726166299995 4.811451851815349 20.994726166300012 C4.011451851815337 31.494726166300012 3.311451851815349 41.621501014199993 2.511451851815337 52.121501014199993 C2.311451851815349 54.621501014199993 4.711451851815326 55.521501014199998 6.511451851815337 54.821501014200010 C14.111451851815360 57.521501014199998 22.411451851815372 54.821501014200010 23.411451851815372 45.521501014199998 C24.311451851815349 37.221501014199987 18.011451851815394 30.821501014199953 10.011451851815337 31.021501014199998 zM9.611451851815342 37.021501014199998 C9.811451851815349 37.021501014199998 10.011451851815337 37.021501014199998 10.211451851815326 37.021501014199998 C19.811451851815349 35.721501014199987 19.911451851815372 53.721501014199987 8.711451851815326 49.321501014200010 C9.011451851815337 45.221501014199987 9.311451851815349 41.121501014199993 9.611451851815360 37.021501014199998 z" />
<glyph unicode="Q" horiz-adv-x="37.738181229782185" d="M20.202941967832086 17.081338742400000 C-0.497058032167899 13.181338742400015 -3.497058032167899 49.981338742399998 13.602941967832066 55.881338742400004 C14.002941967832101 56.281338742400010 14.602941967832066 56.481338742399998 15.402941967832078 56.381338742400004 C20.202941967832089 55.981338742399998 25.302941967832112 55.181338742399987 28.802941967832112 51.481338742399998 C32.002941967832044 48.181338742399987 33.302941967832112 43.581338742399993 33.702941967832089 39.181338742399987 C34.602941967832066 29.881338742400004 30.402941967832135 18.981338742399998 20.202941967832089 17.081338742399993 zM27.802941967832083 38.381338742399997 C27.602941967832066 41.481338742399998 26.702941967832089 44.981338742399998 24.602941967832066 47.281338742400010 C22.402941967832135 49.581338742399993 18.802941967832112 49.981338742399998 15.802941967832112 50.281338742400010 C4.502941967832101 46.881338742400004 6.402941967832078 18.781338742400010 20.302941967832112 23.281338742400010 C26.502941967832044 25.381338742400004 28.202941967832089 32.581338742399993 27.802941967832112 38.381338742400004 zM20.819371988132087 36.279918864099997 C22.119371988132116 32.579918864099994 25.119371988132116 29.379918864100006 27.419371988132070 26.279918864100011 C29.519371988132093 23.279918864100011 31.419371988132070 19.879918864100006 34.219371988132139 17.579918864099994 C37.219371988132139 15.179918864099989 32.919371988132070 10.879918864100006 30.019371988132093 13.379918864100006 C26.819371988132048 15.979918864100000 24.619371988132116 19.979918864100000 22.219371988132139 23.279918864100011 C19.619371988132059 26.879918864100006 16.619371988132059 30.379918864100006 15.019371988132093 34.679918864099989 C13.719371988132082 38.279918864100011 19.519371988132093 39.879918864100006 20.819371988132048 36.279918864100011 z" />
<glyph unicode="R" horiz-adv-x="29.019470444879715" d="M19.800663251632564 19.924550926211211 C16.872820831530262 24.868005059006350 15.151277190592410 28.133412031270211 11.820545709224476 32.882751753697363 C10.719197898982387 32.798888764990068 9.719305366083191 32.813549005519803 8.620889603947049 32.929664523392347 C8.562248641828390 28.930094391795478 8.474287198650316 24.423639802919354 8.415646236531714 20.424069671322485 C8.358471298466057 16.524488793015536 2.567890751968392 17.209453707827151 2.423621159401264 21.011977380950100 C2.426553207507212 21.211955887529939 2.430951279666047 21.511923647399755 2.435349351824939 21.811891407269513 C2.438281399930887 22.011869913849353 2.442679472089779 22.311837673719111 2.445611520195726 22.511816180298950 C2.599544045757185 33.010687775740735 2.882786305667835 41.775626891629855 3.036718831229294 52.274498487071639 C3.173358685843326 54.772763795266712 5.583362933172239 55.437503991024869 7.271452046677169 54.612667555805075 C15.101400308403370 56.598091998762072 23.152151031139070 54.485986724358924 23.315778554083082 45.182588096237311 C23.445387906120473 40.380171890215138 21.086994118333692 37.347383192160891 17.652174929205117 34.997485931003609 C20.784393928046271 30.351067509972296 22.508869617090014 27.285639044288189 25.338188807955376 22.443640188835900 C27.289595080005952 19.114674349209167 21.752069523683090 16.595585086584492 19.800663251632514 19.924550926211225 zM8.987695234876639 48.886891685326226 C8.927588248705050 44.787332300439431 8.867481262533502 42.927123828331560 8.807374276361898 38.827564443444771 C9.007352782941737 38.824632395338853 9.205865265468631 38.721711093942872 9.405843772048470 38.718779045836925 C18.775513100241838 36.581187719059699 20.539236229124427 52.317912037672301 8.987695234876654 48.886891685326219 z" />
<glyph unicode="S" horiz-adv-x="27.360915042270523" d="M24.698645460250578 30.695537525399999 C23.898645460250613 25.395537525400016 19.398645460250613 19.995537525400010 14.298645460250590 18.495537525400010 C9.098645460250602 16.895537525400016 3.698645460250567 19.695537525399999 2.398645460250556 24.995537525400010 C1.498645460250579 28.795537525399993 7.198645460250567 30.295537525399993 8.198645460250567 26.595537525400005 C9.898645460250556 19.895537525400016 17.798645460250590 27.395537525400016 18.598645460250545 30.395537525400016 C19.298645460250590 32.995537525400010 17.298645460250590 35.395537525400016 14.798645460250590 35.495537525400010 C13.298645460250590 35.595537525400005 11.498645460250579 34.795537525399993 9.998645460250579 34.395537525400016 C6.298645460250590 33.395537525400016 2.898645460250556 33.895537525400016 1.298645460250590 37.895537525400016 C-2.801354539749433 48.095537525400005 9.798645460250590 55.495537525400010 18.298645460250590 52.895537525400016 C21.998645460250522 51.795537525399993 20.398645460250613 45.995537525400010 16.698645460250567 47.095537525400005 C13.698645460250567 47.995537525400010 10.698645460250567 47.795537525399993 8.498645460250579 45.395537525400016 C6.998645460250579 43.695537525399999 5.498645460250579 40.895537525400016 8.398645460250556 40.195537525399999 C9.498645460250579 39.995537525400010 12.098645460250602 41.195537525399999 13.398645460250556 41.395537525400016 C14.698645460250567 41.595537525400005 15.998645460250522 41.695537525399999 17.398645460250613 41.495537525400010 C22.698645460250567 40.795537525399993 25.598645460250545 35.695537525399999 24.698645460250567 30.695537525399999 z" />
<glyph unicode="T" horiz-adv-x="27.93298251961027" d="M22.124908131210752 48.217341601500003 C20.015443034410708 48.204811411800023 17.897088508010796 48.092677115599997 15.778733981610769 47.980542819400000 C16.364253371710760 38.792117108599996 16.551356335610734 29.825861692499984 16.041230553710733 20.735219708199992 C15.794146902510731 16.841770123400011 9.826789939710777 17.474740011199998 10.064984161310774 21.268585489400010 C10.457726977210738 30.168908690299986 10.443163937310741 38.818572927399998 9.731372151610769 47.717075748300005 C7.305315875910734 47.532005634600011 4.888149029910748 47.446539627400000 2.470982183810774 47.361073620300004 C-1.358421013189259 47.200851415700015 -2.445389225689242 53.020516363500008 1.392903401010726 53.280342674699995 C4.516188422510735 53.403186780600009 7.539869337510735 53.534920316099999 10.663154359010745 53.657764422000014 C11.739200291610727 54.465307084000017 13.251040749110727 54.531173851799991 14.293349342910771 53.835765486000014 C16.511307975910739 53.939010352499992 18.729266608810775 54.042255218999998 20.947225241810742 54.145500085500004 C24.776628438810775 54.305722290099993 25.854707221610710 48.386453235799991 22.124908131210731 48.217341601500010 z" />
<glyph unicode="U" horiz-adv-x="28.399424646740087" d="M8.866125760649091 49.968762677484776 C7.966125760649106 44.068762677484756 5.166125760649095 25.568762677484756 13.466125760649106 23.568762677484756 C23.966125760649106 21.068762677484756 19.666125760649038 44.368762677484767 18.666125760649038 49.268762677484773 C17.866125760649084 53.068762677484756 23.666125760649038 54.668762677484779 24.466125760649106 50.868762677484767 C26.566125760649015 41.168762677484779 30.266125760649061 16.168762677484779 13.466125760649106 17.568762677484756 C-1.033874239350894 18.768762677484744 1.566125760649072 41.868762677484767 3.066125760649072 51.568762677484756 C3.666125760649095 55.368762677484767 9.466125760649106 53.768762677484773 8.866125760649084 49.968762677484790 z" />
<glyph unicode="V" horiz-adv-x="26.545633084786125" d="M24.015222243141491 49.595537525399997 C22.615222243141503 39.595537525400005 20.215222243141525 29.895537525400016 16.715222243141525 20.395537525400016 C15.715222243141469 17.695537525399999 11.815222243141491 17.395537525400016 10.915222243141514 20.395537525400016 C8.015222243141480 29.895537525400016 5.315222243141491 39.395537525400016 2.615222243141503 48.895537525400016 C1.615222243141503 52.595537525400005 7.415222243141514 54.195537525399999 8.415222243141514 50.495537525400010 C10.215222243141469 44.095537525400005 12.015222243141480 37.695537525399999 13.915222243141514 31.295537525399993 C15.815222243141491 37.795537525399993 17.315222243141434 44.395537525400016 18.215222243141525 51.195537525399999 C18.715222243141525 54.995537525400010 24.515222243141480 53.395537525400016 24.015222243141480 49.595537525400005 z" />
<glyph unicode="W" horiz-adv-x="38.286552900419835" d="M35.743295865831804 49.695537525399999 C34.543295865831794 40.195537525399999 32.743295865831840 30.895537525400016 30.343295865831745 21.695537525399999 C29.643295865831814 19.195537525399999 26.143295865831814 18.795537525399993 24.843295865831745 20.995537525400010 C22.843295865831859 24.295537525399993 21.043295865831791 27.795537525399993 19.343295865831802 31.295537525399993 C17.343295865831802 27.095537525400005 15.043295865831791 23.195537525399999 11.843295865831802 19.695537525399999 C10.443295865831825 18.095537525400005 7.243295865831779 18.795537525399993 6.843295865831802 20.995537525400010 C5.443295865831825 29.895537525400016 3.756683289731821 40.748275862100002 2.356683289731787 49.548275862100013 C1.756683289731821 53.348275862099996 7.556683289731776 54.948275862099990 8.156683289731799 51.148275862100007 C9.256683289731821 44.548275862100013 10.543295865831791 35.895537525400016 11.643295865831814 29.295537525399993 C13.643295865831814 32.695537525399999 15.243295865831779 36.395537525400016 16.843295865831802 40.095537525400005 C18.043295865831791 42.795537525399993 21.543295865831791 41.395537525400016 22.343295865831745 39.395537525400016 C23.543295865831791 36.395537525400016 24.943295865831768 33.495537525400010 26.343295865831745 30.595537525400005 C27.843295865831745 37.395537525400016 29.143295865831814 44.295537525399993 30.043295865831791 51.195537525399999 C30.543295865831791 54.995537525400010 36.343295865831749 53.395537525400016 35.743295865831840 49.695537525399999 z" />
<glyph unicode="X" horiz-adv-x="29.000714108818698" d="M20.997464738980302 21.635699797200001 C18.897464738980268 24.835699797199993 16.710852162880322 28.695537525399999 14.710852162880322 31.995537525400010 C12.310852162880288 28.595537525400005 10.110852162880299 25.095537525400005 8.110852162880299 21.495537525400010 C6.210852162880322 18.095537525400005 1.010852162880276 21.095537525400005 2.910852162880310 24.495537525400010 C5.410852162880310 29.095537525400005 8.310852162880288 33.395537525400016 11.310852162880288 37.695537525399999 C9.210852162880322 41.395537525400016 7.210852162880322 45.095537525400005 5.310852162880288 48.895537525400016 C3.610852162880299 52.295537525399993 8.810852162880288 55.395537525400016 10.510852162880276 51.895537525400016 C12.010852162880276 48.895537525400016 13.610852162880299 45.895537525400016 15.310852162880288 42.995537525400010 C17.010852162880276 45.295537525399993 20.017140195380314 49.088438133900013 21.717140195380246 51.388438133899996 C24.017140195380314 54.488438133899990 29.217140195380246 51.488438133899990 26.917140195380291 48.388438133899996 C24.517140195380314 45.188438133900007 20.810852162880344 40.495537525400010 18.510852162880276 37.295537525399993 C20.910852162880254 33.195537525399999 23.597464738980314 28.635699797200004 26.197464738980337 24.635699797200004 C28.297464738980246 21.435699797200016 23.097464738980314 18.435699797200016 20.997464738980291 21.635699797200004 z" />
<glyph unicode="Y" horiz-adv-x="27.27482561081392" d="M25.472747200760111 47.962474645000000 C21.172747200760114 38.862474644999992 16.872747200760159 29.662474645000003 12.572747200760091 20.562474645000009 C10.872747200760102 17.062474645000009 5.772747200760136 20.062474645000009 7.372747200760102 23.562474645000009 C8.472747200760125 25.862474644999992 9.572747200760091 28.262474644999998 10.672747200760114 30.562474645000009 C10.472747200760125 30.662474645000003 10.272747200760136 30.862474644999992 10.172747200760114 31.062474645000009 C6.472747200760125 36.162474645000003 3.272747200760136 41.662474645000003 0.772747200760136 47.462474644999986 C-0.727252799239864 50.962474644999986 4.372747200760102 54.062474645000009 5.972747200760125 50.462474644999986 C8.072747200760091 45.662474645000003 10.572747200760091 41.062474645000009 13.572747200760091 36.662474645000003 C15.772747200760136 41.462474644999986 18.072747200760091 46.162474645000003 20.272747200760136 50.962474644999986 C21.872747200760159 54.362474644999992 27.072747200760091 51.362474644999992 25.472747200760068 47.962474644999986 z" />
<glyph unicode="Z" horiz-adv-x="27.37632587986905" d="M22.781737156118080 22.995537525400000 C17.081737156118116 21.595537525400005 11.381737156118071 21.195537525399999 5.581737156118059 21.695537525399999 C3.881737156118071 21.895537525400016 1.881737156118071 23.495537525400010 2.681737156118082 25.495537525400010 C4.381737156118071 29.795537525399993 6.481737156118093 33.795537525399993 8.881737156118071 37.695537525399999 C10.281737156118105 39.895537525400016 11.681737156118082 42.095537525400005 12.981737156118093 44.295537525399993 C13.181737156118082 44.595537525400005 13.981737156118093 46.095537525400005 14.781737156118105 47.295537525399993 C11.881737156118071 47.095537525400005 8.881737156118071 46.695537525399999 6.281737156118105 46.495537525400010 C2.381737156118071 46.295537525399993 2.481737156118093 52.295537525399993 6.281737156118105 52.495537525400010 C10.281737156118105 52.695537525399999 23.981737156118093 56.095537525400005 21.681737156118025 48.095537525400005 C20.681737156118025 44.195537525399999 17.481737156118093 40.295537525399993 15.381737156118071 36.895537525400016 C13.481737156118093 33.795537525399993 11.581737156118059 30.795537525399993 9.981737156118093 27.595537525400005 C13.681737156118082 27.495537525399982 17.381737156118071 27.895537525400016 21.081737156118116 28.795537525399993 C24.881737156118071 29.695537525399999 26.481737156118093 23.895537525400016 22.781737156118048 22.995537525400010 z" />
<glyph unicode="a" horiz-adv-x="22.815455683134989" d="M2.042641875452549 38.533930030674924 C4.742641875452557 43.933930030674929 11.642641875452535 45.833930030674935 16.342641875452578 41.833930030674935 C22.242641875452556 36.733930030674912 18.242641875452556 28.333930030674935 21.042641875452510 22.133930030674946 C22.542641875452510 18.633930030674946 17.442641875452601 15.633930030674946 15.842641875452580 19.133930030674946 C13.842641875452580 23.733930030674912 14.542641875452512 28.333930030674935 13.942641875452603 33.133930030674946 C13.742641875452557 34.833930030674935 13.542641875452512 36.933930030674929 11.742641875452557 37.733930030674912 C9.642641875452535 38.633930030674946 8.142641875452535 37.333930030674935 7.242641875452557 35.533930030674924 C5.542641875452569 32.033930030674924 0.342641875452523 35.033930030674924 2.042641875452569 38.533930030674924 zM15.015675591018324 28.200939045846390 C13.509792675255506 28.051551482730616 5.911567014193531 27.596615439338052 7.636242345143808 24.201693495785918 C8.346696425215919 22.930766668581128 10.293374906457041 23.389507216900910 11.266714147077574 23.618877491060829 C12.486181105052276 24.111726695592864 13.253087098928825 25.217102286311103 13.922659168743360 26.299540849613521 C15.908438350771087 29.644190463582902 20.982755340265122 26.422186880386022 18.974039130821403 23.174871190478683 C17.285847535377989 20.311305382421523 14.784282121402464 18.283456650489256 11.451991675876537 17.600931642407573 C7.902096354810533 16.969866503555949 4.156939415796694 18.039352128591503 2.357867188200396 21.314003120665575 C0.702002939498152 24.416923292031527 1.553883688993347 28.213540100275225 3.963700993305077 30.630724528456000 C6.986044683803209 33.500469920734957 11.286088555551681 34.000092479312116 15.265607813299846 34.115965156039380 C19.124856119569891 34.306234729412722 18.897860924704410 28.293874695157655 15.015675591018374 28.200939045846383 z" />
<glyph unicode="b" horiz-adv-x="22.768492258271831" d="M7.679513184584186 51.988438133874226 C7.979513184584199 42.188438133874229 8.379513184584177 32.288438133874223 8.679513184584188 22.488438133874240 C7.679513184584188 23.488438133874240 6.679513184584188 24.488438133874240 5.679513184584188 25.488438133874240 C8.379513184584177 25.088438133874234 11.679513184584188 25.788438133874251 13.679513184584188 27.788438133874251 C17.879513184584177 31.788438133874251 11.179513184584188 34.888438133874217 7.679513184584188 34.488438133874240 C3.879513184584177 34.088438133874234 3.879513184584177 40.088438133874234 7.679513184584188 40.488438133874240 C14.479513184584199 41.288438133874251 22.479513184584199 35.888438133874217 20.879513184584177 28.388438133874217 C19.579513184584108 22.188438133874229 11.379513184584177 18.788438133874223 5.679513184584188 19.488438133874240 C3.979513184584199 19.688438133874229 2.779513184584154 20.688438133874229 2.679513184584188 22.488438133874240 C2.379513184584177 32.288438133874251 1.979513184584199 42.188438133874229 1.679513184584188 51.988438133874240 C1.579513184584165 55.888438133874217 7.579513184584165 55.888438133874217 7.679513184584188 51.988438133874240 z" />
<glyph unicode="c" horiz-adv-x="21.579273559083489" d="M13.977839757574733 35.996427916457129 C10.264453806767261 36.777942331132579 6.178349539410856 33.792351616334031 6.535283172778730 29.807053838078218 C6.972065964042240 25.126325177575012 11.617114336667537 23.243899716641778 15.263517372344193 25.675718974195320 C18.447405131227850 27.752461312288915 22.020988370940966 22.928614006575117 18.837100612057196 20.851871668481550 C11.620827764483391 16.198334713715951 2.189071594230068 19.443635246006920 0.665703219681728 28.327854333547805 C-0.743594929301441 36.218600732163878 7.081627774392057 43.458482612250009 14.806441482684516 41.929674850568659 C18.619174702384424 41.159567458449743 17.691225708382188 35.214913501781695 13.977839757574753 35.996427916457122 z" />
<glyph unicode="d" horiz-adv-x="24.458500210186713" d="M15.705303497061815 35.574239350912777 C11.605303497061819 37.074239350912762 8.205303497061784 35.974239350912768 7.705303497061784 31.174239350912785 C7.505303497061796 29.374239350912774 7.505303497061796 26.474239350912768 9.505303497061796 25.674239350912785 C11.505303497061796 24.874239350912774 14.105303497061819 26.274239350912779 15.805303497061807 27.174239350912785 C19.205303497061784 28.974239350912768 22.205303497061784 23.774239350912779 18.805303497061807 21.974239350912768 C15.105303497061819 19.974239350912768 10.605303497061819 18.374239350912774 6.605303497061819 20.274239350912751 C2.705303497061841 22.074239350912762 1.405303497061830 26.274239350912779 1.505303497061796 30.274239350912779 C1.605303497061819 34.474239350912768 3.105303497061819 38.774239350912808 6.905303497061830 40.974239350912796 C10.105303497061819 42.774239350912808 13.905303497061830 42.574239350912791 17.205303497061784 41.374239350912774 C20.805303497061807 39.974239350912796 19.205303497061784 34.174239350912785 15.705303497061784 35.574239350912762 zM21.305303497061814 54.974239350912796 C21.705303497061784 43.674239350912814 22.105303497061762 32.374239350912774 21.905303497061830 21.074239350912762 C21.805303497061807 17.174239350912785 15.805303497061807 17.174239350912785 15.905303497061830 21.074239350912762 C16.105303497061762 32.374239350912774 15.705303497061784 43.674239350912785 15.305303497061807 54.974239350912796 C15.105303497061819 58.874239350912802 21.105303497061875 58.874239350912802 21.305303497061807 54.974239350912796 z" />
<glyph unicode="e" horiz-adv-x="24.803798141097218" d="M5.472404485627626 33.339756592292105 C7.972404485627612 34.039756592292122 10.572404485627635 34.539756592292122 13.072404485627635 35.139756592292088 C14.072404485627635 35.339756592292105 15.172404485627601 35.539756592292122 16.172404485627659 35.739756592292110 C16.672404485627659 35.839756592292105 17.072404485627636 35.839756592292105 17.372404485627591 35.939756592292099 C17.172404485627659 33.639756592292088 16.772404485627682 33.039756592292122 16.172404485627659 34.039756592292122 C14.672404485627601 35.039756592292122 13.872404485627646 37.039756592292122 11.572404485627635 36.939756592292099 C9.972404485627612 36.839756592292105 8.772404485627623 35.439756592292099 8.172404485627657 34.039756592292122 C6.872404485627646 31.239756592292110 6.972404485627612 27.039756592292122 9.772404485627623 25.239756592292110 C12.172404485627601 23.639756592292088 15.872404485627589 23.939756592292099 17.572404485627636 26.439756592292099 C19.772404485627682 29.639756592292088 24.972404485627614 26.639756592292088 22.772404485627682 23.439756592292099 C18.972404485627614 17.939756592292099 11.372404485627646 16.739756592292110 5.972404485627612 20.739756592292110 C0.672404485627657 24.739756592292110 0.272404485627623 33.039756592292122 3.772404485627623 38.339756592292105 C8.272404485627623 45.139756592292088 17.072404485627636 43.739756592292110 21.272404485627682 37.439756592292099 C22.972404485627614 34.839756592292105 22.872404485627591 31.539756592292122 19.572404485627636 30.339756592292105 C15.672404485627657 28.939756592292099 11.172404485627601 28.639756592292088 7.072404485627635 27.539756592292122 C3.372404485627646 26.639756592292088 1.772404485627623 32.339756592292105 5.472404485627612 33.339756592292105 z" />
<glyph unicode="f" horiz-adv-x="22.592880310701599" d="M18.022583466977689 50.518634149770435 C15.622583466977728 52.818634149770446 13.322583466977717 49.018634149770435 12.922583466977683 47.418634149770440 C12.222583466977694 44.718634149770423 12.222583466977694 41.718634149770423 12.022583466977705 38.918634149770440 C11.722583466977694 33.118634149770429 12.022583466977705 27.318634149770418 12.822583466977717 21.518634149770435 C13.322583466977717 17.718634149770423 7.622583466977671 16.118634149770429 7.022583466977705 19.918634149770412 C6.222583466977694 25.618634149770429 5.722583466977694 31.318634149770446 5.922583466977683 37.018634149770435 C6.022583466977705 41.618634149770429 6.122583466977671 47.118634149770429 7.822583466977717 51.518634149770435 C9.822583466977717 56.818634149770446 17.922583466977684 59.018634149770435 22.222583466977639 54.718634149770423 C24.922583466977684 52.018634149770435 20.722583466977639 47.718634149770423 18.022583466977707 50.518634149770435 zM3.422583466977693 41.018634149770435 C7.922583466977683 41.618634149770429 12.522583466977705 42.318634149770446 17.022583466977707 42.918634149770440 C20.822583466977662 43.418634149770440 22.422583466977684 37.618634149770429 18.622583466977730 37.118634149770429 C14.122583466977728 36.518634149770435 9.522583466977705 35.818634149770446 5.022583466977705 35.218634149770452 C1.222583466977694 34.718634149770452 -0.377416533022329 40.518634149770435 3.422583466977683 41.018634149770435 z" />
<glyph unicode="g" horiz-adv-x="22.050575328860514" d="M15.179227714066101 36.599229354134025 C11.379227714066120 38.199229354134019 7.879227714066120 36.299229354134013 7.379227714066120 32.199229354134019 C7.179227714066075 30.599229354134025 6.779227714066097 28.199229354134047 7.979227714066086 26.999229354134030 C8.979227714066086 25.699229354134047 11.979227714066086 25.499229354134030 13.279227714066154 26.599229354134053 C16.179227714066130 29.099229354134053 20.379227714066062 24.899229354134036 17.479227714066084 22.399229354134036 C14.379227714066063 19.699229354134047 9.779227714066097 19.199229354134047 6.079227714066109 20.899229354134036 C2.379227714066120 22.599229354134025 1.079227714066109 26.399229354134036 1.179227714066132 30.299229354134042 C1.279227714066097 34.199229354134047 1.979227714066086 38.199229354134019 5.179227714066075 40.699229354134019 C8.279227714066097 43.199229354134019 13.079227714066109 43.899229354134036 16.779227714066153 42.399229354134036 C20.279227714066153 40.999229354134002 18.779227714066153 35.199229354134019 15.179227714066132 36.599229354134025 zM20.774047921453111 39.899229354134022 C20.774047921453118 34.699229354134019 20.774047921453118 29.599229354134053 20.774047921453118 24.399229354134036 C20.874047921453140 19.399229354134036 21.174047921453095 14.199229354134047 19.174047921453095 9.499229354134059 C15.774047921453120 1.599229354134053 5.774047921453120 -1.800770645865953 0.074047921453131 5.799229354134042 C-2.225952078546880 8.899229354134036 2.974047921453108 11.899229354134036 5.274047921453120 8.799229354134042 C8.574047921453074 4.299229354134042 13.174047921453097 9.999229354134030 14.174047921453097 13.099229354134053 C15.174047921453097 16.299229354134042 14.874047921453142 19.799229354134042 14.874047921453142 23.099229354134053 C14.874047921453142 28.699229354134047 14.974047921453051 34.299229354134013 14.874047921453142 39.899229354134036 C14.774047921453120 43.699229354134019 20.774047921453118 43.699229354134019 20.774047921453118 39.899229354134036 z" />
<glyph unicode="h" horiz-adv-x="21.623901812404114" d="M7.305044962658132 52.845188974697905 C7.705044962658151 42.145188974697930 8.005044962658106 31.345188974697919 8.505044962658106 20.645188974697902 C8.605044962658129 16.745188974697896 2.605044962658129 16.845188974697919 2.505044962658106 20.645188974697902 C2.105044962658129 31.345188974697919 1.705044962658151 42.145188974697930 1.305044962658117 52.845188974697919 C1.105044962658129 56.745188974697896 7.105044962658129 56.745188974697896 7.305044962658117 52.845188974697919 zM2.505044962658131 40.345188974697891 C6.605044962658129 43.545188974697908 13.405044962658140 42.745188974697896 16.905044962658081 39.045188974697908 C21.305044962658172 34.045188974697908 20.205044962658150 25.645188974697902 19.305044962658172 19.745188974697896 C18.705044962658150 15.945188974697885 12.905044962658140 17.545188974697908 13.505044962658106 21.345188974697891 C14.005044962658106 25.245188974697896 14.605044962658129 29.845188974697919 13.105044962658129 33.645188974697902 C11.905044962658140 36.645188974697930 8.005044962658106 37.145188974697930 5.505044962658106 35.245188974697925 C2.405044962658140 32.845188974697919 -0.594955037341860 38.045188974697908 2.505044962658106 40.345188974697891 z" />
<glyph unicode="i" horiz-adv-x="11.7092850885593" d="M8.704656000000000 38.409309585209712 C8.504656000000011 33.009309585209706 8.204656000000000 26.960661803223616 8.004656000000011 21.560661803223582 C7.804656000000023 17.660661803223604 1.804656000000023 17.660661803223604 2.004656000000011 21.560661803223582 C2.204656000000000 26.960661803223616 2.504656000000011 33.009309585209706 2.704656000000000 38.409309585209712 C2.904655999999989 42.209309585209724 8.904656000000045 42.209309585209724 8.704656000000000 38.409309585209712 zM5.604656000000000 44.009309585209714 C9.504655999999954 44.009309585209706 9.504655999999954 50.009309585209706 5.604655999999977 50.009309585209706 C1.804656000000023 50.009309585209706 1.804656000000023 44.009309585209706 5.604655999999977 44.009309585209706 z" />
<glyph unicode="j" horiz-adv-x="15.296238400909619" d="M10.016312826225619 41.039138295701598 C10.116312826225588 34.339138295701588 10.216312826225611 27.639138295701628 10.216312826225611 20.839138295701645 C10.316312826225634 15.839138295701645 10.716312826225611 10.339138295701616 8.016312826225622 5.839138295701616 C3.416312826225600 -1.760861704298378 -6.583687173774400 -0.760861704298378 -9.783687173774389 7.339138295701645 C-11.183687173774366 10.939138295701639 -5.383687173774355 12.539138295701633 -3.983687173774378 8.939138295701639 C-2.383687173774355 5.039138295701633 1.916312826225600 6.939138295701639 3.216312826225611 9.539138295701633 C3.916312826225600 11.039138295701633 4.116312826225645 12.939138295701639 4.216312826225611 14.539138295701662 C4.416312826225600 17.339138295701645 4.216312826225611 20.139138295701628 4.216312826225611 22.839138295701645 C4.216312826225611 28.939138295701639 4.116312826225645 34.939138295701582 4.016312826225622 41.039138295701605 C4.016312826225622 44.939138295701582 10.016312826225565 44.839138295701588 10.016312826225565 41.039138295701605 zM7.116312826225620 46.639138295701592 C11.016312826225565 46.639138295701599 11.016312826225565 52.639138295701599 7.116312826225645 52.639138295701599 C3.316312826225634 52.639138295701599 3.316312826225634 46.639138295701599 7.116312826225645 46.639138295701599 z" />
<glyph unicode="k" horiz-adv-x="22.381822417835274" d="M9.344818271805270 51.428600405679511 C8.744818271805260 40.928600405679504 8.604656000000007 31.448275862068982 8.004655999999985 20.948275862068982 C7.804655999999996 17.148275862068999 1.804655999999996 17.048275862068976 2.004655999999985 20.948275862068982 C2.604656000000007 31.448275862068982 3.118043423935122 40.928600405679504 3.718043423935145 51.428600405679504 C4.018043423935156 55.328600405679509 9.644818271805294 55.328600405679509 9.344818271805282 51.428600405679504 zM10.524331456389447 35.562474645030413 C13.124331456389458 30.862474645030431 16.524331456389433 26.762474645030437 20.524331456389433 23.162474645030443 C23.424331456389410 20.662474645030443 19.224331456389478 16.362474645030431 16.324331456389501 18.962474645030454 C11.924331456389469 22.862474645030431 8.224331456389480 27.462474645030426 5.324331456389446 32.562474645030420 C3.524331456389435 35.862474645030431 8.624331456389458 38.962474645030426 10.524331456389435 35.562474645030420 zM7.078977204259402 38.169995719362902 C10.009105438394984 40.591637421085380 13.038963840486163 43.020620348830192 15.969092074621729 45.442262050552671 C18.899220308757350 47.863903752275149 22.272869100597092 42.898171799247706 19.342740866461469 40.476530097525199 C16.412612632325960 38.054888395802720 13.382754230234612 35.625905468058022 10.452625996098989 33.204263766335515 C7.422767594007583 30.775280838590618 4.049118802168012 35.741012791617976 7.078977204259418 38.169995719362902 z" />
<glyph unicode="l" horiz-adv-x="11.885450212585923" d="M9.383603523304588 54.112716398268560 C9.088625529534603 43.804807396769206 8.795637079835025 31.717405004072702 8.500659086064992 21.409496002573349 C8.378290891601161 17.506288856522332 2.379478494817513 17.386916212272837 2.501846689281344 21.290123358323854 C2.796824683051377 31.598032359823208 3.089813132750842 43.685434752519541 3.384791126520818 53.993343754018895 C3.507159320984649 57.896550900069883 9.505971717768467 58.015923544319577 9.383603523304579 54.112716398268560 z" />
<glyph unicode="m" horiz-adv-x="33.957685441188737" d="M5.190277777777776 39.010904748412969 C8.290277777777796 42.510904748412969 14.690277777777773 42.910904748412975 17.890277777777762 39.310904748412952 C19.990277777777727 37.010904748412969 20.490277777777727 33.510904748412969 20.490277777777727 30.510904748412969 C20.490277777777727 27.110904748412963 20.490277777777727 23.610904748412963 20.190277777777773 20.210904748412986 C19.690277777777773 16.410904748412975 13.690277777777773 16.410904748412975 14.190277777777773 20.210904748412986 C14.590277777777750 23.710904748412986 14.690277777777773 27.510904748412969 14.590277777777750 31.010904748412969 C14.490277777777784 32.610904748412963 14.390277777777762 35.110904748412963 12.690277777777773 35.710904748412986 C11.490277777777784 36.110904748412963 10.190277777777773 35.610904748412963 9.490277777777784 34.710904748412986 C6.990277777777784 31.810904748412952 2.790277777777796 36.110904748412963 5.190277777777773 39.010904748412969 zM15.290277777777778 38.410904748412975 C17.690277777777773 42.910904748412975 24.790277777777796 43.210904748412986 28.390277777777818 40.010904748412969 C30.890277777777818 37.810904748412952 31.790277777777796 34.510904748412969 32.090277777777750 31.310904748412980 C32.390277777777818 27.710904748412986 32.690277777777773 23.910904748412975 32.190277777777773 20.310904748412980 C31.690277777777773 16.510904748412969 25.690277777777773 16.510904748412969 26.190277777777773 20.310904748412980 C26.690277777777773 23.910904748412975 26.590277777777750 28.310904748412980 25.990277777777727 31.910904748412975 C25.690277777777773 33.610904748412963 25.190277777777773 35.510904748412969 23.290277777777796 36.010904748412969 C22.390277777777818 36.210904748412986 20.990277777777727 36.210904748412986 20.490277777777727 35.310904748412952 C18.690277777777773 31.910904748412975 13.490277777777784 34.910904748412975 15.290277777777796 38.410904748412975 zM7.090277777777779 41.110904748412963 C9.090277777777750 38.110904748412963 9.590277777777750 34.810904748412952 9.490277777777784 31.310904748412980 C9.490277777777784 27.610904748412963 9.490277777777784 23.910904748412975 8.990277777777784 20.310904748412980 C8.490277777777784 16.510904748412969 2.490277777777784 16.510904748412969 2.990277777777784 20.310904748412980 C3.390277777777762 23.210904748412986 3.290277777777796 26.010904748412969 3.390277777777762 28.910904748412975 C3.490277777777784 32.110904748412963 3.890277777777762 35.210904748412986 1.990277777777784 38.110904748412963 C-0.109722222222238 41.310904748412952 5.090277777777750 44.310904748412952 7.090277777777750 41.110904748412963 z" />
<glyph unicode="n" horiz-adv-x="22.80032005778515" d="M7.989955654017177 41.454817051825216 C7.489955654017169 34.454817051825216 7.489955654017169 27.454817051825245 7.989955654017169 20.454817051825245 C8.289955654017181 16.554817051825239 2.289955654017181 16.654817051825233 1.989955654017169 20.454817051825245 C1.389955654017204 27.454817051825245 1.489955654017169 34.454817051825216 1.989955654017169 41.454817051825216 C2.289955654017181 45.354817051825222 8.289955654017181 45.354817051825222 7.989955654017169 41.454817051825216 zM1.989955654017175 36.654817051825233 C5.289955654017181 41.554817051825239 11.789955654017181 45.754817051825228 17.289955654017181 41.354817051825222 C22.889955654017204 36.854817051825222 20.689955654017158 26.654817051825233 20.289955654017181 20.554817051825239 C19.989955654017226 16.754817051825228 13.989955654017169 16.654817051825233 14.289955654017181 20.554817051825239 C14.489955654017169 24.454817051825245 15.089955654017135 28.254817051825228 14.789955654017181 32.154817051825233 C14.689955654017158 34.154817051825233 14.389955654017204 37.154817051825233 11.689955654017158 37.154817051825233 C9.689955654017158 37.154817051825233 8.189955654017158 35.054817051825239 7.189955654017158 33.554817051825239 C5.089955654017192 30.354817051825250 -0.110044345982796 33.354817051825250 1.989955654017169 36.654817051825233 z" />
<glyph unicode="o" horiz-adv-x="24.061604749257718" d="M11.293384267017640 37.456389452332658 C5.593384267017628 37.556389452332695 4.893384267017639 23.756389452332655 11.893384267017639 24.256389452332655 C19.193384267017592 24.656389452332661 16.293384267017615 36.156389452332661 10.893384267017639 37.556389452332667 C7.193384267017651 38.456389452332644 8.793384267017617 44.256389452332655 12.593384267017628 43.356389452332678 C25.293384267017615 40.156389452332661 25.693384267017592 17.256389452332655 10.893384267017639 18.256389452332655 C-2.806615732982349 19.156389452332633 -1.906615732982372 43.756389452332627 11.293384267017617 43.456389452332644 C15.093384267017685 43.356389452332678 15.093384267017685 37.356389452332678 11.293384267017617 37.456389452332644 z" />
<glyph unicode="p" horiz-adv-x="22.234725511196626" d="M7.518959904898479 39.741711082770173 C9.018959904898502 26.941711082770183 9.918959904898479 16.232878707524065 10.118959904898468 3.232878707524065 C10.218959904898490 -0.667121292475912 4.218959904898490 -0.667121292475912 4.118959904898468 3.232878707524065 C3.918959904898479 16.132878707524071 3.018959904898502 26.841711082770189 1.518959904898502 39.741711082770166 C1.118959904898468 43.641711082770172 7.118959904898468 43.541711082770178 7.518959904898502 39.741711082770166 zM3.718959904898476 39.841711082770182 C6.718959904898490 43.041711082770178 11.518959904898502 43.241711082770166 15.318959904898456 41.041711082770178 C18.918959904898479 38.941711082770183 20.518959904898502 34.841711082770189 20.718959904898433 30.841711082770189 C20.918959904898479 26.641711082770200 19.218959904898433 22.641711082770172 15.518959904898502 20.541711082770178 C11.818959904898456 18.541711082770178 6.818959904898456 19.041711082770178 4.118959904898468 22.241711082770195 C1.618959904898468 25.141711082770200 5.818959904898456 29.441711082770183 8.318959904898456 26.441711082770183 C11.418959904898479 22.841711082770189 14.818959904898456 27.641711082770200 14.618959904898524 30.841711082770189 C14.418959904898479 33.641711082770200 11.218959904898490 39.041711082770178 8.018959904898502 35.541711082770178 C5.418959904898479 32.741711082770166 1.118959904898468 36.941711082770183 3.718959904898490 39.841711082770189 z" />
<glyph unicode="q" horiz-adv-x="22.7811696638922" d="M14.540581880112198 36.339052315960899 C7.840581880112211 40.339052315960885 3.240581880112188 22.839052315960885 11.740581880112188 25.239052315960890 C15.440581880112177 26.239052315960890 17.040581880112200 20.439052315960879 13.340581880112211 19.439052315960879 C5.440581880112177 17.239052315960890 -0.159418119887789 24.139052315960896 1.440581880112177 31.639052315960896 C2.940581880112177 38.839052315960885 9.940581880112177 46.039052315960873 17.540581880112200 41.539052315960873 C20.840581880112211 39.539052315960873 17.840581880112211 34.339052315960885 14.540581880112200 36.339052315960885 zM19.410872820168297 38.339052315960899 C19.310872820168299 25.839052315960885 19.210872820168277 13.439052315960879 19.110872820168254 0.939052315960879 C17.410872820168322 1.639052315960868 15.710872820168277 2.339052315960885 14.010872820168288 3.039052315960873 C15.410872820168265 4.439052315960879 16.810872820168299 5.739052315960862 18.210872820168277 7.039052315960873 C17.310872820168299 6.139052315960868 17.810872820168299 6.739052315960862 18.110872820168311 7.039052315960873 C19.210872820168277 8.039052315960873 20.210872820168277 9.139052315960868 21.210872820168277 10.139052315960868 C23.910872820168322 12.939052315960851 28.110872820168254 8.639052315960868 25.410872820168322 5.939052315960879 C24.110872820168254 4.539052315960873 22.710872820168277 3.239052315960862 21.310872820168299 1.939052315960879 C22.210872820168277 2.839052315960885 21.710872820168277 2.139052315960868 21.410872820168322 1.939052315960879 C20.310872820168299 0.939052315960879 19.210872820168277 -0.160947684039115 18.210872820168277 -1.160947684039115 C16.410872820168322 -2.960947684039127 13.110872820168311 -1.660947684039115 13.110872820168311 0.939052315960879 C13.210872820168277 13.439052315960879 13.310872820168299 25.839052315960885 13.410872820168322 38.339052315960885 C13.510872820168288 42.239052315960890 19.510872820168345 42.239052315960890 19.410872820168322 38.339052315960885 z" />
<glyph unicode="r" horiz-adv-x="19.26229728468898" d="M5.087309037341015 33.242847259000825 C3.587309037341040 33.642847259000831 2.387309037340994 35.442847259000814 2.987309037341017 37.042847259000837 C4.987309037341017 42.142847259000831 12.087309037340983 45.342847259000848 16.987309037340960 42.142847259000831 C20.287309037341029 40.042847259000837 17.187309037341006 34.842847259000848 13.987309037340960 36.942847259000814 C12.587309037340983 37.842847259000848 9.387309037340994 37.042847259000837 8.787309037341029 35.342847259000848 C8.187309037341006 33.842847259000848 6.787309037341029 32.742847259000825 5.087309037341040 33.242847259000825 zM5.487309037341015 42.642847259000831 C7.787309037341029 39.942847259000814 8.787309037341029 37.042847259000837 9.287309037341029 33.542847259000837 C9.787309037341029 29.642847259000831 10.287309037341029 25.542847259000837 10.287309037341029 21.542847259000837 C10.287309037341029 17.642847259000860 4.287309037341029 17.642847259000860 4.287309037341029 21.542847259000837 C4.287309037341029 24.442847259000843 3.887309037340994 27.242847259000825 3.587309037341040 30.142847259000831 C3.287309037341029 33.042847259000837 3.287309037341029 36.042847259000837 1.287309037341029 38.442847259000814 C-1.212690962658971 41.342847259000848 2.987309037341017 45.642847259000831 5.487309037341017 42.642847259000831 z" />
<glyph unicode="s" horiz-adv-x="18.55534539338008" d="M11.615150051531844 37.920213216141661 C8.815150051531869 38.820213216141667 5.815150051531869 36.320213216141667 9.615150051531824 34.720213216141673 C11.215150051531847 34.120213216141678 12.615150051531824 33.920213216141690 14.015150051531801 32.820213216141667 C16.415150051531892 30.920213216141690 17.815150051531869 28.020213216141684 17.515150051531801 25.020213216141684 C16.715150051531847 17.520213216141656 8.615150051531824 16.120213216141650 3.115150051531824 19.520213216141656 C-0.184849948468131 21.520213216141656 2.815150051531869 26.720213216141673 6.115150051531824 24.720213216141673 C7.615150051531824 23.720213216141673 10.715150051531847 22.720213216141673 11.415150051531835 25.220213216141673 C12.115150051531824 27.920213216141661 9.015150051531858 28.520213216141684 7.315150051531869 29.020213216141684 C4.415150051531835 29.920213216141690 2.115150051531824 31.520213216141684 1.615150051531824 34.720213216141673 C0.515150051531858 41.320213216141667 7.515150051531858 45.520213216141656 13.215150051531847 43.720213216141644 C16.815150051531869 42.520213216141656 15.315150051531869 36.720213216141644 11.615150051531824 37.920213216141661 z" />
<glyph unicode="t" horiz-adv-x="19.450000000000003" d="M1.250000000000000 41.019644517364185 C1.249999999999993 42.819644517364168 2.649999999999970 43.819644517364196 4.249999999999993 44.019644517364185 C8.149999999999970 44.519644517364185 12.050000000000004 45.019644517364185 15.950000000000038 45.519644517364185 C17.549999999999947 45.719644517364202 18.950000000000038 44.019644517364213 18.950000000000038 42.519644517364213 C18.950000000000038 40.719644517364202 17.549999999999947 39.719644517364173 15.950000000000038 39.519644517364156 C12.050000000000004 39.019644517364156 8.149999999999970 38.519644517364156 4.249999999999993 38.019644517364156 C2.649999999999970 37.719644517364145 1.249999999999993 39.519644517364185 1.249999999999993 41.019644517364185 zM12.692079353997848 51.832927568727918 C12.792079353997842 45.832927568727911 12.949999999999982 41.519644517364100 12.949999999999982 35.419644517364134 C12.949999999999982 30.919644517364134 12.550000000000004 25.919644517364077 13.749999999999993 21.619644517364065 C14.749999999999993 17.919644517364077 8.949999999999982 16.319644517364054 7.949999999999982 20.019644517364071 C6.749999999999993 24.519644517364071 6.949999999999982 29.419644517364077 6.949999999999982 34.019644517364100 C6.850000000000016 40.519644517364100 6.792079353997842 45.332927568727911 6.592079353997853 51.832927568727911 C6.492079353997831 55.732927568727916 12.492079353997831 55.732927568727916 12.692079353997819 51.832927568727911 z" />
<glyph unicode="u" horiz-adv-x="21.713825071257915" d="M8.217638339500091 39.600440960718743 C7.717638339500077 37.300440960718731 4.817638339500100 21.000440960718748 11.017638339500088 23.900440960718754 C15.917638339500066 26.200440960718765 13.117638339500111 35.800440960718731 13.317638339500043 39.900440960718754 C13.417638339500066 43.800440960718731 19.417638339500066 43.800440960718731 19.317638339500043 39.900440960718754 C19.117638339500111 34.600440960718743 20.717638339500134 29.100440960718743 18.617638339500111 24.000440960718720 C17.117638339500111 20.400440960718754 13.617638339500111 17.500440960718720 9.517638339500088 17.600440960718743 C-1.682361660499900 17.900440960718754 0.817638339500100 34.400440960718754 2.417638339500066 41.200440960718765 C3.317638339500100 44.900440960718754 9.117638339500111 43.300440960718731 8.217638339500077 39.600440960718743 z" />
<glyph unicode="v" horiz-adv-x="25.890668772093608" d="M7.002097041420119 41.335228156273544 C9.902097041420145 35.135228156273541 12.802097041420122 28.935228156273553 15.702097041420100 22.635228156273541 C14.002097041420111 22.635228156273541 12.202097041420100 22.635228156273541 10.502097041420111 22.635228156273541 C14.302097041420122 28.535228156273547 16.002097041420111 35.335228156273558 18.402097041420145 41.835228156273558 C19.702097041420100 45.435228156273524 25.502097041420168 43.835228156273558 24.202097041420100 40.135228156273541 C21.602097041420077 33.235228156273536 19.702097041420100 25.935228156273524 15.702097041420100 19.635228156273541 C14.602097041420134 17.935228156273524 11.502097041420111 17.435228156273524 10.502097041420111 19.635228156273541 C7.602097041420134 25.935228156273524 4.702097041420100 32.135228156273541 1.802097041420122 38.335228156273530 C0.202097041420100 41.835228156273530 5.402097041420145 44.835228156273558 7.002097041420111 41.335228156273558 z" />
<glyph unicode="w" horiz-adv-x="39.725011975173487" d="M7.362577715218563 41.510547667342820 C9.462577715218565 35.110547667342814 11.062577715218588 28.410547667342826 14.362577715218542 22.510547667342820 C13.462577715218565 23.010547667342820 12.662577715218553 23.510547667342820 11.762577715218576 24.010547667342820 C11.762577715218576 24.010547667342820 11.862577715218542 24.010547667342820 11.862577715218542 24.010547667342820 C10.962577715218565 23.510547667342820 10.162577715218553 23.010547667342820 9.262577715218576 22.510547667342820 C11.762577715218576 28.410547667342826 14.462577715218565 34.210547667342837 16.962577715218565 40.110547667342814 C18.162577715218553 42.810547667342803 21.662577715218553 41.410547667342826 22.462577715218622 39.410547667342826 C24.962577715218622 33.610547667342814 27.662577715218553 27.810547667342803 30.162577715218553 21.910547667342826 C29.162577715218553 22.610547667342814 28.262577715218576 23.410547667342826 27.262577715218576 24.110547667342814 C27.262577715218576 24.110547667342814 27.362577715218599 24.110547667342814 27.362577715218599 24.110547667342814 C26.462577715218622 23.610547667342814 25.662577715218553 23.110547667342814 24.762577715218576 22.610547667342814 C28.062577715218531 28.510547667342820 29.662577715218553 35.210547667342809 31.762577715218576 41.610547667342814 C32.962577715218622 45.310547667342803 38.762577715218576 43.710547667342837 37.562577715218531 40.010547667342820 C35.262577715218576 33.110547667342814 33.562577715218531 26.010547667342820 29.962577715218622 19.610547667342814 C29.462577715218622 18.710547667342809 28.362577715218599 18.010547667342820 27.362577715218599 18.110547667342814 C27.362577715218599 18.110547667342814 27.262577715218576 18.110547667342814 27.262577715218576 18.110547667342814 C25.762577715218576 18.210547667342809 24.962577715218622 19.010547667342820 24.362577715218599 20.310547667342803 C21.862577715218542 26.110547667342814 19.162577715218553 31.910547667342826 16.662577715218553 37.810547667342803 C18.462577715218565 37.610547667342814 20.362577715218542 37.310547667342803 22.162577715218553 37.110547667342814 C19.662577715218553 31.210547667342809 16.962577715218565 25.410547667342826 14.462577715218565 19.510547667342820 C14.062577715218588 18.510547667342820 12.862577715218542 18.110547667342814 11.862577715218542 18.010547667342820 C11.862577715218542 18.010547667342820 11.762577715218576 18.010547667342820 11.762577715218576 18.010547667342820 C10.762577715218576 17.910547667342797 9.662577715218553 18.610547667342814 9.162577715218553 19.510547667342820 C5.662577715218553 25.910547667342797 3.862577715218542 33.010547667342820 1.662577715218553 39.910547667342826 C0.462577715218565 43.610547667342814 6.262577715218576 45.110547667342814 7.362577715218542 41.510547667342820 z" />
<glyph unicode="x" horiz-adv-x="23.438274285408831" d="M7.892604447961157 42.087297680507007 C11.641154596279204 35.184517676367733 16.424517711405723 28.929164983764991 21.628002665489316 23.052623115231626 C24.284842310831163 20.211636825412626 19.773696418907274 16.239287049552587 17.216723356443548 19.075109462510568 C11.634427578291263 25.371773170000665 6.572120221973943 32.042083824698636 2.544625832465396 39.359821790933665 C0.617835528436796 42.763860439994687 5.965814143932516 45.491336329568043 7.892604447961173 42.087297680506992 zM20.338969162153290 38.874714523250866 C16.867927171787823 31.705902383075909 11.538492841566562 25.752153167677335 7.036041975339128 19.236177707532676 C4.882388339899659 16.032777011622386 -0.451236001719270 18.788217336232833 1.702417633720199 21.991618032143094 C6.204868499947633 28.507593492287782 11.534302830168837 34.461342707686526 15.005344820534287 41.630154847861490 C16.645614472172678 45.110027757884779 21.979238813791721 42.354587433274162 20.338969162153330 38.874714523250873 z" />
<glyph unicode="y" horiz-adv-x="22.431421654562147" d="M7.631421654562152 39.566320167129930 C7.431421654562175 36.066320167129930 7.231421654562130 32.466320167129936 7.931421654562175 29.066320167129930 C8.231421654562130 27.966320167129936 8.531421654562141 25.766320167129948 9.531421654562141 24.966320167129936 C10.831421654562153 23.966320167129936 12.731421654562130 24.966320167129936 14.031421654562141 25.366320167129942 C17.731421654562187 26.566320167129959 19.231421654562187 20.766320167129948 15.631421654562164 19.566320167129959 C11.131421654562164 18.066320167129959 6.431421654562119 18.066320167129959 3.831421654562153 22.666320167129953 C1.031421654562141 27.566320167129959 1.431421654562119 34.066320167129930 1.731421654562130 39.466320167129936 C1.831421654562153 43.266320167129948 7.831421654562153 43.366320167129913 7.631421654562164 39.566320167129930 zM19.731421654562151 39.866320167129928 C20.631421654562164 29.766320167129948 22.731421654562187 16.566320167129959 17.631421654562164 7.166320167129953 C13.531421654562141 -0.433679832870041 4.431421654562175 -1.633679832870058 -2.568578345437825 2.666320167129953 C-5.868578345437836 4.666320167129953 -2.868578345437836 9.866320167129942 0.431421654562175 7.866320167129942 C18.031421654562141 -2.833679832870047 14.431421654562119 31.866320167129913 13.731421654562187 39.866320167129913 C13.431421654562119 43.766320167129948 19.431421654562119 43.666320167129925 19.731421654562187 39.866320167129913 z" />
<glyph unicode="z" horiz-adv-x="25.460235659518634" d="M3.887499999999999 43.142856058417962 C8.987500000000011 43.742856058417942 14.087499999999977 43.242856058417971 19.187500000000000 43.442856058417988 C21.287500000000023 43.542856058417982 23.187500000000000 40.742856058417971 21.787500000000023 38.942856058417988 C18.887500000000045 34.942856058417988 15.787500000000023 31.142856058417948 12.787500000000023 27.342856058417965 C10.887499999999989 25.042856058417954 8.087499999999977 22.442856058417931 6.887499999999989 19.642856058417948 C6.987500000000011 20.442856058417931 7.087499999999977 21.142856058417948 7.187500000000000 21.942856058417931 C6.187500000000000 22.642856058417948 5.287500000000023 23.442856058417931 4.287500000000023 24.142856058417948 C9.687500000000000 24.242856058417971 15.287500000000023 23.442856058417959 20.687500000000000 24.442856058417959 C24.487499999999955 25.142856058417948 26.087499999999977 19.342856058417937 22.287500000000023 18.642856058417948 C16.387500000000045 17.542856058417954 10.287500000000023 18.242856058417914 4.287500000000023 18.142856058417948 C2.887499999999989 18.142856058417948 1.887499999999989 19.142856058417948 1.387499999999989 20.342856058417937 C0.487500000000011 22.942856058417931 4.887499999999989 27.042856058417954 6.287500000000023 28.742856058417942 C9.687500000000000 33.142856058417948 13.287500000000023 37.442856058417988 16.587499999999977 41.942856058417988 C17.487499999999955 40.442856058417988 18.287500000000023 38.942856058417988 19.187500000000000 37.442856058417988 C14.087499999999977 37.242856058417971 8.987500000000011 37.742856058417942 3.887499999999989 37.142856058417976 C-0.012499999999989 36.642856058417976 0.087499999999977 42.642856058417976 3.887499999999989 43.142856058417976 z" />
</font>
</defs>
</svg>
